<svg xmlns="http://www.w3.org/2000/svg" viewBox="0 0 1541.76 328.77"><defs><style>.cls-1,.cls-11,.cls-15,.cls-17,.cls-18,.cls-19,.cls-31,.cls-32,.cls-33,.cls-9{fill:none;}.cls-1,.cls-18,.cls-19,.cls-31,.cls-32{stroke:#8e8e8e;}.cls-1,.cls-11,.cls-15,.cls-17,.cls-18,.cls-19,.cls-20,.cls-22,.cls-23,.cls-24,.cls-25,.cls-26,.cls-27,.cls-28,.cls-29,.cls-31,.cls-32,.cls-33,.cls-9{stroke-miterlimit:10;}.cls-2{fill:#8e8e8e;}.cls-3{font-size:17px;fill:#727272;font-family:Roboto-Regular, Roboto;}.cls-4{letter-spacing:-0.01em;}.cls-5{letter-spacing:0.02em;}.cls-6{letter-spacing:-0.01em;}.cls-7{letter-spacing:-0.02em;}.cls-8{letter-spacing:-0.01em;}.cls-9{stroke:#d3d3d3;stroke-width:2px;}.cls-10{fill:#d3d3d3;}.cls-11{stroke:#c95427;stroke-width:1.82px;}.cls-12,.cls-13{fill:#c95427;}.cls-13,.cls-14,.cls-34{font-size:15px;letter-spacing:0.02em;}.cls-13,.cls-14,.cls-21,.cls-30,.cls-34{font-family:Ayuthaya;}.cls-14{fill:#3293ad;}.cls-15,.cls-17{stroke:#38add6;}.cls-15{stroke-width:2px;}.cls-16,.cls-28{fill:#38add6;}.cls-17{stroke-width:1.29px;}.cls-18{stroke-width:0.69px;}.cls-19{stroke-width:0.69px;}.cls-20,.cls-22,.cls-23,.cls-24,.cls-25,.cls-26,.cls-27,.cls-29{fill:#fff;}.cls-20,.cls-22,.cls-23,.cls-24,.cls-25,.cls-26,.cls-27,.cls-28,.cls-29,.cls-33{stroke:#444;}.cls-20{stroke-width:0.47px;}.cls-21,.cls-30{font-size:18px;}.cls-21,.cls-30,.cls-34{fill:#3a3a3a;}.cls-21{letter-spacing:0.02em;}.cls-22,.cls-33{stroke-width:0.5px;}.cls-23{stroke-width:0.47px;}.cls-24{stroke-width:0.51px;}.cls-25{stroke-width:0.53px;}.cls-26{stroke-width:0.49px;}.cls-27{stroke-width:0.35px;}.cls-28{stroke-width:0.53px;opacity:0.22;}.cls-29{stroke-width:0.44px;}.cls-30{letter-spacing:0.02em;}.cls-31{stroke-width:0.82px;}.cls-32{stroke-width:0.82px;}</style></defs><g id="Layer_2" data-name="Layer 2"><g id="Layer_1-2" data-name="Layer 1"><line class="cls-1" x1="504.12" y1="131.13" x2="532.12" y2="131.13"/><polygon class="cls-2" points="530.66 136.12 539.29 131.13 530.66 126.14 530.66 136.12"/><text class="cls-3" transform="translate(624.49 16.34)">- Creating p<tspan class="cls-4" x="86.31" y="0">r</tspan><tspan x="91.9" y="0">ofile right after registering will feel like a pa</tspan><tspan class="cls-5" x="415.85" y="0">r</tspan><tspan x="422.02" y="0">t of the registering p</tspan><tspan class="cls-6" x="574.01" y="0">r</tspan><tspan x="579.59" y="0">ocess</tspan><tspan x="0" y="25.5">-</tspan><tspan class="cls-7" x="4.69" y="25.5"> </tspan><tspan x="8.57" y="25.5">The users also h</tspan><tspan class="cls-8" x="132.56" y="25.5">a</tspan><tspan x="141.69" y="25.5">ve the option </tspan><tspan class="cls-6" x="243.46" y="25.5">t</tspan><tspan x="248.85" y="25.5">o skip this step and get back later</tspan><tspan x="0" y="51">- Higher chance of users filling the form</tspan></text><polyline class="cls-9" points="410.21 104.95 410.21 1 607.34 1 607.34 93.22"/><polygon class="cls-10" points="597.35 90.29 607.34 107.6 617.33 90.29 597.35 90.29"/><polyline class="cls-11" points="410.21 154.18 410.21 234.94 410.21 268.27"/><polygon class="cls-12" points="401.13 265.61 410.21 281.34 419.3 265.61 401.13 265.61"/><polyline class="cls-11" points="828.54 176.12 828.54 198.91 448.63 198.91 448.63 165.98"/><polygon class="cls-12" points="457.71 168.64 448.63 152.91 439.54 168.64 457.71 168.64"/><text class="cls-13" transform="translate(369.14 198.91)">skip</text><text class="cls-13" transform="translate(743.86 217.76)">no</text><text class="cls-14" transform="translate(927.46 119.83)">yes</text><polyline class="cls-15" points="198.22 208.38 198.22 226.12 606.34 225.06 606.34 170.13"/><polygon class="cls-16" points="616.31 173.05 606.34 155.78 596.37 173.05 616.31 173.05"/><line class="cls-17" x1="905.57" y1="130.23" x2="970.53" y2="129.54"/><polygon class="cls-16" points="968.72 135.97 979.76 129.44 968.59 123.15 968.72 135.97"/><line class="cls-1" x1="1305.95" y1="130.29" x2="1356.16" y2="130.29"/><polygon class="cls-2" points="1354.7 135.28 1363.34 130.29 1354.7 125.31 1354.7 135.28"/><line class="cls-1" x1="1098.9" y1="131.29" x2="1150.14" y2="131.29"/><polygon class="cls-2" points="1148.68 136.28 1157.32 131.29 1148.68 126.31 1148.68 136.28"/><polyline class="cls-18" points="268.7 87.48 285.68 87.48 285.68 129.8 300.57 129.8"/><polygon class="cls-2" points="299.57 133.21 305.49 129.8 299.57 126.38 299.57 133.21"/><polyline class="cls-19" points="268.7 185.27 285.65 185.27 285.65 129.8"/><rect class="cls-20" x="138.35" y="64.37" width="130.79" height="46.22" rx="6.63"/><text class="cls-21" transform="translate(158.53 93.11)">register</text><rect class="cls-22" x="0.25" y="106.69" width="104.26" height="46.22" rx="7.11"/><text class="cls-21" transform="translate(31.31 134.71)">user</text><rect class="cls-23" x="138.35" y="162.16" width="130.79" height="46.22" rx="6.63"/><text class="cls-21" transform="translate(175.27 190.3)">login</text><rect class="cls-24" x="539.3" y="108.66" width="181.59" height="46.22" rx="7.23"/><text class="cls-21" transform="translate(557.05 137.02)">upload button</text><rect class="cls-25" x="307.09" y="282.28" width="196.85" height="46.22" rx="7.53"/><text class="cls-21" transform="translate(360.88 310.75)">Homepage</text><rect class="cls-26" x="1157.18" y="106.79" width="168.86" height="46.22" rx="6.97"/><text class="cls-21" transform="translate(1175.93 135.14)">upload scans</text><rect class="cls-27" x="1365.43" y="107.12" width="176.16" height="46.22" rx="5.03"/><text class="cls-21" transform="translate(1387.18 135.47)">confirmation</text><rect class="cls-28" x="306.1" y="106.69" width="197.84" height="46.22" rx="7.55"/><text class="cls-21" transform="translate(326.65 135.04)">create profile</text><rect class="cls-29" x="980.22" y="107.12" width="138.7" height="46.22" rx="6.32"/><text class="cls-30" transform="translate(1000.51 135.47)">agreement</text><polyline class="cls-31" points="104.94 129.8 122.15 129.8 122.15 93.11 132.47 93.11"/><polygon class="cls-2" points="131.28 97.19 138.33 93.11 131.28 89.04 131.28 97.19"/><polyline class="cls-32" points="122.14 130.06 122.14 185.54 132.63 185.54"/><polygon class="cls-2" points="131.43 189.63 138.53 185.54 131.43 181.44 131.43 189.63"/><path class="cls-33" d="M902.11,135.51l-71.24,40.12a5.81,5.81,0,0,1-4.66,0L755,135.51a5.79,5.79,0,0,1,.44-10.77l71.23-31.59a5.73,5.73,0,0,1,3.79,0l71.24,31.59A5.79,5.79,0,0,1,902.11,135.51Z"/><text class="cls-34" transform="translate(794.69 127.75)">profile <tspan x="0" y="20">created?</tspan></text><line class="cls-1" x1="720.75" y1="130.32" x2="743.99" y2="130.32"/><polygon class="cls-2" points="742.53 135.31 751.16 130.32 742.53 125.34 742.53 135.31"/></g></g></svg>