<svg xmlns="http://www.w3.org/2000/svg" viewBox="0 0 1278.91 189.38"><defs><style>.cls-1,.cls-17,.cls-18,.cls-3,.cls-5,.cls-6{fill:none;}.cls-1,.cls-17,.cls-18,.cls-5,.cls-6{stroke:#8e8e8e;}.cls-1,.cls-10,.cls-11,.cls-12,.cls-13,.cls-14,.cls-15,.cls-17,.cls-18,.cls-3,.cls-5,.cls-6,.cls-7,.cls-9{stroke-miterlimit:10;}.cls-2{fill:#8e8e8e;}.cls-3{stroke:#f47d7d;stroke-width:1.53px;}.cls-4{fill:#f47d7d;}.cls-5{stroke-width:0.69px;}.cls-6{stroke-width:0.69px;}.cls-10,.cls-11,.cls-12,.cls-13,.cls-14,.cls-15,.cls-7,.cls-9{fill:#fff;stroke:#444;}.cls-7{stroke-width:0.47px;}.cls-16,.cls-8{font-size:18px;fill:#3a3a3a;font-family:Ayuthaya;}.cls-8{letter-spacing:0.02em;}.cls-9{stroke-width:0.5px;}.cls-10{stroke-width:0.47px;}.cls-11{stroke-width:0.51px;}.cls-12{stroke-width:0.49px;}.cls-13{stroke-width:0.35px;}.cls-14{stroke-width:0.53px;}.cls-15{stroke-width:0.44px;}.cls-16{letter-spacing:0.02em;}.cls-17{stroke-width:0.82px;}.cls-18{stroke-width:0.82px;}.cls-19{fill:#c15b5b;}</style></defs><g id="Layer_2" data-name="Layer 2"><g id="Layer_1-2" data-name="Layer 1"><line class="cls-1" x1="1046.18" y1="111.47" x2="1096.39" y2="111.47"/><polygon class="cls-2" points="1094.93 116.46 1103.57 111.47 1094.93 106.49 1094.93 116.46"/><line class="cls-1" x1="850.14" y1="112.47" x2="901.38" y2="112.47"/><polygon class="cls-2" points="899.92 117.46 908.56 112.47 899.92 107.49 899.92 117.46"/><line class="cls-1" x1="689.65" y1="112.47" x2="733.1" y2="112.47"/><polygon class="cls-2" points="731.64 117.46 740.27 112.47 731.64 107.49 731.64 117.46"/><polyline class="cls-3" points="408.41 89.4 408.41 23.14 616.73 23.14 616.73 76.25"/><polygon class="cls-4" points="609.12 74.03 616.73 87.2 624.34 74.03 609.12 74.03"/><line class="cls-1" x1="460.21" y1="111.83" x2="510.43" y2="111.83"/><polygon class="cls-2" points="508.97 116.81 517.6 111.83 508.97 106.84 508.97 116.81"/><polyline class="cls-5" points="268.7 68.24 285.68 68.24 285.68 110.56 300.57 110.56"/><polygon class="cls-2" points="299.57 113.98 305.49 110.56 299.57 107.14 299.57 113.98"/><polyline class="cls-6" points="268.7 166.03 285.65 166.03 285.65 110.56"/><rect class="cls-7" x="138.35" y="45.13" width="130.79" height="46.22" rx="6.63"/><text class="cls-8" transform="translate(158.53 73.88)">register</text><rect class="cls-9" x="0.25" y="87.45" width="104.26" height="46.22" rx="7.11"/><text class="cls-8" transform="translate(31.31 115.47)">user</text><rect class="cls-10" x="138.35" y="142.92" width="130.79" height="46.22" rx="6.63"/><text class="cls-8" transform="translate(175.27 171.07)">login</text><rect class="cls-11" x="305.49" y="88.72" width="183.41" height="46.22" rx="7.27"/><text class="cls-8" transform="translate(323.25 117.07)">upload button</text><rect class="cls-12" x="907.32" y="88.03" width="168.86" height="46.22" rx="6.97"/><text class="cls-8" transform="translate(926.07 116.39)">upload scans</text><rect class="cls-13" x="1102.57" y="88.36" width="176.16" height="46.22" rx="5.03"/><text class="cls-8" transform="translate(1124.32 116.72)">confirmation</text><rect class="cls-14" x="517.81" y="88.72" width="197.84" height="46.22" rx="7.55"/><text class="cls-8" transform="translate(538.35 117.07)">create profile</text><rect class="cls-15" x="740.1" y="88.36" width="138.7" height="46.22" rx="6.32"/><text class="cls-16" transform="translate(760.39 116.72)">agreement</text><polyline class="cls-17" points="104.94 110.56 122.15 110.56 122.15 73.88 132.47 73.88"/><polygon class="cls-2" points="131.28 77.95 138.33 73.88 131.28 69.81 131.28 77.95"/><polyline class="cls-18" points="122.14 110.83 122.14 166.3 132.63 166.3"/><polygon class="cls-2" points="131.43 170.4 138.53 166.3 131.43 162.2 131.43 170.4"/><path class="cls-19" d="M647.45,9.47v4.22h-2V2.31h4.35a4.38,4.38,0,0,1,3,1A3.31,3.31,0,0,1,654,5.93a3.21,3.21,0,0,1-1.1,2.61,4.6,4.6,0,0,1-3.07.93Zm0-1.59h2.37a2.33,2.33,0,0,0,1.61-.5A1.82,1.82,0,0,0,652,6a2,2,0,0,0-.56-1.48,2.22,2.22,0,0,0-1.55-.56h-2.43Z" transform="translate(0 -1.52)"/><path class="cls-19" d="M659.94,7a4.9,4.9,0,0,0-.77-.06,1.74,1.74,0,0,0-1.76,1v5.78h-1.9V5.23h1.81l0,.95a2.15,2.15,0,0,1,1.91-1.1,1.65,1.65,0,0,1,.67.11Z" transform="translate(0 -1.52)"/><path class="cls-19" d="M660.5,9.38a5,5,0,0,1,.5-2.24,3.54,3.54,0,0,1,1.38-1.53,3.94,3.94,0,0,1,2-.53,3.69,3.69,0,0,1,2.77,1.1,4.35,4.35,0,0,1,1.16,2.92v.45a5,5,0,0,1-.48,2.23,3.5,3.5,0,0,1-1.37,1.52,3.94,3.94,0,0,1-2.07.54,3.64,3.64,0,0,1-2.86-1.19,4.53,4.53,0,0,1-1.08-3.17Zm1.9.17a3.39,3.39,0,0,0,.54,2,1.88,1.88,0,0,0,3,0,3.82,3.82,0,0,0,.53-2.2,3.35,3.35,0,0,0-.55-2,1.85,1.85,0,0,0-3,0A3.66,3.66,0,0,0,662.4,9.55Z" transform="translate(0 -1.52)"/><path class="cls-19" d="M671.75,5.23l.06.89a3,3,0,0,1,2.44-1,2.33,2.33,0,0,1,2.32,1.3,3,3,0,0,1,2.59-1.3,2.64,2.64,0,0,1,2.08.77,3.39,3.39,0,0,1,.7,2.28v5.56H680V8.19A1.65,1.65,0,0,0,679.69,7a1.53,1.53,0,0,0-1.16-.38,1.57,1.57,0,0,0-1.06.35,1.89,1.89,0,0,0-.58.91v5.8H675V8.12a1.35,1.35,0,0,0-1.52-1.49,1.68,1.68,0,0,0-1.62.93v6.13H670V5.23Z" transform="translate(0 -1.52)"/><path class="cls-19" d="M691.29,9.55a5,5,0,0,1-.89,3.13,3.11,3.11,0,0,1-4.62.25v4h-1.89V5.23h1.75l.07.86a2.82,2.82,0,0,1,2.28-1,2.86,2.86,0,0,1,2.42,1.15,5.16,5.16,0,0,1,.88,3.2Zm-1.89-.17a3.54,3.54,0,0,0-.5-2,1.64,1.64,0,0,0-1.44-.75,1.76,1.76,0,0,0-1.68,1v3.75a1.77,1.77,0,0,0,1.69,1,1.65,1.65,0,0,0,1.42-.73A3.92,3.92,0,0,0,689.4,9.38Z" transform="translate(0 -1.52)"/><path class="cls-19" d="M695.28,3.18V5.23h1.49V6.64h-1.49v4.72a1,1,0,0,0,.19.7.89.89,0,0,0,.68.21,3.11,3.11,0,0,0,.67-.07v1.46a4.72,4.72,0,0,1-1.25.18c-1.46,0-2.19-.8-2.19-2.41V6.64H692V5.23h1.39V3.18Z" transform="translate(0 -1.52)"/><path class="cls-19" d="M698.22,3a1,1,0,0,1,.28-.73,1,1,0,0,1,.79-.29,1.07,1.07,0,0,1,.8.29,1,1,0,0,1,.28.73,1,1,0,0,1-.28.71,1.07,1.07,0,0,1-.8.29,1,1,0,0,1-.79-.29A1,1,0,0,1,698.22,3Zm2,10.65h-1.9V5.23h1.9Z" transform="translate(0 -1.52)"/><path class="cls-19" d="M704.07,5.23l0,1a3.06,3.06,0,0,1,2.46-1.13c1.76,0,2.66,1,2.69,3v5.59h-1.9V8.21A1.74,1.74,0,0,0,707,7a1.45,1.45,0,0,0-1.13-.39,1.82,1.82,0,0,0-1.71,1v6h-1.9V5.23Z" transform="translate(0 -1.52)"/><path class="cls-19" d="M710.87,9.4a5,5,0,0,1,.93-3.15,3,3,0,0,1,2.45-1.17,2.78,2.78,0,0,1,2.28,1l.08-.86h1.71v8.2a3.39,3.39,0,0,1-1,2.62,3.9,3.9,0,0,1-2.79,1,4.48,4.48,0,0,1-1.82-.39,3.33,3.33,0,0,1-1.35-1l.9-1.14a2.72,2.72,0,0,0,2.16,1,2.11,2.11,0,0,0,1.49-.52,2,2,0,0,0,.55-1.5v-.57a2.8,2.8,0,0,1-2.19.91,3,3,0,0,1-2.43-1.18A5.06,5.06,0,0,1,710.87,9.4Zm1.89.16a3.4,3.4,0,0,0,.52,2,1.69,1.69,0,0,0,1.44.73,1.83,1.83,0,0,0,1.71-1V7.59a1.81,1.81,0,0,0-1.69-1,1.68,1.68,0,0,0-1.46.75A3.75,3.75,0,0,0,712.76,9.56Z" transform="translate(0 -1.52)"/><path class="cls-19" d="M729.38,12.86a2.94,2.94,0,0,1-2.38,1,2.61,2.61,0,0,1-2.08-.8,3.43,3.43,0,0,1-.71-2.33V5.23h1.9v5.46c0,1.07.45,1.61,1.34,1.61a1.88,1.88,0,0,0,1.87-1V5.23h1.89v8.46h-1.78Z" transform="translate(0 -1.52)"/><path class="cls-19" d="M737.89,11.39a.84.84,0,0,0-.42-.77,4.23,4.23,0,0,0-1.39-.47,7.53,7.53,0,0,1-1.62-.52,2.17,2.17,0,0,1-1.42-2A2.26,2.26,0,0,1,734,5.81a3.66,3.66,0,0,1,2.35-.73,3.81,3.81,0,0,1,2.45.75,2.38,2.38,0,0,1,.93,1.94h-1.9a1.18,1.18,0,0,0-.4-.91,1.57,1.57,0,0,0-1.08-.36,1.69,1.69,0,0,0-1,.29.92.92,0,0,0-.4.77.78.78,0,0,0,.37.68,5,5,0,0,0,1.49.49,6.82,6.82,0,0,1,1.75.59,2.57,2.57,0,0,1,1,.81,2.15,2.15,0,0,1,.3,1.16,2.2,2.2,0,0,1-.94,1.85,4.05,4.05,0,0,1-2.48.7,4.37,4.37,0,0,1-1.85-.37,3.1,3.1,0,0,1-1.27-1,2.47,2.47,0,0,1-.45-1.42h1.85a1.32,1.32,0,0,0,.5,1,2,2,0,0,0,1.25.36,1.92,1.92,0,0,0,1.14-.28A.89.89,0,0,0,737.89,11.39Z" transform="translate(0 -1.52)"/><path class="cls-19" d="M745.13,13.84a4,4,0,0,1-2.93-1.13,4.16,4.16,0,0,1-1.12-3V9.45a5,5,0,0,1,.49-2.27,3.76,3.76,0,0,1,1.37-1.55,3.64,3.64,0,0,1,2-.55,3.34,3.34,0,0,1,2.67,1.1,4.63,4.63,0,0,1,.94,3.12v.76H743a2.51,2.51,0,0,0,.7,1.66,2.1,2.1,0,0,0,1.54.61,2.54,2.54,0,0,0,2.12-1.06l1,1A3.39,3.39,0,0,1,747,13.43,4.34,4.34,0,0,1,745.13,13.84ZM744.9,6.6a1.58,1.58,0,0,0-1.26.55A2.82,2.82,0,0,0,743,8.67h3.61V8.53a2.36,2.36,0,0,0-.5-1.44A1.58,1.58,0,0,0,744.9,6.6Z" transform="translate(0 -1.52)"/><path class="cls-19" d="M754.42,7a4.93,4.93,0,0,0-.78-.06,1.72,1.72,0,0,0-1.75,1v5.78H750V5.23h1.81l.05.95a2.14,2.14,0,0,1,1.9-1.1,1.7,1.7,0,0,1,.68.11Z" transform="translate(0 -1.52)"/><path class="cls-19" d="M760.36,11.39a.84.84,0,0,0-.42-.77,4.23,4.23,0,0,0-1.39-.47,7.35,7.35,0,0,1-1.62-.52,2.17,2.17,0,0,1-1.42-2,2.26,2.26,0,0,1,.92-1.83,3.66,3.66,0,0,1,2.35-.73,3.81,3.81,0,0,1,2.45.75,2.38,2.38,0,0,1,.93,1.94h-1.9a1.18,1.18,0,0,0-.4-.91,1.6,1.6,0,0,0-1.08-.36,1.69,1.69,0,0,0-1,.29.89.89,0,0,0-.4.77.78.78,0,0,0,.37.68,4.92,4.92,0,0,0,1.48.49,6.78,6.78,0,0,1,1.76.59,2.45,2.45,0,0,1,.94.81,2.07,2.07,0,0,1,.31,1.16,2.2,2.2,0,0,1-.94,1.85,4.05,4.05,0,0,1-2.48.7,4.37,4.37,0,0,1-1.85-.37,3.1,3.1,0,0,1-1.27-1,2.47,2.47,0,0,1-.45-1.42h1.84a1.36,1.36,0,0,0,.51,1,2,2,0,0,0,1.24.36,1.92,1.92,0,0,0,1.14-.28A.9.9,0,0,0,760.36,11.39Z" transform="translate(0 -1.52)"/><path class="cls-19" d="M770.24,3.18V5.23h1.49V6.64h-1.49v4.72a1,1,0,0,0,.19.7.89.89,0,0,0,.68.21,3.11,3.11,0,0,0,.67-.07v1.46a4.72,4.72,0,0,1-1.25.18c-1.46,0-2.19-.8-2.19-2.41V6.64H767V5.23h1.39V3.18Z" transform="translate(0 -1.52)"/><path class="cls-19" d="M772.59,9.38a5,5,0,0,1,.49-2.24,3.66,3.66,0,0,1,1.38-1.53,4,4,0,0,1,2-.53,3.71,3.71,0,0,1,2.78,1.1,4.34,4.34,0,0,1,1.15,2.92v.45a5,5,0,0,1-.48,2.23,3.46,3.46,0,0,1-1.38,1.52,3.88,3.88,0,0,1-2.06.54,3.66,3.66,0,0,1-2.87-1.19,4.57,4.57,0,0,1-1.07-3.17Zm1.9.17a3.39,3.39,0,0,0,.54,2,1.76,1.76,0,0,0,1.5.74,1.72,1.72,0,0,0,1.49-.75,3.74,3.74,0,0,0,.54-2.2,3.42,3.42,0,0,0-.55-2,1.86,1.86,0,0,0-3,0A3.73,3.73,0,0,0,774.49,9.55Z" transform="translate(0 -1.52)"/><path class="cls-19" d="M789.51,12.33a1.69,1.69,0,0,0,1.18-.42,1.4,1.4,0,0,0,.5-1H793a2.72,2.72,0,0,1-.49,1.47,3.31,3.31,0,0,1-1.25,1.09,3.82,3.82,0,0,1-1.7.39,3.63,3.63,0,0,1-2.82-1.14,4.6,4.6,0,0,1-1-3.18V9.33a4.46,4.46,0,0,1,1-3.09,3.53,3.53,0,0,1,2.81-1.16A3.44,3.44,0,0,1,792,6a3.1,3.1,0,0,1,1,2.31h-1.79a1.73,1.73,0,0,0-.49-1.2,1.62,1.62,0,0,0-1.19-.47,1.66,1.66,0,0,0-1.42.67,3.46,3.46,0,0,0-.51,2v.3a3.46,3.46,0,0,0,.5,2.05A1.67,1.67,0,0,0,789.51,12.33Z" transform="translate(0 -1.52)"/><path class="cls-19" d="M798.84,7a4.9,4.9,0,0,0-.77-.06,1.74,1.74,0,0,0-1.76,1v5.78h-1.9V5.23h1.81l0,.95a2.15,2.15,0,0,1,1.91-1.1,1.65,1.65,0,0,1,.67.11Z" transform="translate(0 -1.52)"/><path class="cls-19" d="M803.76,13.84a3.93,3.93,0,0,1-2.92-1.13,4.12,4.12,0,0,1-1.12-3V9.45a5.18,5.18,0,0,1,.48-2.27,3.83,3.83,0,0,1,1.37-1.55,3.64,3.64,0,0,1,2-.55,3.34,3.34,0,0,1,2.67,1.1,4.63,4.63,0,0,1,.94,3.12v.76h-5.52a2.56,2.56,0,0,0,.7,1.66,2.12,2.12,0,0,0,1.54.61A2.57,2.57,0,0,0,806,11.27l1,1a3.39,3.39,0,0,1-1.36,1.18A4.31,4.31,0,0,1,803.76,13.84Zm-.22-7.24a1.59,1.59,0,0,0-1.27.55,2.82,2.82,0,0,0-.61,1.52h3.62V8.53a2.3,2.3,0,0,0-.51-1.44A1.58,1.58,0,0,0,803.54,6.6Z" transform="translate(0 -1.52)"/><path class="cls-19" d="M813.68,13.69a2.65,2.65,0,0,1-.22-.79,3,3,0,0,1-2.22.94,3,3,0,0,1-2.08-.72,2.33,2.33,0,0,1-.8-1.8,2.39,2.39,0,0,1,1-2.07,4.81,4.81,0,0,1,2.87-.73h1.16V8a1.49,1.49,0,0,0-.36-1,1.48,1.48,0,0,0-1.12-.4,1.64,1.64,0,0,0-1.06.33,1,1,0,0,0-.42.82h-1.89a2.09,2.09,0,0,1,.46-1.3,3,3,0,0,1,1.25-1A4.4,4.4,0,0,1,812,5.08a3.59,3.59,0,0,1,2.37.74,2.64,2.64,0,0,1,.9,2.1v3.81a4.34,4.34,0,0,0,.32,1.82v.14Zm-2.09-1.37a2.17,2.17,0,0,0,1.06-.27,1.82,1.82,0,0,0,.74-.74V9.72h-1a2.73,2.73,0,0,0-1.58.37,1.17,1.17,0,0,0-.54,1,1.14,1.14,0,0,0,.37.88A1.42,1.42,0,0,0,811.59,12.32Z" transform="translate(0 -1.52)"/><path class="cls-19" d="M819.66,3.18V5.23h1.49V6.64h-1.49v4.72a1,1,0,0,0,.19.7.92.92,0,0,0,.69.21,3,3,0,0,0,.66-.07v1.46a4.66,4.66,0,0,1-1.25.18c-1.46,0-2.19-.8-2.19-2.41V6.64h-1.39V5.23h1.39V3.18Z" transform="translate(0 -1.52)"/><path class="cls-19" d="M826.32,13.84a4,4,0,0,1-2.92-1.13,4.12,4.12,0,0,1-1.12-3V9.45a5,5,0,0,1,.49-2.27,3.69,3.69,0,0,1,1.37-1.55,3.61,3.61,0,0,1,2-.55,3.3,3.3,0,0,1,2.66,1.1,4.64,4.64,0,0,1,1,3.12v.76h-5.53a2.56,2.56,0,0,0,.7,1.66,2.12,2.12,0,0,0,1.54.61,2.57,2.57,0,0,0,2.13-1.06l1,1a3.43,3.43,0,0,1-1.35,1.18A4.39,4.39,0,0,1,826.32,13.84ZM826.1,6.6a1.58,1.58,0,0,0-1.26.55,2.83,2.83,0,0,0-.62,1.52h3.62V8.53a2.3,2.3,0,0,0-.51-1.44A1.56,1.56,0,0,0,826.1,6.6Z" transform="translate(0 -1.52)"/><path class="cls-19" d="M837.55,3.18V5.23H839V6.64h-1.49v4.72a1,1,0,0,0,.19.7.92.92,0,0,0,.69.21,3,3,0,0,0,.66-.07v1.46a4.66,4.66,0,0,1-1.25.18c-1.46,0-2.19-.8-2.19-2.41V6.64h-1.39V5.23h1.39V3.18Z" transform="translate(0 -1.52)"/><path class="cls-19" d="M842.36,6.16a3,3,0,0,1,2.36-1.08c1.8,0,2.71,1,2.74,3.08v5.53h-1.9V8.23A1.66,1.66,0,0,0,845.18,7a1.5,1.5,0,0,0-1.11-.37,1.84,1.84,0,0,0-1.71,1v6h-1.89v-12h1.89Z" transform="translate(0 -1.52)"/><path class="cls-19" d="M853.1,13.84a4,4,0,0,1-2.93-1.13,4.16,4.16,0,0,1-1.12-3V9.45a5,5,0,0,1,.49-2.27,3.69,3.69,0,0,1,1.37-1.55,3.64,3.64,0,0,1,2-.55,3.34,3.34,0,0,1,2.67,1.1,4.63,4.63,0,0,1,.94,3.12v.76H851a2.55,2.55,0,0,0,.69,1.66,2.14,2.14,0,0,0,1.55.61,2.54,2.54,0,0,0,2.12-1.06l1,1A3.39,3.39,0,0,1,855,13.43,4.34,4.34,0,0,1,853.1,13.84Zm-.23-7.24a1.58,1.58,0,0,0-1.26.55A2.82,2.82,0,0,0,851,8.67h3.61V8.53a2.36,2.36,0,0,0-.5-1.44A1.58,1.58,0,0,0,852.87,6.6Z" transform="translate(0 -1.52)"/><path class="cls-19" d="M858,3a1,1,0,0,1,.27-.73A1.07,1.07,0,0,1,859,2a1,1,0,0,1,.79.29,1,1,0,0,1,.28.73,1,1,0,0,1-.28.71A1,1,0,0,1,859,4a1.07,1.07,0,0,1-.8-.29A1,1,0,0,1,858,3Zm2,10.65h-1.9V5.23H860Z" transform="translate(0 -1.52)"/><path class="cls-19" d="M866.47,7a4.81,4.81,0,0,0-.77-.06,1.74,1.74,0,0,0-1.76,1v5.78H862V5.23h1.82l0,.95a2.16,2.16,0,0,1,1.91-1.1,1.65,1.65,0,0,1,.67.11Z" transform="translate(0 -1.52)"/><path class="cls-19" d="M879.06,9.55a5.08,5.08,0,0,1-.89,3.13,3.11,3.11,0,0,1-4.62.25v4h-1.9V5.23h1.75l.08.86a2.81,2.81,0,0,1,2.27-1,2.88,2.88,0,0,1,2.43,1.15,5.16,5.16,0,0,1,.88,3.2Zm-1.89-.17a3.46,3.46,0,0,0-.51-2,1.62,1.62,0,0,0-1.44-.75,1.75,1.75,0,0,0-1.67,1v3.75a1.77,1.77,0,0,0,1.69,1,1.66,1.66,0,0,0,1.42-.73A3.92,3.92,0,0,0,877.17,9.38Z" transform="translate(0 -1.52)"/><path class="cls-19" d="M885.09,7a4.9,4.9,0,0,0-.77-.06,1.74,1.74,0,0,0-1.76,1v5.78h-1.9V5.23h1.81l0,.95a2.15,2.15,0,0,1,1.91-1.1,1.65,1.65,0,0,1,.67.11Z" transform="translate(0 -1.52)"/><path class="cls-19" d="M885.65,9.38a5,5,0,0,1,.5-2.24,3.54,3.54,0,0,1,1.38-1.53,3.92,3.92,0,0,1,2-.53,3.7,3.7,0,0,1,2.78,1.1A4.29,4.29,0,0,1,893.5,9.1v.45a5,5,0,0,1-.48,2.23,3.5,3.5,0,0,1-1.37,1.52,3.94,3.94,0,0,1-2.07.54,3.64,3.64,0,0,1-2.86-1.19,4.53,4.53,0,0,1-1.08-3.17Zm1.9.17a3.39,3.39,0,0,0,.54,2,1.88,1.88,0,0,0,3,0,3.82,3.82,0,0,0,.53-2.2,3.35,3.35,0,0,0-.55-2,1.77,1.77,0,0,0-1.5-.75,1.73,1.73,0,0,0-1.47.74A3.66,3.66,0,0,0,887.55,9.55Z" transform="translate(0 -1.52)"/><path class="cls-19" d="M895.79,13.69v-7H894.5V5.23h1.29V4.46a2.9,2.9,0,0,1,.78-2.17,3,3,0,0,1,2.18-.77,4.63,4.63,0,0,1,1.07.14l-.05,1.49a3.91,3.91,0,0,0-.73-.06,1.22,1.22,0,0,0-1.36,1.39v.75h1.72V6.64h-1.72v7.05Z" transform="translate(0 -1.52)"/><path class="cls-19" d="M900.79,3a1.05,1.05,0,0,1,.28-.73,1.23,1.23,0,0,1,1.59,0,1,1,0,0,1,.28.73,1,1,0,0,1-.28.71,1.23,1.23,0,0,1-1.59,0A1,1,0,0,1,900.79,3Zm2,10.65h-1.9V5.23h1.9Z" transform="translate(0 -1.52)"/><path class="cls-19" d="M906.9,13.69H905v-12h1.9Z" transform="translate(0 -1.52)"/><path class="cls-19" d="M912.68,13.84a4,4,0,0,1-2.92-1.13,4.12,4.12,0,0,1-1.12-3V9.45a5,5,0,0,1,.49-2.27,3.69,3.69,0,0,1,1.37-1.55,3.61,3.61,0,0,1,2-.55,3.3,3.3,0,0,1,2.66,1.1,4.63,4.63,0,0,1,.94,3.12v.76h-5.52a2.56,2.56,0,0,0,.7,1.66,2.12,2.12,0,0,0,1.54.61,2.57,2.57,0,0,0,2.13-1.06l1,1a3.43,3.43,0,0,1-1.35,1.18A4.39,4.39,0,0,1,912.68,13.84Zm-.22-7.24a1.58,1.58,0,0,0-1.26.55,2.83,2.83,0,0,0-.62,1.52h3.62V8.53a2.3,2.3,0,0,0-.51-1.44A1.56,1.56,0,0,0,912.46,6.6Z" transform="translate(0 -1.52)"/><path class="cls-19" d="M926.58,13.69a3.45,3.45,0,0,1-.22-.79,2.93,2.93,0,0,1-2.21.94,3,3,0,0,1-2.08-.72,2.34,2.34,0,0,1-.81-1.8,2.39,2.39,0,0,1,1-2.07,4.79,4.79,0,0,1,2.87-.73h1.16V8a1.34,1.34,0,0,0-1.48-1.45,1.67,1.67,0,0,0-1.07.33,1,1,0,0,0-.41.82h-1.9a2.15,2.15,0,0,1,.46-1.3,3.14,3.14,0,0,1,1.26-1,4.4,4.4,0,0,1,1.77-.34,3.57,3.57,0,0,1,2.36.74,2.68,2.68,0,0,1,.91,2.1v3.81a4.34,4.34,0,0,0,.32,1.82v.14Zm-2.08-1.37a2.23,2.23,0,0,0,1.06-.27,1.88,1.88,0,0,0,.74-.74V9.72h-1a2.77,2.77,0,0,0-1.59.37,1.19,1.19,0,0,0-.53,1,1.13,1.13,0,0,0,.36.88A1.46,1.46,0,0,0,924.5,12.32Z" transform="translate(0 -1.52)"/><path class="cls-19" d="M938.91,11.39a.84.84,0,0,0-.42-.77,4.25,4.25,0,0,0-1.38-.47,7.18,7.18,0,0,1-1.62-.52,2.15,2.15,0,0,1-1.42-2A2.24,2.24,0,0,1,935,5.81a3.62,3.62,0,0,1,2.34-.73,3.79,3.79,0,0,1,2.45.75,2.39,2.39,0,0,1,.94,1.94h-1.9a1.19,1.19,0,0,0-.41-.91,1.57,1.57,0,0,0-1.08-.36,1.73,1.73,0,0,0-1,.29.91.91,0,0,0-.39.77.76.76,0,0,0,.37.68,4.92,4.92,0,0,0,1.48.49,6.56,6.56,0,0,1,1.75.59,2.49,2.49,0,0,1,1,.81,2.07,2.07,0,0,1,.31,1.16,2.21,2.21,0,0,1-.95,1.85,4,4,0,0,1-2.47.7,4.41,4.41,0,0,1-1.86-.37,3,3,0,0,1-1.26-1,2.47,2.47,0,0,1-.45-1.42h1.84a1.33,1.33,0,0,0,.51,1,2,2,0,0,0,1.24.36,1.92,1.92,0,0,0,1.14-.28A.89.89,0,0,0,938.91,11.39Z" transform="translate(0 -1.52)"/><path class="cls-19" d="M944.81,3.18V5.23h1.49V6.64h-1.49v4.72a1,1,0,0,0,.19.7.91.91,0,0,0,.68.21,3.11,3.11,0,0,0,.67-.07v1.46a4.66,4.66,0,0,1-1.25.18c-1.46,0-2.19-.8-2.19-2.41V6.64h-1.39V5.23h1.39V3.18Z" transform="translate(0 -1.52)"/><path class="cls-19" d="M951.47,13.84a3.93,3.93,0,0,1-2.92-1.13,4.12,4.12,0,0,1-1.12-3V9.45a5.18,5.18,0,0,1,.48-2.27,3.78,3.78,0,0,1,1.38-1.55,3.58,3.58,0,0,1,2-.55,3.33,3.33,0,0,1,2.67,1.1,4.63,4.63,0,0,1,.94,3.12v.76h-5.52a2.56,2.56,0,0,0,.7,1.66,2.12,2.12,0,0,0,1.54.61,2.57,2.57,0,0,0,2.13-1.06l1,1a3.43,3.43,0,0,1-1.35,1.18A4.39,4.39,0,0,1,951.47,13.84Zm-.22-7.24a1.58,1.58,0,0,0-1.26.55,2.75,2.75,0,0,0-.62,1.52H953V8.53a2.3,2.3,0,0,0-.51-1.44A1.58,1.58,0,0,0,951.25,6.6Z" transform="translate(0 -1.52)"/><path class="cls-19" d="M963.74,9.55a5.08,5.08,0,0,1-.89,3.13,3.11,3.11,0,0,1-4.62.25v4h-1.9V5.23h1.75l.08.86a2.81,2.81,0,0,1,2.27-1,2.88,2.88,0,0,1,2.43,1.15,5.16,5.16,0,0,1,.88,3.2Zm-1.89-.17a3.46,3.46,0,0,0-.51-2,1.62,1.62,0,0,0-1.44-.75,1.75,1.75,0,0,0-1.67,1v3.75a1.76,1.76,0,0,0,1.69,1,1.66,1.66,0,0,0,1.42-.73A3.92,3.92,0,0,0,961.85,9.38Z" transform="translate(0 -1.52)"/><path class="cls-19" d="M974.38,13.69a3,3,0,0,1-.22-.79,2.94,2.94,0,0,1-2.22.94,3,3,0,0,1-2.08-.72,2.36,2.36,0,0,1-.8-1.8,2.39,2.39,0,0,1,1-2.07,4.81,4.81,0,0,1,2.87-.73h1.17V8a1.45,1.45,0,0,0-.37-1,1.47,1.47,0,0,0-1.12-.4,1.66,1.66,0,0,0-1.06.33,1,1,0,0,0-.41.82h-1.9a2.09,2.09,0,0,1,.46-1.3,3.18,3.18,0,0,1,1.25-1,4.4,4.4,0,0,1,1.77-.34,3.59,3.59,0,0,1,2.37.74,2.68,2.68,0,0,1,.91,2.1v3.81a4.18,4.18,0,0,0,.32,1.82v.14Zm-2.09-1.37a2.17,2.17,0,0,0,1.06-.27,1.91,1.91,0,0,0,.75-.74V9.72h-1a2.73,2.73,0,0,0-1.58.37,1.16,1.16,0,0,0-.53,1,1.13,1.13,0,0,0,.36.88A1.44,1.44,0,0,0,972.29,12.32Z" transform="translate(0 -1.52)"/><path class="cls-19" d="M978.65,13.69v-7h-1.29V5.23h1.29V4.46a2.9,2.9,0,0,1,.78-2.17,3,3,0,0,1,2.19-.77,4.55,4.55,0,0,1,1.06.14l0,1.49a3.91,3.91,0,0,0-.73-.06,1.21,1.21,0,0,0-1.36,1.39v.75h1.72V6.64h-1.72v7.05Z" transform="translate(0 -1.52)"/><path class="cls-19" d="M986,3.18V5.23h1.49V6.64H986v4.72a1,1,0,0,0,.19.7.89.89,0,0,0,.68.21,3,3,0,0,0,.66-.07v1.46a4.61,4.61,0,0,1-1.25.18c-1.45,0-2.18-.8-2.18-2.41V6.64h-1.39V5.23h1.39V3.18Z" transform="translate(0 -1.52)"/><path class="cls-19" d="M992.7,13.84a4,4,0,0,1-2.93-1.13,4.16,4.16,0,0,1-1.12-3V9.45a5.18,5.18,0,0,1,.49-2.27,3.76,3.76,0,0,1,1.37-1.55,3.64,3.64,0,0,1,2-.55,3.34,3.34,0,0,1,2.67,1.1,4.63,4.63,0,0,1,.94,3.12v.76h-5.52a2.51,2.51,0,0,0,.7,1.66,2.12,2.12,0,0,0,1.54.61,2.54,2.54,0,0,0,2.12-1.06l1,1a3.39,3.39,0,0,1-1.36,1.18A4.34,4.34,0,0,1,992.7,13.84Zm-.23-7.24a1.58,1.58,0,0,0-1.26.55,2.82,2.82,0,0,0-.61,1.52h3.62V8.53a2.42,2.42,0,0,0-.51-1.44A1.58,1.58,0,0,0,992.47,6.6Z" transform="translate(0 -1.52)"/><path class="cls-19" d="M1002,7a4.9,4.9,0,0,0-.77-.06,1.74,1.74,0,0,0-1.76,1v5.78h-1.9V5.23h1.81l0,.95a2.14,2.14,0,0,1,1.9-1.1,1.67,1.67,0,0,1,.68.11Z" transform="translate(0 -1.52)"/><path class="cls-19" d="M1011.6,7a4.93,4.93,0,0,0-.78-.06,1.72,1.72,0,0,0-1.75,1v5.78h-1.9V5.23H1009l0,.95a2.14,2.14,0,0,1,1.9-1.1,1.7,1.7,0,0,1,.68.11Z" transform="translate(0 -1.52)"/><path class="cls-19" d="M1016.52,13.84a4,4,0,0,1-2.93-1.13,4.16,4.16,0,0,1-1.12-3V9.45a5.18,5.18,0,0,1,.49-2.27,3.76,3.76,0,0,1,1.37-1.55,3.64,3.64,0,0,1,2-.55,3.34,3.34,0,0,1,2.67,1.1,4.63,4.63,0,0,1,.94,3.12v.76h-5.52a2.56,2.56,0,0,0,.7,1.66,2.12,2.12,0,0,0,1.54.61,2.54,2.54,0,0,0,2.12-1.06l1,1a3.39,3.39,0,0,1-1.36,1.18A4.34,4.34,0,0,1,1016.52,13.84Zm-.23-7.24a1.58,1.58,0,0,0-1.26.55,2.82,2.82,0,0,0-.61,1.52H1018V8.53a2.42,2.42,0,0,0-.51-1.44A1.58,1.58,0,0,0,1016.29,6.6Z" transform="translate(0 -1.52)"/><path class="cls-19" d="M1021.05,9.4a5,5,0,0,1,.93-3.15,3,3,0,0,1,2.45-1.17,2.76,2.76,0,0,1,2.28,1l.08-.86h1.71v8.2a3.39,3.39,0,0,1-1,2.62,3.9,3.9,0,0,1-2.79,1,4.48,4.48,0,0,1-1.82-.39,3.33,3.33,0,0,1-1.35-1l.9-1.14a2.72,2.72,0,0,0,2.16,1,2.09,2.09,0,0,0,1.49-.52,2,2,0,0,0,.55-1.5v-.57a2.8,2.8,0,0,1-2.19.91,3,3,0,0,1-2.43-1.18A5.06,5.06,0,0,1,1021.05,9.4Zm1.89.16a3.4,3.4,0,0,0,.52,2,1.69,1.69,0,0,0,1.44.73,1.83,1.83,0,0,0,1.71-1V7.59a1.81,1.81,0,0,0-1.69-1,1.68,1.68,0,0,0-1.46.75A3.75,3.75,0,0,0,1022.94,9.56Z" transform="translate(0 -1.52)"/><path class="cls-19" d="M1030.46,3a1,1,0,0,1,.28-.73,1,1,0,0,1,.79-.29,1,1,0,0,1,.79.29,1,1,0,0,1,.29.73,1,1,0,0,1-.29.71,1,1,0,0,1-.79.29,1,1,0,0,1-.79-.29A1,1,0,0,1,1030.46,3Zm2,10.65h-1.9V5.23h1.9Z" transform="translate(0 -1.52)"/><path class="cls-19" d="M1039.28,11.39a.84.84,0,0,0-.42-.77,4.23,4.23,0,0,0-1.39-.47,7.25,7.25,0,0,1-1.61-.52,2.16,2.16,0,0,1-1.43-2,2.25,2.25,0,0,1,.93-1.83,3.62,3.62,0,0,1,2.34-.73,3.79,3.79,0,0,1,2.45.75,2.38,2.38,0,0,1,.93,1.94h-1.9a1.18,1.18,0,0,0-.4-.91,1.57,1.57,0,0,0-1.08-.36,1.69,1.69,0,0,0-1,.29.91.91,0,0,0-.39.77.77.77,0,0,0,.36.68,5,5,0,0,0,1.49.49,6.69,6.69,0,0,1,1.75.59,2.49,2.49,0,0,1,.95.81,2.16,2.16,0,0,1,.31,1.16,2.21,2.21,0,0,1-1,1.85,4.05,4.05,0,0,1-2.48.7,4.37,4.37,0,0,1-1.85-.37,3,3,0,0,1-1.26-1,2.41,2.41,0,0,1-.46-1.42H1036a1.32,1.32,0,0,0,.5,1,2,2,0,0,0,1.25.36,1.92,1.92,0,0,0,1.14-.28A.89.89,0,0,0,1039.28,11.39Z" transform="translate(0 -1.52)"/><path class="cls-19" d="M1045.18,3.18V5.23h1.49V6.64h-1.49v4.72a1,1,0,0,0,.19.7.89.89,0,0,0,.68.21,3.11,3.11,0,0,0,.67-.07v1.46a4.72,4.72,0,0,1-1.25.18c-1.46,0-2.19-.8-2.19-2.41V6.64h-1.39V5.23h1.39V3.18Z" transform="translate(0 -1.52)"/><path class="cls-19" d="M1051.84,13.84a4,4,0,0,1-2.93-1.13,4.16,4.16,0,0,1-1.12-3V9.45a5.18,5.18,0,0,1,.49-2.27,3.76,3.76,0,0,1,1.37-1.55,3.64,3.64,0,0,1,2-.55,3.34,3.34,0,0,1,2.67,1.1,4.63,4.63,0,0,1,.94,3.12v.76h-5.52a2.56,2.56,0,0,0,.7,1.66,2.12,2.12,0,0,0,1.54.61,2.54,2.54,0,0,0,2.12-1.06l1,1a3.39,3.39,0,0,1-1.36,1.18A4.34,4.34,0,0,1,1051.84,13.84Zm-.23-7.24a1.58,1.58,0,0,0-1.26.55,2.82,2.82,0,0,0-.61,1.52h3.62V8.53a2.36,2.36,0,0,0-.51-1.44A1.58,1.58,0,0,0,1051.61,6.6Z" transform="translate(0 -1.52)"/><path class="cls-19" d="M1061.13,7a4.9,4.9,0,0,0-.77-.06,1.74,1.74,0,0,0-1.76,1v5.78h-1.9V5.23h1.81l0,.95a2.15,2.15,0,0,1,1.91-1.1,1.65,1.65,0,0,1,.67.11Z" transform="translate(0 -1.52)"/><path class="cls-19" d="M1062.33,3a1.05,1.05,0,0,1,.28-.73,1,1,0,0,1,.79-.29,1.07,1.07,0,0,1,.8.29,1,1,0,0,1,.28.73,1,1,0,0,1-.28.71,1.07,1.07,0,0,1-.8.29,1,1,0,0,1-.79-.29A1,1,0,0,1,1062.33,3Zm2,10.65h-1.9V5.23h1.9Z" transform="translate(0 -1.52)"/><path class="cls-19" d="M1068.18,5.23l0,1a3.06,3.06,0,0,1,2.46-1.13c1.76,0,2.66,1,2.69,3v5.59h-1.9V8.21a1.74,1.74,0,0,0-.35-1.19,1.45,1.45,0,0,0-1.13-.39,1.82,1.82,0,0,0-1.71,1v6h-1.9V5.23Z" transform="translate(0 -1.52)"/><path class="cls-19" d="M1075,9.4a5,5,0,0,1,.93-3.15,3,3,0,0,1,2.45-1.17,2.76,2.76,0,0,1,2.28,1l.08-.86h1.71v8.2a3.39,3.39,0,0,1-1,2.62,3.9,3.9,0,0,1-2.79,1,4.48,4.48,0,0,1-1.82-.39,3.33,3.33,0,0,1-1.35-1l.9-1.14a2.72,2.72,0,0,0,2.16,1A2.11,2.11,0,0,0,1080,15a2,2,0,0,0,.55-1.5v-.57a2.8,2.8,0,0,1-2.19.91,3,3,0,0,1-2.43-1.18A5.06,5.06,0,0,1,1075,9.4Zm1.89.16a3.4,3.4,0,0,0,.52,2,1.69,1.69,0,0,0,1.44.73,1.83,1.83,0,0,0,1.71-1V7.59a1.81,1.81,0,0,0-1.69-1,1.68,1.68,0,0,0-1.46.75A3.75,3.75,0,0,0,1076.87,9.56Z" transform="translate(0 -1.52)"/><path class="cls-19" d="M1085.53,5.05a1.09,1.09,0,0,1,.82.31,1.05,1.05,0,0,1,.29.75,1,1,0,0,1-.29.74,1.29,1.29,0,0,1-1.63,0,1,1,0,0,1-.29-.74,1,1,0,0,1,.29-.75A1.07,1.07,0,0,1,1085.53,5.05Zm0,6.64a1.09,1.09,0,0,1,.82.3,1.05,1.05,0,0,1,.29.75,1,1,0,0,1-.29.74,1.29,1.29,0,0,1-1.63,0,1.1,1.1,0,0,1,0-1.49A1.06,1.06,0,0,1,1085.53,11.69Z" transform="translate(0 -1.52)"/><path class="cls-19" d="M648.42,33.45h-3.81V32.27h3.81Z" transform="translate(0 -1.52)"/><path class="cls-19" d="M653.79,27a.83.83,0,0,1,.22-.59.79.79,0,0,1,.63-.24.8.8,0,0,1,.64.24.83.83,0,0,1,.22.59.82.82,0,0,1-.22.59.83.83,0,0,1-.64.23.78.78,0,0,1-.85-.82Zm1.57,10.7h-1.45V29.23h1.45Z" transform="translate(0 -1.52)"/><path class="cls-19" d="M662.59,35.45a1.05,1.05,0,0,0-.44-.91,4.12,4.12,0,0,0-1.54-.56,7.37,7.37,0,0,1-1.74-.57,2.39,2.39,0,0,1-1-.78,1.9,1.9,0,0,1-.3-1.08,2.19,2.19,0,0,1,.87-1.75,3.45,3.45,0,0,1,2.25-.72,3.54,3.54,0,0,1,2.33.74,2.36,2.36,0,0,1,.9,1.9H662.5a1.27,1.27,0,0,0-.5-1,1.88,1.88,0,0,0-1.27-.43,1.94,1.94,0,0,0-1.23.34,1.08,1.08,0,0,0-.45.9.89.89,0,0,0,.41.79,5.42,5.42,0,0,0,1.5.5,8.3,8.3,0,0,1,1.75.58,2.69,2.69,0,0,1,1,.81,2,2,0,0,1,.32,1.15,2.17,2.17,0,0,1-.9,1.82,3.79,3.79,0,0,1-2.35.68,4.25,4.25,0,0,1-1.8-.36,2.82,2.82,0,0,1-1.22-1,2.36,2.36,0,0,1-.44-1.39h1.44a1.53,1.53,0,0,0,.58,1.15,2.3,2.3,0,0,0,1.44.42,2.33,2.33,0,0,0,1.31-.33A1,1,0,0,0,662.59,35.45Z" transform="translate(0 -1.52)"/><path class="cls-19" d="M674,30.53a5,5,0,0,0-.71-.05,1.91,1.91,0,0,0-1.93,1.21v6h-1.44V29.23h1.4l0,1a2.24,2.24,0,0,1,2-1.13,1.34,1.34,0,0,1,.64.11Z" transform="translate(0 -1.52)"/><path class="cls-19" d="M678.8,37.84a3.67,3.67,0,0,1-2.8-1.13,4.15,4.15,0,0,1-1.07-3v-.27a5.09,5.09,0,0,1,.48-2.25,3.67,3.67,0,0,1,1.34-1.54,3.31,3.31,0,0,1,1.87-.56,3.17,3.17,0,0,1,2.56,1.08,4.71,4.71,0,0,1,.92,3.11v.61h-5.73a3,3,0,0,0,.73,2,2.28,2.28,0,0,0,1.78.77,2.53,2.53,0,0,0,1.3-.31,3.31,3.31,0,0,0,.93-.83l.88.69A3.55,3.55,0,0,1,678.8,37.84Zm-.18-7.57a2,2,0,0,0-1.47.63,3.13,3.13,0,0,0-.73,1.79h4.23v-.11a2.75,2.75,0,0,0-.59-1.71A1.84,1.84,0,0,0,678.62,30.27Z" transform="translate(0 -1.52)"/><path class="cls-19" d="M683.42,33.39a4.92,4.92,0,0,1,.92-3.13,2.9,2.9,0,0,1,2.41-1.18,3,3,0,0,1,2.36,1v-4.4h1.44v12h-1.33l-.07-.91a2.93,2.93,0,0,1-2.41,1.06,2.9,2.9,0,0,1-2.4-1.2,5,5,0,0,1-.92-3.14Zm1.44.16a3.71,3.71,0,0,0,.6,2.25,1.9,1.9,0,0,0,1.64.82,2.12,2.12,0,0,0,2-1.24V31.5a2.14,2.14,0,0,0-2-1.2,1.92,1.92,0,0,0-1.65.82A4.11,4.11,0,0,0,684.86,33.55Z" transform="translate(0 -1.52)"/><path class="cls-19" d="M698,36.85a3.08,3.08,0,0,1-2.48,1,2.62,2.62,0,0,1-2-.78,3.38,3.38,0,0,1-.72-2.33v-5.5h1.45V34.7q0,1.92,1.56,1.92a2.15,2.15,0,0,0,2.2-1.24V29.23h1.45v8.46H698Z" transform="translate(0 -1.52)"/><path class="cls-19" d="M703,29.23l0,1.07a3.05,3.05,0,0,1,2.53-1.22c1.78,0,2.69,1,2.7,3v5.59h-1.44v-5.6a2,2,0,0,0-.42-1.35,1.7,1.7,0,0,0-1.28-.44,2.06,2.06,0,0,0-1.23.38,2.55,2.55,0,0,0-.83,1v6h-1.45V29.23Z" transform="translate(0 -1.52)"/><path class="cls-19" d="M710.09,33.39a5,5,0,0,1,.92-3.13,2.92,2.92,0,0,1,2.42-1.18,3,3,0,0,1,2.35,1v-4.4h1.44v12h-1.33l-.07-.91a2.92,2.92,0,0,1-2.41,1.06,2.87,2.87,0,0,1-2.39-1.2,5,5,0,0,1-.93-3.14Zm1.44.16a3.71,3.71,0,0,0,.6,2.25,1.9,1.9,0,0,0,1.64.82,2.1,2.1,0,0,0,2-1.24V31.5a2.14,2.14,0,0,0-2-1.2,1.94,1.94,0,0,0-1.65.82A4.11,4.11,0,0,0,711.53,33.55Z" transform="translate(0 -1.52)"/><path class="cls-19" d="M724.68,37.69a3.19,3.19,0,0,1-.2-.89,3.2,3.2,0,0,1-2.41,1,3,3,0,0,1-2.05-.7,2.3,2.3,0,0,1-.8-1.8,2.4,2.4,0,0,1,1-2.05,4.78,4.78,0,0,1,2.82-.73h1.41V31.9a1.6,1.6,0,0,0-.46-1.21,1.8,1.8,0,0,0-1.33-.45,2.11,2.11,0,0,0-1.3.39,1.15,1.15,0,0,0-.52.95h-1.46a2,2,0,0,1,.45-1.22,3.05,3.05,0,0,1,1.22-.94,4.08,4.08,0,0,1,1.69-.34,3.32,3.32,0,0,1,2.29.73,2.65,2.65,0,0,1,.86,2v3.89a4.7,4.7,0,0,0,.3,1.85v.13Zm-2.4-1.1a2.46,2.46,0,0,0,1.29-.36,2.11,2.11,0,0,0,.89-.91V33.59h-1.14c-1.77,0-2.65.51-2.65,1.55a1.31,1.31,0,0,0,.45,1.06A1.71,1.71,0,0,0,722.28,36.59Z" transform="translate(0 -1.52)"/><path class="cls-19" d="M729.53,29.23l.05,1.07a3.07,3.07,0,0,1,2.53-1.22c1.79,0,2.69,1,2.71,3v5.59h-1.45v-5.6a1.88,1.88,0,0,0-.42-1.35,1.67,1.67,0,0,0-1.27-.44,2.12,2.12,0,0,0-1.24.38,2.64,2.64,0,0,0-.83,1v6h-1.44V29.23Z" transform="translate(0 -1.52)"/><path class="cls-19" d="M739,27.19v2h1.57v1.12H739V35.6a1.17,1.17,0,0,0,.21.76.89.89,0,0,0,.72.26,3.07,3.07,0,0,0,.68-.1v1.17a4.35,4.35,0,0,1-1.11.15,1.81,1.81,0,0,1-1.46-.58,2.58,2.58,0,0,1-.49-1.67V30.35H736V29.23h1.54v-2Z" transform="translate(0 -1.52)"/><path class="cls-19" d="M751.4,37.69a3.19,3.19,0,0,1-.2-.89,3.22,3.22,0,0,1-2.41,1,3,3,0,0,1-2-.7,2.3,2.3,0,0,1-.8-1.8,2.4,2.4,0,0,1,1-2.05,4.76,4.76,0,0,1,2.82-.73h1.41V31.9a1.64,1.64,0,0,0-.46-1.21,1.81,1.81,0,0,0-1.33-.45,2.11,2.11,0,0,0-1.3.39,1.15,1.15,0,0,0-.52.95h-1.46a2,2,0,0,1,.45-1.22,3.05,3.05,0,0,1,1.22-.94,4.08,4.08,0,0,1,1.69-.34,3.32,3.32,0,0,1,2.29.73,2.65,2.65,0,0,1,.86,2v3.89a4.7,4.7,0,0,0,.3,1.85v.13Zm-2.4-1.1a2.46,2.46,0,0,0,1.29-.36,2.11,2.11,0,0,0,.89-.91V33.59H750c-1.77,0-2.65.51-2.65,1.55a1.31,1.31,0,0,0,.45,1.06A1.71,1.71,0,0,0,749,36.59Z" transform="translate(0 -1.52)"/><path class="cls-19" d="M756.25,29.23l0,1.07a3.07,3.07,0,0,1,2.53-1.22c1.79,0,2.69,1,2.7,3v5.59h-1.44v-5.6a1.93,1.93,0,0,0-.42-1.35,1.68,1.68,0,0,0-1.28-.44,2.09,2.09,0,0,0-1.23.38,2.64,2.64,0,0,0-.83,1v6h-1.44V29.23Z" transform="translate(0 -1.52)"/><path class="cls-19" d="M763.36,33.39a5,5,0,0,1,.92-3.13,3.15,3.15,0,0,1,4.77-.17v-4.4h1.45v12h-1.33l-.07-.91a3,3,0,0,1-2.42,1.06,2.88,2.88,0,0,1-2.39-1.2,5,5,0,0,1-.93-3.14Zm1.45.16a3.78,3.78,0,0,0,.59,2.25,1.91,1.91,0,0,0,1.64.82,2.1,2.1,0,0,0,2-1.24V31.5a2.12,2.12,0,0,0-2-1.2,2,2,0,0,0-1.66.82A4.19,4.19,0,0,0,764.81,33.55Z" transform="translate(0 -1.52)"/><path class="cls-19" d="M778.14,30.26a3.07,3.07,0,0,1,2.5-1.18c1.79,0,2.69,1,2.71,3v5.59H781.9v-5.6a1.88,1.88,0,0,0-.42-1.35,1.66,1.66,0,0,0-1.27-.44,2.12,2.12,0,0,0-1.24.38,2.64,2.64,0,0,0-.83,1v6H776.7v-12h1.44Z" transform="translate(0 -1.52)"/><path class="cls-19" d="M790.73,37.69a3.19,3.19,0,0,1-.2-.89,3.22,3.22,0,0,1-2.41,1,3,3,0,0,1-2-.7,2.3,2.3,0,0,1-.8-1.8,2.39,2.39,0,0,1,1-2.05,4.79,4.79,0,0,1,2.83-.73h1.4V31.9a1.63,1.63,0,0,0-.45-1.21,1.81,1.81,0,0,0-1.33-.45,2.11,2.11,0,0,0-1.3.39,1.16,1.16,0,0,0-.53.95h-1.45a2,2,0,0,1,.45-1.22,3.05,3.05,0,0,1,1.22-.94,4.08,4.08,0,0,1,1.69-.34,3.33,3.33,0,0,1,2.29.73,2.65,2.65,0,0,1,.86,2v3.89a4.7,4.7,0,0,0,.3,1.85v.13Zm-2.4-1.1a2.46,2.46,0,0,0,1.29-.36,2,2,0,0,0,.88-.91V33.59h-1.13c-1.77,0-2.65.51-2.65,1.55a1.31,1.31,0,0,0,.45,1.06A1.71,1.71,0,0,0,788.33,36.59Z" transform="translate(0 -1.52)"/><path class="cls-19" d="M799.14,35.45a1.05,1.05,0,0,0-.44-.91,4.12,4.12,0,0,0-1.54-.56,7.31,7.31,0,0,1-1.75-.57,2.35,2.35,0,0,1-.95-.78,1.91,1.91,0,0,1-.31-1.08A2.2,2.2,0,0,1,795,29.8a3.45,3.45,0,0,1,2.25-.72,3.56,3.56,0,0,1,2.33.74,2.35,2.35,0,0,1,.89,1.9h-1.45a1.3,1.3,0,0,0-.5-1,1.88,1.88,0,0,0-1.27-.43,2,2,0,0,0-1.24.34,1.1,1.1,0,0,0-.44.9.89.89,0,0,0,.41.79,5.42,5.42,0,0,0,1.5.5,8.5,8.5,0,0,1,1.75.58,2.69,2.69,0,0,1,1,.81,2,2,0,0,1,.32,1.15,2.17,2.17,0,0,1-.9,1.82,3.8,3.8,0,0,1-2.36.68,4.24,4.24,0,0,1-1.79-.36,2.9,2.9,0,0,1-1.23-1,2.44,2.44,0,0,1-.44-1.39h1.45a1.53,1.53,0,0,0,.58,1.15,2.27,2.27,0,0,0,1.43.42,2.35,2.35,0,0,0,1.32-.33A1,1,0,0,0,799.14,35.45Z" transform="translate(0 -1.52)"/><path class="cls-19" d="M808,37.69h-1.45v-12H808Z" transform="translate(0 -1.52)"/><path class="cls-19" d="M813.82,37.84a3.67,3.67,0,0,1-2.8-1.13,4.16,4.16,0,0,1-1.08-3v-.27a5.09,5.09,0,0,1,.48-2.25,3.69,3.69,0,0,1,1.35-1.54,3.31,3.31,0,0,1,1.87-.56,3.17,3.17,0,0,1,2.56,1.08,4.71,4.71,0,0,1,.91,3.11v.61h-5.72a3,3,0,0,0,.73,2,2.26,2.26,0,0,0,1.77.77,2.48,2.48,0,0,0,1.3-.31,3.06,3.06,0,0,0,.93-.83l.88.69A3.53,3.53,0,0,1,813.82,37.84Zm-.18-7.57a1.92,1.92,0,0,0-1.47.63,3.13,3.13,0,0,0-.74,1.79h4.24v-.11a2.7,2.7,0,0,0-.6-1.71A1.81,1.81,0,0,0,813.64,30.27Z" transform="translate(0 -1.52)"/><path class="cls-19" d="M823.71,35.45a1.05,1.05,0,0,0-.44-.91,4.12,4.12,0,0,0-1.54-.56,7.47,7.47,0,0,1-1.75-.57,2.35,2.35,0,0,1-1-.78,1.91,1.91,0,0,1-.31-1.08,2.2,2.2,0,0,1,.88-1.75,3.45,3.45,0,0,1,2.25-.72,3.56,3.56,0,0,1,2.33.74,2.35,2.35,0,0,1,.89,1.9h-1.45a1.3,1.3,0,0,0-.5-1,1.88,1.88,0,0,0-1.27-.43,2,2,0,0,0-1.24.34,1.1,1.1,0,0,0-.44.9.89.89,0,0,0,.41.79,5.42,5.42,0,0,0,1.5.5,8.5,8.5,0,0,1,1.75.58,2.69,2.69,0,0,1,1,.81,2,2,0,0,1,.32,1.15,2.17,2.17,0,0,1-.9,1.82,3.8,3.8,0,0,1-2.36.68,4.24,4.24,0,0,1-1.79-.36,2.82,2.82,0,0,1-1.22-1,2.38,2.38,0,0,1-.45-1.39h1.45a1.53,1.53,0,0,0,.58,1.15,2.27,2.27,0,0,0,1.43.42,2.35,2.35,0,0,0,1.32-.33A1,1,0,0,0,823.71,35.45Z" transform="translate(0 -1.52)"/><path class="cls-19" d="M832,35.45a1.05,1.05,0,0,0-.44-.91A4.12,4.12,0,0,0,830,34a7.47,7.47,0,0,1-1.75-.57,2.35,2.35,0,0,1-1-.78,1.91,1.91,0,0,1-.31-1.08,2.2,2.2,0,0,1,.88-1.75,3.45,3.45,0,0,1,2.25-.72,3.56,3.56,0,0,1,2.33.74,2.35,2.35,0,0,1,.89,1.9h-1.45a1.3,1.3,0,0,0-.5-1,1.88,1.88,0,0,0-1.27-.43,2,2,0,0,0-1.24.34,1.1,1.1,0,0,0-.44.9.89.89,0,0,0,.41.79,5.42,5.42,0,0,0,1.5.5,8.5,8.5,0,0,1,1.75.58,2.69,2.69,0,0,1,1,.81,2,2,0,0,1,.32,1.15,2.17,2.17,0,0,1-.9,1.82,3.8,3.8,0,0,1-2.36.68,4.24,4.24,0,0,1-1.79-.36,2.82,2.82,0,0,1-1.22-1,2.38,2.38,0,0,1-.45-1.39h1.45a1.53,1.53,0,0,0,.58,1.15,2.27,2.27,0,0,0,1.43.42,2.35,2.35,0,0,0,1.32-.33A1,1,0,0,0,832,35.45Z" transform="translate(0 -1.52)"/><path class="cls-19" d="M838.79,37.84A3.66,3.66,0,0,1,836,36.71a4.16,4.16,0,0,1-1.08-3v-.27a5.09,5.09,0,0,1,.48-2.25,3.74,3.74,0,0,1,1.34-1.54,3.33,3.33,0,0,1,1.87-.56,3.19,3.19,0,0,1,2.57,1.08,4.71,4.71,0,0,1,.91,3.11v.61h-5.73a3,3,0,0,0,.73,2,2.28,2.28,0,0,0,1.78.77,2.53,2.53,0,0,0,1.3-.31,3.31,3.31,0,0,0,.93-.83l.88.69A3.55,3.55,0,0,1,838.79,37.84Zm-.18-7.57a1.92,1.92,0,0,0-1.46.63,3.07,3.07,0,0,0-.74,1.79h4.24v-.11a2.76,2.76,0,0,0-.6-1.71A1.81,1.81,0,0,0,838.61,30.27Z" transform="translate(0 -1.52)"/><path class="cls-19" d="M847.85,30.53a5.27,5.27,0,0,0-.71-.05,1.9,1.9,0,0,0-1.93,1.21v6h-1.45V29.23h1.41l0,1a2.27,2.27,0,0,1,2-1.13,1.39,1.39,0,0,1,.64.11Z" transform="translate(0 -1.52)"/><path class="cls-19" d="M860.28,33.55a5.1,5.1,0,0,1-.88,3.11,2.83,2.83,0,0,1-2.4,1.18,3.11,3.11,0,0,1-2.42-1v4.07h-1.44V29.23h1.32l.07.94A3,3,0,0,1,857,29.08a2.87,2.87,0,0,1,2.41,1.15,5.11,5.11,0,0,1,.89,3.19Zm-1.45-.16a3.74,3.74,0,0,0-.61-2.26,2,2,0,0,0-1.67-.83,2.13,2.13,0,0,0-2,1.17v4a2.14,2.14,0,0,0,2,1.15,2,2,0,0,0,1.65-.82A4.08,4.08,0,0,0,858.83,33.39Z" transform="translate(0 -1.52)"/><path class="cls-19" d="M866.2,30.53a5.27,5.27,0,0,0-.71-.05,1.9,1.9,0,0,0-1.93,1.21v6h-1.45V29.23h1.41l0,1a2.27,2.27,0,0,1,2-1.13,1.39,1.39,0,0,1,.64.11Z" transform="translate(0 -1.52)"/><path class="cls-19" d="M867,33.38a4.91,4.91,0,0,1,.49-2.23,3.62,3.62,0,0,1,1.36-1.53,3.68,3.68,0,0,1,2-.54,3.58,3.58,0,0,1,2.8,1.19,4.61,4.61,0,0,1,1.06,3.18v.1a5,5,0,0,1-.47,2.22,3.59,3.59,0,0,1-1.35,1.53,3.79,3.79,0,0,1-2,.54,3.54,3.54,0,0,1-2.78-1.19A4.54,4.54,0,0,1,867,33.48Zm1.45.17a3.63,3.63,0,0,0,.65,2.26,2.09,2.09,0,0,0,1.75.85,2.06,2.06,0,0,0,1.75-.86,4,4,0,0,0,.65-2.42,3.6,3.6,0,0,0-.66-2.25,2.09,2.09,0,0,0-1.76-.86,2.06,2.06,0,0,0-1.72.85A3.9,3.9,0,0,0,868.44,33.55Z" transform="translate(0 -1.52)"/><path class="cls-19" d="M883.65,33.55a5,5,0,0,1-.89,3.12,2.84,2.84,0,0,1-2.39,1.17,2.91,2.91,0,0,1-2.47-1.13l-.08,1H876.5v-12h1.44v4.47a3,3,0,0,1,2.42-1.08,2.86,2.86,0,0,1,2.41,1.16,5.16,5.16,0,0,1,.88,3.19Zm-1.44-.16a3.92,3.92,0,0,0-.57-2.28A1.89,1.89,0,0,0,880,30.3a2.14,2.14,0,0,0-2.06,1.33v3.66A2.19,2.19,0,0,0,880,36.62a1.89,1.89,0,0,0,1.62-.81A4.09,4.09,0,0,0,882.21,33.39Z" transform="translate(0 -1.52)"/><path class="cls-19" d="M890.69,37.69a3.19,3.19,0,0,1-.2-.89,3.2,3.2,0,0,1-2.41,1,3,3,0,0,1-2.05-.7,2.3,2.3,0,0,1-.8-1.8,2.4,2.4,0,0,1,1-2.05,4.76,4.76,0,0,1,2.82-.73h1.41V31.9a1.64,1.64,0,0,0-.46-1.21,1.8,1.8,0,0,0-1.33-.45,2.11,2.11,0,0,0-1.3.39,1.15,1.15,0,0,0-.52.95H885.4a2,2,0,0,1,.45-1.22,3.05,3.05,0,0,1,1.22-.94,4.08,4.08,0,0,1,1.69-.34,3.32,3.32,0,0,1,2.29.73,2.65,2.65,0,0,1,.86,2v3.89a4.7,4.7,0,0,0,.3,1.85v.13Zm-2.4-1.1a2.46,2.46,0,0,0,1.29-.36,2.11,2.11,0,0,0,.89-.91V33.59h-1.14c-1.77,0-2.65.51-2.65,1.55a1.31,1.31,0,0,0,.45,1.06A1.71,1.71,0,0,0,888.29,36.59Z" transform="translate(0 -1.52)"/><path class="cls-19" d="M901.33,33.55a5,5,0,0,1-.89,3.12,2.84,2.84,0,0,1-2.39,1.17,2.94,2.94,0,0,1-2.48-1.13l-.07,1h-1.32v-12h1.44v4.47A2.94,2.94,0,0,1,898,29.08a2.86,2.86,0,0,1,2.41,1.16,5.16,5.16,0,0,1,.88,3.19Zm-1.44-.16a3.92,3.92,0,0,0-.57-2.28,1.89,1.89,0,0,0-1.64-.81,2.14,2.14,0,0,0-2.06,1.33v3.66a2.19,2.19,0,0,0,2.07,1.33,1.89,1.89,0,0,0,1.62-.81A4.09,4.09,0,0,0,899.89,33.39Z" transform="translate(0 -1.52)"/><path class="cls-19" d="M903.16,27a.83.83,0,0,1,.22-.59.79.79,0,0,1,.63-.24.82.82,0,0,1,.64.24.83.83,0,0,1,.22.59.82.82,0,0,1-.22.59.85.85,0,0,1-.64.23.78.78,0,0,1-.85-.82Zm1.56,10.7h-1.44V29.23h1.44Z" transform="translate(0 -1.52)"/><path class="cls-19" d="M908.61,37.69h-1.45v-12h1.45Z" transform="translate(0 -1.52)"/><path class="cls-19" d="M910.93,27a.87.87,0,0,1,.21-.59.82.82,0,0,1,.64-.24.83.83,0,0,1,.64.24.88.88,0,0,1,.22.59.78.78,0,0,1-.86.82.76.76,0,0,1-.85-.82Zm1.56,10.7H911V29.23h1.45Z" transform="translate(0 -1.52)"/><path class="cls-19" d="M916.76,27.19v2h1.58v1.12h-1.58V35.6a1.17,1.17,0,0,0,.21.76.89.89,0,0,0,.72.26,3.06,3.06,0,0,0,.69-.1v1.17a4.35,4.35,0,0,1-1.11.15,1.79,1.79,0,0,1-1.46-.58,2.52,2.52,0,0,1-.49-1.67V30.35h-1.54V29.23h1.54v-2Z" transform="translate(0 -1.52)"/><path class="cls-19" d="M922.79,35.57l2-6.34h1.55L922.91,39c-.53,1.41-1.36,2.11-2.51,2.11l-.27,0-.54-.1V39.8l.39,0a1.94,1.94,0,0,0,1.15-.3,2.19,2.19,0,0,0,.67-1.09l.32-.86-3-8.36h1.57Z" transform="translate(0 -1.52)"/><path class="cls-19" d="M931.18,33.38a5,5,0,0,1,.48-2.23A3.69,3.69,0,0,1,933,29.62a3.74,3.74,0,0,1,2-.54,3.61,3.61,0,0,1,2.8,1.19,4.61,4.61,0,0,1,1.06,3.18v.1a5.1,5.1,0,0,1-.47,2.22,3.72,3.72,0,0,1-1.35,1.53,3.79,3.79,0,0,1-2,.54,3.54,3.54,0,0,1-2.79-1.19,4.58,4.58,0,0,1-1.06-3.17Zm1.45.17a3.63,3.63,0,0,0,.65,2.26,2.09,2.09,0,0,0,1.75.85,2.06,2.06,0,0,0,1.75-.86,4,4,0,0,0,.65-2.42,3.6,3.6,0,0,0-.66-2.25,2.09,2.09,0,0,0-1.76-.86,2.05,2.05,0,0,0-1.72.85A3.9,3.9,0,0,0,932.63,33.55Z" transform="translate(0 -1.52)"/><path class="cls-19" d="M941.4,37.69V30.35h-1.34V29.23h1.34v-.86a2.88,2.88,0,0,1,.72-2.1,2.74,2.74,0,0,1,2.06-.75,3.76,3.76,0,0,1,1,.14l-.08,1.16a3.84,3.84,0,0,0-.78-.07,1.44,1.44,0,0,0-1.09.41,1.71,1.71,0,0,0-.38,1.18v.89h1.81v1.12h-1.81v7.34Z" transform="translate(0 -1.52)"/><path class="cls-19" d="M952.16,27.19v2h1.58v1.12h-1.58V35.6a1.17,1.17,0,0,0,.21.76.89.89,0,0,0,.72.26,3.06,3.06,0,0,0,.69-.1v1.17a4.35,4.35,0,0,1-1.11.15,1.79,1.79,0,0,1-1.46-.58,2.52,2.52,0,0,1-.49-1.67V30.35h-1.54V29.23h1.54v-2Z" transform="translate(0 -1.52)"/><path class="cls-19" d="M956.87,30.26a3.07,3.07,0,0,1,2.5-1.18c1.79,0,2.69,1,2.7,3v5.59h-1.44v-5.6a1.93,1.93,0,0,0-.42-1.35,1.68,1.68,0,0,0-1.28-.44,2.09,2.09,0,0,0-1.23.38,2.64,2.64,0,0,0-.83,1v6h-1.44v-12h1.44Z" transform="translate(0 -1.52)"/><path class="cls-19" d="M967.75,37.84a3.67,3.67,0,0,1-2.8-1.13,4.16,4.16,0,0,1-1.08-3v-.27a5.09,5.09,0,0,1,.48-2.25,3.69,3.69,0,0,1,1.35-1.54,3.31,3.31,0,0,1,1.87-.56,3.17,3.17,0,0,1,2.56,1.08,4.71,4.71,0,0,1,.91,3.11v.61h-5.72a3,3,0,0,0,.73,2,2.26,2.26,0,0,0,1.77.77,2.48,2.48,0,0,0,1.3-.31,3.06,3.06,0,0,0,.93-.83l.88.69A3.53,3.53,0,0,1,967.75,37.84Zm-.18-7.57a1.92,1.92,0,0,0-1.47.63,3.13,3.13,0,0,0-.74,1.79h4.24v-.11a2.7,2.7,0,0,0-.6-1.71A1.81,1.81,0,0,0,967.57,30.27Z" transform="translate(0 -1.52)"/><path class="cls-19" d="M974.07,29.23l0,.94a3.12,3.12,0,0,1,2.51-1.09A2.42,2.42,0,0,1,979,30.44a3.15,3.15,0,0,1,1.09-1,3.26,3.26,0,0,1,1.6-.37c1.86,0,2.8,1,2.83,2.94v5.67h-1.45V32.11a1.94,1.94,0,0,0-.41-1.36,1.83,1.83,0,0,0-1.39-.45,1.89,1.89,0,0,0-1.34.49,1.92,1.92,0,0,0-.61,1.29v5.61H977.9V32.15a1.61,1.61,0,0,0-1.8-1.85,1.94,1.94,0,0,0-2,1.22v6.17h-1.44V29.23Z" transform="translate(0 -1.52)"/><path class="cls-19" d="M991.41,37.69V30.35h-1.34V29.23h1.34v-.86a2.84,2.84,0,0,1,.73-2.1,2.72,2.72,0,0,1,2.05-.75,3.64,3.64,0,0,1,1,.14l-.07,1.16a4,4,0,0,0-.79-.07,1.42,1.42,0,0,0-1.08.41,1.66,1.66,0,0,0-.38,1.18v.89h1.8v1.12h-1.8v7.34Z" transform="translate(0 -1.52)"/><path class="cls-19" d="M996.26,27a.83.83,0,0,1,.22-.59.79.79,0,0,1,.63-.24.8.8,0,0,1,.64.24A.83.83,0,0,1,998,27a.82.82,0,0,1-.22.59.83.83,0,0,1-.64.23.78.78,0,0,1-.85-.82Zm1.56,10.7h-1.44V29.23h1.44Z" transform="translate(0 -1.52)"/><path class="cls-19" d="M1001.71,37.69h-1.45v-12h1.45Z" transform="translate(0 -1.52)"/><path class="cls-19" d="M1005.59,37.69h-1.44v-12h1.44Z" transform="translate(0 -1.52)"/><path class="cls-19" d="M1007.91,27a.83.83,0,0,1,.22-.59.79.79,0,0,1,.63-.24.82.82,0,0,1,.64.24.83.83,0,0,1,.22.59.82.82,0,0,1-.22.59.85.85,0,0,1-.64.23.78.78,0,0,1-.85-.82Zm1.56,10.7H1008V29.23h1.44Z" transform="translate(0 -1.52)"/><path class="cls-19" d="M1013.15,29.23l.05,1.07a3.07,3.07,0,0,1,2.53-1.22c1.79,0,2.69,1,2.7,3v5.59H1017v-5.6a2,2,0,0,0-.42-1.35,1.68,1.68,0,0,0-1.28-.44,2.06,2.06,0,0,0-1.23.38,2.55,2.55,0,0,0-.83,1v6h-1.44V29.23Z" transform="translate(0 -1.52)"/><path class="cls-19" d="M1020.27,33.39a4.93,4.93,0,0,1,.91-3.14,2.93,2.93,0,0,1,2.43-1.17,2.9,2.9,0,0,1,2.41,1.09l.07-.94h1.32v8.25a3.43,3.43,0,0,1-1,2.59,3.6,3.6,0,0,1-2.62,1,4.19,4.19,0,0,1-1.78-.4,3,3,0,0,1-1.34-1.07l.75-.86a2.85,2.85,0,0,0,2.27,1.15,2.21,2.21,0,0,0,1.65-.6,2.27,2.27,0,0,0,.59-1.67v-.73a3,3,0,0,1-2.37,1,2.87,2.87,0,0,1-2.4-1.19A5.24,5.24,0,0,1,1020.27,33.39Zm1.45.16a3.78,3.78,0,0,0,.59,2.25,1.9,1.9,0,0,0,1.64.82,2.14,2.14,0,0,0,2-1.24V31.52a2.15,2.15,0,0,0-2-1.22,1.92,1.92,0,0,0-1.65.82A4.11,4.11,0,0,0,1021.72,33.55Z" transform="translate(0 -1.52)"/><path class="cls-19" d="M1033.17,33.38a4.91,4.91,0,0,1,.49-2.23,3.62,3.62,0,0,1,1.36-1.53,3.68,3.68,0,0,1,2-.54,3.58,3.58,0,0,1,2.8,1.19,4.61,4.61,0,0,1,1.06,3.18v.1a5,5,0,0,1-.47,2.22A3.59,3.59,0,0,1,1039,37.3a3.79,3.79,0,0,1-2,.54,3.52,3.52,0,0,1-2.78-1.19,4.54,4.54,0,0,1-1.07-3.17Zm1.45.17a3.63,3.63,0,0,0,.65,2.26,2.09,2.09,0,0,0,1.75.85,2.06,2.06,0,0,0,1.75-.86,4,4,0,0,0,.65-2.42,3.6,3.6,0,0,0-.66-2.25,2.09,2.09,0,0,0-1.76-.86,2.06,2.06,0,0,0-1.72.85A3.9,3.9,0,0,0,1034.62,33.55Z" transform="translate(0 -1.52)"/><path class="cls-19" d="M1047.9,36.85a3.09,3.09,0,0,1-2.48,1,2.64,2.64,0,0,1-2.06-.78,3.38,3.38,0,0,1-.71-2.33v-5.5h1.44V34.7q0,1.92,1.56,1.92a2.17,2.17,0,0,0,2.21-1.24V29.23h1.44v8.46h-1.37Z" transform="translate(0 -1.52)"/><path class="cls-19" d="M1053.46,27.19v2H1055v1.12h-1.58V35.6a1.17,1.17,0,0,0,.21.76.89.89,0,0,0,.72.26,3.07,3.07,0,0,0,.68-.1v1.17a4.28,4.28,0,0,1-1.1.15,1.82,1.82,0,0,1-1.47-.58,2.58,2.58,0,0,1-.49-1.67V30.35h-1.54V29.23H1052v-2Z" transform="translate(0 -1.52)"/><path class="cls-19" d="M1062.65,27.19v2h1.57v1.12h-1.57V35.6a1.17,1.17,0,0,0,.21.76.88.88,0,0,0,.71.26,3.06,3.06,0,0,0,.69-.1v1.17a4.35,4.35,0,0,1-1.11.15,1.81,1.81,0,0,1-1.46-.58,2.52,2.52,0,0,1-.49-1.67V30.35h-1.54V29.23h1.54v-2Z" transform="translate(0 -1.52)"/><path class="cls-19" d="M1067.36,30.26a3.06,3.06,0,0,1,2.5-1.18c1.78,0,2.68,1,2.7,3v5.59h-1.45v-5.6a1.93,1.93,0,0,0-.41-1.35,1.7,1.7,0,0,0-1.28-.44,2.12,2.12,0,0,0-1.24.38,2.53,2.53,0,0,0-.82,1v6h-1.45v-12h1.45Z" transform="translate(0 -1.52)"/><path class="cls-19" d="M1078.23,37.84a3.69,3.69,0,0,1-2.8-1.13,4.2,4.2,0,0,1-1.07-3v-.27a5.09,5.09,0,0,1,.48-2.25,3.74,3.74,0,0,1,1.34-1.54,3.33,3.33,0,0,1,1.87-.56,3.17,3.17,0,0,1,2.56,1.08,4.71,4.71,0,0,1,.92,3.11v.61h-5.73a3,3,0,0,0,.73,2,2.28,2.28,0,0,0,1.78.77,2.53,2.53,0,0,0,1.3-.31,3.31,3.31,0,0,0,.93-.83l.88.69A3.55,3.55,0,0,1,1078.23,37.84Zm-.18-7.57a2,2,0,0,0-1.47.63,3.13,3.13,0,0,0-.73,1.79h4.23v-.11a2.75,2.75,0,0,0-.59-1.71A1.83,1.83,0,0,0,1078.05,30.27Z" transform="translate(0 -1.52)"/><path class="cls-19" d="M1087.87,37.69V30.35h-1.33V29.23h1.33v-.86a2.84,2.84,0,0,1,.73-2.1,2.72,2.72,0,0,1,2.05-.75,3.77,3.77,0,0,1,1,.14l-.08,1.16a4,4,0,0,0-.78-.07,1.42,1.42,0,0,0-1.09.41,1.71,1.71,0,0,0-.38,1.18v.89h1.8v1.12h-1.8v7.34Z" transform="translate(0 -1.52)"/><path class="cls-19" d="M1092.33,33.38a5,5,0,0,1,.49-2.23,3.6,3.6,0,0,1,3.35-2.07,3.58,3.58,0,0,1,2.79,1.19,4.62,4.62,0,0,1,1.07,3.18v.1a5.1,5.1,0,0,1-.47,2.22,3.67,3.67,0,0,1-1.36,1.53,3.74,3.74,0,0,1-2,.54,3.54,3.54,0,0,1-2.78-1.19,4.59,4.59,0,0,1-1.07-3.17Zm1.46.17a3.57,3.57,0,0,0,.65,2.26,2.21,2.21,0,0,0,3.49,0,3.89,3.89,0,0,0,.65-2.42,3.6,3.6,0,0,0-.66-2.25,2.2,2.2,0,0,0-3.48,0A3.9,3.9,0,0,0,1093.79,33.55Z" transform="translate(0 -1.52)"/><path class="cls-19" d="M1105.93,30.53a5.27,5.27,0,0,0-.71-.05,1.89,1.89,0,0,0-1.93,1.21v6h-1.45V29.23h1.41l0,1a2.26,2.26,0,0,1,2-1.13,1.39,1.39,0,0,1,.64.11Z" transform="translate(0 -1.52)"/><path class="cls-19" d="M1108.61,29.23l0,.94a3.12,3.12,0,0,1,2.51-1.09,2.4,2.4,0,0,1,2.41,1.36,3.12,3.12,0,0,1,2.7-1.36c1.85,0,2.8,1,2.83,2.94v5.67h-1.45V32.11a1.94,1.94,0,0,0-.41-1.36,1.83,1.83,0,0,0-1.39-.45,1.89,1.89,0,0,0-1.34.49,1.92,1.92,0,0,0-.61,1.29v5.61h-1.46V32.15a1.61,1.61,0,0,0-1.8-1.85,1.94,1.94,0,0,0-2,1.22v6.17h-1.44V29.23Z" transform="translate(0 -1.52)"/><path class="cls-19" d="M648.42,57.45h-3.81V56.27h3.81Z" transform="translate(0 -1.52)"/><path class="cls-19" d="M653.4,57.38a4.91,4.91,0,0,1,.49-2.23,3.6,3.6,0,0,1,3.35-2.07A3.58,3.58,0,0,1,660,54.27a4.62,4.62,0,0,1,1.07,3.18v.1a5,5,0,0,1-.48,2.22,3.59,3.59,0,0,1-1.35,1.53,3.77,3.77,0,0,1-2,.54,3.54,3.54,0,0,1-2.78-1.19,4.59,4.59,0,0,1-1.07-3.17Zm1.46.17a3.57,3.57,0,0,0,.65,2.26,2.21,2.21,0,0,0,3.49,0,3.89,3.89,0,0,0,.65-2.42,3.6,3.6,0,0,0-.66-2.25,2.2,2.2,0,0,0-3.48,0A3.9,3.9,0,0,0,654.86,57.55Z" transform="translate(0 -1.52)"/><path class="cls-19" d="M664.28,53.23l0,1.07a3.07,3.07,0,0,1,2.54-1.22c1.78,0,2.68,1,2.7,3v5.59h-1.45v-5.6a1.93,1.93,0,0,0-.41-1.35,1.7,1.7,0,0,0-1.28-.44,2.12,2.12,0,0,0-1.24.38,2.53,2.53,0,0,0-.82,1v6h-1.45V53.23Z" transform="translate(0 -1.52)"/><path class="cls-19" d="M673.31,61.69h-1.45v-12h1.45Z" transform="translate(0 -1.52)"/><path class="cls-19" d="M678.39,59.57l2-6.34h1.54L678.5,63c-.52,1.41-1.36,2.11-2.5,2.11l-.28,0-.54-.1V63.8l.39,0a1.92,1.92,0,0,0,1.15-.3,2.13,2.13,0,0,0,.67-1.09l.32-.86-3-8.36h1.58Z" transform="translate(0 -1.52)"/><path class="cls-19" d="M692.37,60.85a3.08,3.08,0,0,1-2.48,1,2.62,2.62,0,0,1-2-.78,3.38,3.38,0,0,1-.72-2.33v-5.5h1.45V58.7q0,1.92,1.56,1.92a2.15,2.15,0,0,0,2.2-1.24V53.23h1.45v8.46H692.4Z" transform="translate(0 -1.52)"/><path class="cls-19" d="M700.89,59.45a1,1,0,0,0-.44-.91,4,4,0,0,0-1.54-.56,7.37,7.37,0,0,1-1.74-.57,2.29,2.29,0,0,1-.95-.78,1.83,1.83,0,0,1-.31-1.08,2.17,2.17,0,0,1,.88-1.75,3.4,3.4,0,0,1,2.24-.72,3.58,3.58,0,0,1,2.34.74,2.38,2.38,0,0,1,.89,1.9h-1.45a1.28,1.28,0,0,0-.51-1,1.84,1.84,0,0,0-1.27-.43,2,2,0,0,0-1.23.34,1.07,1.07,0,0,0-.44.9.87.87,0,0,0,.41.79,5.3,5.3,0,0,0,1.5.5,8.5,8.5,0,0,1,1.75.58,2.69,2.69,0,0,1,1,.81,2,2,0,0,1,.32,1.15,2.16,2.16,0,0,1-.91,1.82,3.75,3.75,0,0,1-2.35.68,4.29,4.29,0,0,1-1.8-.36,2.87,2.87,0,0,1-1.22-1,2.44,2.44,0,0,1-.44-1.39h1.45a1.49,1.49,0,0,0,.58,1.15,2.27,2.27,0,0,0,1.43.42,2.35,2.35,0,0,0,1.32-.33A1,1,0,0,0,700.89,59.45Z" transform="translate(0 -1.52)"/><path class="cls-19" d="M707.73,61.84a3.67,3.67,0,0,1-2.8-1.13,4.15,4.15,0,0,1-1.07-3v-.27a5.09,5.09,0,0,1,.48-2.25,3.67,3.67,0,0,1,1.34-1.54,3.31,3.31,0,0,1,1.87-.56,3.17,3.17,0,0,1,2.56,1.08,4.71,4.71,0,0,1,.92,3.11v.61H705.3a3,3,0,0,0,.73,2,2.28,2.28,0,0,0,1.78.77,2.53,2.53,0,0,0,1.3-.31,3.15,3.15,0,0,0,.92-.83l.89.69A3.55,3.55,0,0,1,707.73,61.84Zm-.18-7.57a2,2,0,0,0-1.47.63,3.13,3.13,0,0,0-.73,1.79h4.23v-.11a2.75,2.75,0,0,0-.59-1.71A1.84,1.84,0,0,0,707.55,54.27Z" transform="translate(0 -1.52)"/><path class="cls-19" d="M716.78,54.53a5,5,0,0,0-.71-.05,1.91,1.91,0,0,0-1.93,1.21v6H712.7V53.23h1.41l0,1a2.24,2.24,0,0,1,2-1.13,1.34,1.34,0,0,1,.64.11Z" transform="translate(0 -1.52)"/><path class="cls-19" d="M723,59.45a1,1,0,0,0-.44-.91,4,4,0,0,0-1.54-.56,7.37,7.37,0,0,1-1.74-.57,2.29,2.29,0,0,1-.95-.78,1.83,1.83,0,0,1-.31-1.08,2.17,2.17,0,0,1,.88-1.75,3.43,3.43,0,0,1,2.25-.72,3.57,3.57,0,0,1,2.33.74,2.38,2.38,0,0,1,.89,1.9H723a1.3,1.3,0,0,0-.5-1,1.88,1.88,0,0,0-1.27-.43,2,2,0,0,0-1.24.34,1.07,1.07,0,0,0-.44.9.87.87,0,0,0,.41.79,5.3,5.3,0,0,0,1.5.5,8.5,8.5,0,0,1,1.75.58,2.69,2.69,0,0,1,1,.81,2,2,0,0,1,.32,1.15,2.16,2.16,0,0,1-.91,1.82,3.75,3.75,0,0,1-2.35.68,4.24,4.24,0,0,1-1.79-.36,2.84,2.84,0,0,1-1.23-1,2.44,2.44,0,0,1-.44-1.39h1.45a1.49,1.49,0,0,0,.58,1.15,2.27,2.27,0,0,0,1.43.42,2.35,2.35,0,0,0,1.32-.33A1,1,0,0,0,723,59.45Z" transform="translate(0 -1.52)"/><path class="cls-19" d="M737.81,59.7l1.62-6.47h1.45l-2.46,8.46h-1.17l-2.06-6.41-2,6.41H732l-2.45-8.46H731l1.67,6.33,2-6.33h1.16Z" transform="translate(0 -1.52)"/><path class="cls-19" d="M742.36,51a.87.87,0,0,1,.21-.59.82.82,0,0,1,.64-.24.83.83,0,0,1,.64.24.88.88,0,0,1,.22.59.78.78,0,0,1-.86.82.76.76,0,0,1-.85-.82Zm1.56,10.7h-1.45V53.23h1.45Z" transform="translate(0 -1.52)"/><path class="cls-19" d="M748.19,51.19v2h1.58v1.12h-1.58V59.6a1.17,1.17,0,0,0,.21.76.89.89,0,0,0,.72.26,3.06,3.06,0,0,0,.69-.1v1.17a4.35,4.35,0,0,1-1.11.15,1.79,1.79,0,0,1-1.46-.58,2.52,2.52,0,0,1-.49-1.67V54.35h-1.54V53.23h1.54v-2Z" transform="translate(0 -1.52)"/><path class="cls-19" d="M752.9,54.26a3.07,3.07,0,0,1,2.5-1.18c1.79,0,2.69,1,2.71,3v5.59h-1.45v-5.6a1.93,1.93,0,0,0-.42-1.35A1.68,1.68,0,0,0,755,54.3a2.09,2.09,0,0,0-1.23.38,2.64,2.64,0,0,0-.83,1v6h-1.44v-12h1.44Z" transform="translate(0 -1.52)"/><path class="cls-19" d="M768.32,54.53a5.27,5.27,0,0,0-.71-.05,1.89,1.89,0,0,0-1.93,1.21v6h-1.45V53.23h1.41l0,1a2.26,2.26,0,0,1,2-1.13,1.39,1.39,0,0,1,.64.11Z" transform="translate(0 -1.52)"/><path class="cls-19" d="M773.15,61.84a3.65,3.65,0,0,1-2.79-1.13,4.16,4.16,0,0,1-1.08-3v-.27a5.09,5.09,0,0,1,.48-2.25,3.74,3.74,0,0,1,1.34-1.54,3.33,3.33,0,0,1,1.87-.56,3.15,3.15,0,0,1,2.56,1.08,4.71,4.71,0,0,1,.92,3.11v.61h-5.73a3,3,0,0,0,.73,2,2.28,2.28,0,0,0,1.78.77,2.53,2.53,0,0,0,1.3-.31,3.31,3.31,0,0,0,.93-.83l.88.69A3.55,3.55,0,0,1,773.15,61.84ZM773,54.27a2,2,0,0,0-1.47.63,3.13,3.13,0,0,0-.73,1.79H775v-.11a2.75,2.75,0,0,0-.59-1.71A1.81,1.81,0,0,0,773,54.27Z" transform="translate(0 -1.52)"/><path class="cls-19" d="M783.34,61.69a3.19,3.19,0,0,1-.2-.89,3.22,3.22,0,0,1-2.41,1,3,3,0,0,1-2.05-.7,2.3,2.3,0,0,1-.8-1.8,2.39,2.39,0,0,1,1-2.05,4.79,4.79,0,0,1,2.83-.73h1.4V55.9a1.63,1.63,0,0,0-.45-1.21,1.82,1.82,0,0,0-1.34-.45,2.1,2.1,0,0,0-1.29.39,1.16,1.16,0,0,0-.53.95h-1.45a2,2,0,0,1,.45-1.22,3.05,3.05,0,0,1,1.22-.94,4.08,4.08,0,0,1,1.69-.34,3.33,3.33,0,0,1,2.29.73,2.65,2.65,0,0,1,.86,2v3.89a4.7,4.7,0,0,0,.3,1.85v.13Zm-2.4-1.1a2.52,2.52,0,0,0,1.29-.36,2,2,0,0,0,.88-.91V57.59H782c-1.77,0-2.66.51-2.66,1.55a1.29,1.29,0,0,0,.46,1.06A1.71,1.71,0,0,0,780.94,60.59Z" transform="translate(0 -1.52)"/><path class="cls-19" d="M786.47,57.39a5,5,0,0,1,.92-3.13,3.15,3.15,0,0,1,4.77-.17v-4.4h1.45v12h-1.33l-.07-.91a3,3,0,0,1-2.42,1.06,2.88,2.88,0,0,1-2.39-1.2,5,5,0,0,1-.93-3.14Zm1.45.16a3.78,3.78,0,0,0,.59,2.25,1.91,1.91,0,0,0,1.64.82,2.1,2.1,0,0,0,2-1.24V55.5a2.12,2.12,0,0,0-2-1.2,2,2,0,0,0-1.66.82A4.19,4.19,0,0,0,787.92,57.55Z" transform="translate(0 -1.52)"/><path class="cls-19" d="M795.86,51a.87.87,0,0,1,.21-.59.82.82,0,0,1,.64-.24.83.83,0,0,1,.64.24.88.88,0,0,1,.22.59.78.78,0,0,1-.86.82.76.76,0,0,1-.85-.82Zm1.56,10.7H796V53.23h1.45Z" transform="translate(0 -1.52)"/><path class="cls-19" d="M801.3,61.69h-1.44v-12h1.44Z" transform="translate(0 -1.52)"/><path class="cls-19" d="M806.38,59.57l2-6.34h1.54L806.5,63C806,64.4,805.13,65.1,804,65.1l-.27,0-.54-.1V63.8l.39,0a1.89,1.89,0,0,0,1.14-.3,2.2,2.2,0,0,0,.68-1.09l.32-.86-3-8.36h1.58Z" transform="translate(0 -1.52)"/><path class="cls-19" d="M820.36,61.69a3.19,3.19,0,0,1-.2-.89,3.2,3.2,0,0,1-2.41,1,3,3,0,0,1-2-.7,2.3,2.3,0,0,1-.8-1.8,2.4,2.4,0,0,1,1-2.05,4.78,4.78,0,0,1,2.82-.73h1.41V55.9a1.6,1.6,0,0,0-.46-1.21,1.8,1.8,0,0,0-1.33-.45,2.11,2.11,0,0,0-1.3.39,1.15,1.15,0,0,0-.52.95h-1.46a2,2,0,0,1,.45-1.22,3.05,3.05,0,0,1,1.22-.94,4.12,4.12,0,0,1,1.69-.34,3.32,3.32,0,0,1,2.29.73,2.65,2.65,0,0,1,.86,2v3.89a4.7,4.7,0,0,0,.3,1.85v.13ZM818,60.59a2.46,2.46,0,0,0,1.28-.36,2.11,2.11,0,0,0,.89-.91V57.59H819c-1.77,0-2.65.51-2.65,1.55a1.31,1.31,0,0,0,.45,1.06A1.72,1.72,0,0,0,818,60.59Z" transform="translate(0 -1.52)"/><path class="cls-19" d="M826.52,59.73l2.09-6.5h1.48l-3,8.46H826l-3.07-8.46h1.48Z" transform="translate(0 -1.52)"/><path class="cls-19" d="M836.58,61.69a3.19,3.19,0,0,1-.2-.89,3.2,3.2,0,0,1-2.41,1,3,3,0,0,1-2.05-.7,2.3,2.3,0,0,1-.8-1.8,2.4,2.4,0,0,1,1-2.05,4.76,4.76,0,0,1,2.82-.73h1.41V55.9a1.64,1.64,0,0,0-.46-1.21,1.8,1.8,0,0,0-1.33-.45,2.11,2.11,0,0,0-1.3.39,1.15,1.15,0,0,0-.52.95h-1.46a2,2,0,0,1,.45-1.22,3.05,3.05,0,0,1,1.22-.94,4.08,4.08,0,0,1,1.69-.34,3.32,3.32,0,0,1,2.29.73,2.65,2.65,0,0,1,.86,2v3.89a4.7,4.7,0,0,0,.3,1.85v.13Zm-2.4-1.1a2.46,2.46,0,0,0,1.29-.36,2.11,2.11,0,0,0,.89-.91V57.59h-1.14c-1.77,0-2.65.51-2.65,1.55A1.31,1.31,0,0,0,833,60.2,1.71,1.71,0,0,0,834.18,60.59Z" transform="translate(0 -1.52)"/><path class="cls-19" d="M840.07,51a.88.88,0,0,1,.22-.59.82.82,0,0,1,.64-.24.83.83,0,0,1,.64.24.88.88,0,0,1,.22.59.78.78,0,0,1-.86.82.85.85,0,0,1-.64-.23A.86.86,0,0,1,840.07,51Zm1.57,10.7h-1.45V53.23h1.45Z" transform="translate(0 -1.52)"/><path class="cls-19" d="M845.52,61.69h-1.45v-12h1.45Z" transform="translate(0 -1.52)"/><path class="cls-19" d="M853.05,61.69a3.19,3.19,0,0,1-.2-.89,3.22,3.22,0,0,1-2.41,1,3,3,0,0,1-2.05-.7,2.3,2.3,0,0,1-.8-1.8,2.41,2.41,0,0,1,1-2.05,4.79,4.79,0,0,1,2.83-.73h1.4V55.9a1.63,1.63,0,0,0-.45-1.21,1.81,1.81,0,0,0-1.33-.45,2.11,2.11,0,0,0-1.3.39,1.15,1.15,0,0,0-.52.95h-1.46a2,2,0,0,1,.45-1.22,3.05,3.05,0,0,1,1.22-.94,4.08,4.08,0,0,1,1.69-.34,3.32,3.32,0,0,1,2.29.73,2.65,2.65,0,0,1,.86,2v3.89a4.7,4.7,0,0,0,.3,1.85v.13Zm-2.4-1.1a2.46,2.46,0,0,0,1.29-.36,2,2,0,0,0,.88-.91V57.59h-1.13c-1.77,0-2.65.51-2.65,1.55a1.31,1.31,0,0,0,.45,1.06A1.71,1.71,0,0,0,850.65,60.59Z" transform="translate(0 -1.52)"/><path class="cls-19" d="M863.69,57.55a5,5,0,0,1-.89,3.12,2.84,2.84,0,0,1-2.39,1.17,2.94,2.94,0,0,1-2.48-1.13l-.07,1h-1.32v-12H858v4.47a2.94,2.94,0,0,1,2.42-1.08,2.86,2.86,0,0,1,2.41,1.16,5.16,5.16,0,0,1,.88,3.19Zm-1.44-.16a3.92,3.92,0,0,0-.57-2.28A1.89,1.89,0,0,0,860,54.3,2.14,2.14,0,0,0,858,55.63v3.66a2.19,2.19,0,0,0,2.07,1.33,1.89,1.89,0,0,0,1.62-.81A4.17,4.17,0,0,0,862.25,57.39Z" transform="translate(0 -1.52)"/><path class="cls-19" d="M867.08,61.69h-1.44v-12h1.44Z" transform="translate(0 -1.52)"/><path class="cls-19" d="M872.9,61.84a3.65,3.65,0,0,1-2.79-1.13,4.16,4.16,0,0,1-1.08-3v-.27a5.09,5.09,0,0,1,.48-2.25,3.74,3.74,0,0,1,1.34-1.54,3.33,3.33,0,0,1,1.87-.56,3.19,3.19,0,0,1,2.57,1.08,4.71,4.71,0,0,1,.91,3.11v.61h-5.73a3,3,0,0,0,.73,2,2.28,2.28,0,0,0,1.78.77,2.53,2.53,0,0,0,1.3-.31,3.31,3.31,0,0,0,.93-.83l.88.69A3.55,3.55,0,0,1,872.9,61.84Zm-.18-7.57a2,2,0,0,0-1.47.63,3.13,3.13,0,0,0-.73,1.79h4.23v-.11a2.7,2.7,0,0,0-.59-1.71A1.81,1.81,0,0,0,872.72,54.27Z" transform="translate(0 -1.52)"/><path class="cls-19" d="M884,50.31l3.72,9.28,3.71-9.28h2V61.69h-1.5V57.26l.14-4.78-3.73,9.21h-1.15l-3.73-9.19.15,4.76v4.43h-1.5V50.31Z" transform="translate(0 -1.52)"/><path class="cls-19" d="M900.2,57.09h-2.67v4.6H896V50.31h3.77a4.4,4.4,0,0,1,3,.88,3.14,3.14,0,0,1,1,2.54,3,3,0,0,1-.58,1.86,3.44,3.44,0,0,1-1.59,1.18l2.67,4.82v.1h-1.61Zm-2.67-1.23h2.3a2.58,2.58,0,0,0,1.78-.58,2,2,0,0,0,.66-1.55,2.07,2.07,0,0,0-.63-1.62,2.61,2.61,0,0,0-1.82-.57h-2.29Z" transform="translate(0 -1.52)"/><path class="cls-19" d="M907.49,61.69H906V50.31h1.5Z" transform="translate(0 -1.52)"/><path class="cls-19" d="M918.89,59.45a1.05,1.05,0,0,0-.44-.91,4.12,4.12,0,0,0-1.54-.56,7.47,7.47,0,0,1-1.75-.57,2.42,2.42,0,0,1-.95-.78,1.91,1.91,0,0,1-.31-1.08,2.2,2.2,0,0,1,.88-1.75,3.45,3.45,0,0,1,2.25-.72,3.56,3.56,0,0,1,2.33.74,2.35,2.35,0,0,1,.89,1.9H918.8a1.3,1.3,0,0,0-.5-1,1.88,1.88,0,0,0-1.27-.43,2,2,0,0,0-1.24.34,1.1,1.1,0,0,0-.44.9.89.89,0,0,0,.41.79,5.42,5.42,0,0,0,1.5.5,8.5,8.5,0,0,1,1.75.58,2.69,2.69,0,0,1,1,.81,2,2,0,0,1,.32,1.15,2.17,2.17,0,0,1-.9,1.82,3.8,3.8,0,0,1-2.36.68,4.24,4.24,0,0,1-1.79-.36,2.82,2.82,0,0,1-1.22-1,2.38,2.38,0,0,1-.45-1.39h1.45a1.53,1.53,0,0,0,.58,1.15,2.27,2.27,0,0,0,1.43.42,2.35,2.35,0,0,0,1.32-.33A1,1,0,0,0,918.89,59.45Z" transform="translate(0 -1.52)"/><path class="cls-19" d="M925.61,60.66A2.1,2.1,0,0,0,927,60.2,1.69,1.69,0,0,0,927.6,59H929a2.73,2.73,0,0,1-.5,1.39,3.39,3.39,0,0,1-1.23,1,3.59,3.59,0,0,1-1.63.39,3.47,3.47,0,0,1-2.75-1.15,4.59,4.59,0,0,1-1-3.15V57.3a5.12,5.12,0,0,1,.45-2.2,3.51,3.51,0,0,1,1.3-1.49,3.77,3.77,0,0,1,2-.53,3.37,3.37,0,0,1,2.36.85,3.07,3.07,0,0,1,1,2.21H927.6a2,2,0,0,0-.62-1.35,1.93,1.93,0,0,0-1.38-.52,2,2,0,0,0-1.71.79,3.74,3.74,0,0,0-.6,2.29v.27a3.69,3.69,0,0,0,.6,2.26A2,2,0,0,0,925.61,60.66Z" transform="translate(0 -1.52)"/><path class="cls-19" d="M935.81,61.69a3.19,3.19,0,0,1-.2-.89,3.23,3.23,0,0,1-2.41,1,3,3,0,0,1-2.05-.7,2.27,2.27,0,0,1-.8-1.8,2.39,2.39,0,0,1,1-2.05,4.79,4.79,0,0,1,2.83-.73h1.4V55.9a1.63,1.63,0,0,0-.45-1.21,1.82,1.82,0,0,0-1.34-.45,2.1,2.1,0,0,0-1.29.39,1.16,1.16,0,0,0-.53.95h-1.45a2,2,0,0,1,.45-1.22,3.05,3.05,0,0,1,1.22-.94,4.08,4.08,0,0,1,1.69-.34,3.33,3.33,0,0,1,2.29.73,2.65,2.65,0,0,1,.86,2v3.89a4.91,4.91,0,0,0,.29,1.85v.13Zm-2.4-1.1a2.52,2.52,0,0,0,1.29-.36,2,2,0,0,0,.88-.91V57.59h-1.13c-1.77,0-2.66.51-2.66,1.55a1.32,1.32,0,0,0,.46,1.06A1.71,1.71,0,0,0,933.41,60.59Z" transform="translate(0 -1.52)"/><path class="cls-19" d="M940.66,53.23l.05,1.07a3.05,3.05,0,0,1,2.53-1.22c1.79,0,2.69,1,2.7,3v5.59H944.5v-5.6a2,2,0,0,0-.42-1.35,1.68,1.68,0,0,0-1.28-.44,2.06,2.06,0,0,0-1.23.38,2.55,2.55,0,0,0-.83,1v6h-1.45V53.23Z" transform="translate(0 -1.52)"/><path class="cls-19" d="M959.57,59.7l1.62-6.47h1.45l-2.46,8.46H959l-2-6.41-2,6.41h-1.17l-2.46-8.46h1.44l1.67,6.33,2-6.33h1.16Z" transform="translate(0 -1.52)"/><path class="cls-19" d="M964.11,51a.88.88,0,0,1,.22-.59.8.8,0,0,1,.64-.24.83.83,0,0,1,.64.24.87.87,0,0,1,.21.59.85.85,0,0,1-.21.59.86.86,0,0,1-.64.23.83.83,0,0,1-.64-.23A.86.86,0,0,1,964.11,51Zm1.57,10.7h-1.45V53.23h1.45Z" transform="translate(0 -1.52)"/><path class="cls-19" d="M969.56,61.69h-1.45v-12h1.45Z" transform="translate(0 -1.52)"/><path class="cls-19" d="M973.44,61.69H972v-12h1.44Z" transform="translate(0 -1.52)"/><path class="cls-19" d="M983.11,60.66a2.1,2.1,0,0,0,1.35-.46A1.69,1.69,0,0,0,985.1,59h1.37a2.73,2.73,0,0,1-.5,1.39,3.39,3.39,0,0,1-1.23,1,3.59,3.59,0,0,1-1.63.39,3.47,3.47,0,0,1-2.75-1.15,4.59,4.59,0,0,1-1-3.15V57.3a5.12,5.12,0,0,1,.45-2.2,3.51,3.51,0,0,1,1.3-1.49,3.77,3.77,0,0,1,2-.53,3.37,3.37,0,0,1,2.36.85,3.07,3.07,0,0,1,1,2.21H985.1a2,2,0,0,0-.62-1.35,1.93,1.93,0,0,0-1.38-.52,2,2,0,0,0-1.71.79,3.74,3.74,0,0,0-.6,2.29v.27a3.69,3.69,0,0,0,.6,2.26A2,2,0,0,0,983.11,60.66Z" transform="translate(0 -1.52)"/><path class="cls-19" d="M992.18,54.53a5.27,5.27,0,0,0-.71-.05,1.89,1.89,0,0,0-1.93,1.21v6h-1.45V53.23h1.41l0,1a2.26,2.26,0,0,1,2-1.13,1.39,1.39,0,0,1,.64.11Z" transform="translate(0 -1.52)"/><path class="cls-19" d="M997,61.84a3.65,3.65,0,0,1-2.79-1.13,4.16,4.16,0,0,1-1.08-3v-.27a5.09,5.09,0,0,1,.48-2.25A3.74,3.74,0,0,1,995,53.64a3.33,3.33,0,0,1,1.87-.56,3.19,3.19,0,0,1,2.57,1.08,4.76,4.76,0,0,1,.91,3.11v.61h-5.73a3,3,0,0,0,.73,2,2.28,2.28,0,0,0,1.78.77,2.53,2.53,0,0,0,1.3-.31,3.31,3.31,0,0,0,.93-.83l.88.69A3.55,3.55,0,0,1,997,61.84Zm-.18-7.57a2,2,0,0,0-1.47.63,3.13,3.13,0,0,0-.73,1.79h4.23v-.11a2.75,2.75,0,0,0-.59-1.71A1.81,1.81,0,0,0,996.83,54.27Z" transform="translate(0 -1.52)"/><path class="cls-19" d="M1007.2,61.69a3.19,3.19,0,0,1-.2-.89,3.23,3.23,0,0,1-2.41,1,3,3,0,0,1-2.05-.7,2.3,2.3,0,0,1-.8-1.8,2.39,2.39,0,0,1,1-2.05,4.79,4.79,0,0,1,2.83-.73h1.4V55.9a1.63,1.63,0,0,0-.45-1.21,1.82,1.82,0,0,0-1.34-.45,2.1,2.1,0,0,0-1.29.39,1.16,1.16,0,0,0-.53.95h-1.45a2,2,0,0,1,.45-1.22,3.05,3.05,0,0,1,1.22-.94,4.08,4.08,0,0,1,1.69-.34,3.33,3.33,0,0,1,2.29.73,2.65,2.65,0,0,1,.86,2v3.89a4.7,4.7,0,0,0,.3,1.85v.13Zm-2.4-1.1a2.52,2.52,0,0,0,1.29-.36,2,2,0,0,0,.88-.91V57.59h-1.13c-1.77,0-2.66.51-2.66,1.55a1.32,1.32,0,0,0,.46,1.06A1.71,1.71,0,0,0,1004.8,60.59Z" transform="translate(0 -1.52)"/><path class="cls-19" d="M1012.65,51.19v2h1.57v1.12h-1.57V59.6a1.17,1.17,0,0,0,.21.76.88.88,0,0,0,.71.26,3.06,3.06,0,0,0,.69-.1v1.17a4.35,4.35,0,0,1-1.11.15,1.81,1.81,0,0,1-1.46-.58,2.52,2.52,0,0,1-.49-1.67V54.35h-1.54V53.23h1.54v-2Z" transform="translate(0 -1.52)"/><path class="cls-19" d="M1019.42,61.84a3.67,3.67,0,0,1-2.8-1.13,4.16,4.16,0,0,1-1.08-3v-.27a5.09,5.09,0,0,1,.48-2.25,3.69,3.69,0,0,1,1.35-1.54,3.31,3.31,0,0,1,1.87-.56,3.17,3.17,0,0,1,2.56,1.08,4.71,4.71,0,0,1,.92,3.11v.61H1017a3,3,0,0,0,.73,2,2.28,2.28,0,0,0,1.78.77,2.47,2.47,0,0,0,1.29-.31,3.06,3.06,0,0,0,.93-.83l.89.69A3.55,3.55,0,0,1,1019.42,61.84Zm-.18-7.57a2,2,0,0,0-1.47.63,3.06,3.06,0,0,0-.73,1.79h4.23v-.11a2.75,2.75,0,0,0-.59-1.71A1.84,1.84,0,0,0,1019.24,54.27Z" transform="translate(0 -1.52)"/><path class="cls-19" d="M1030.31,51.19v2h1.58v1.12h-1.58V59.6a1.17,1.17,0,0,0,.21.76.89.89,0,0,0,.72.26,3.14,3.14,0,0,0,.69-.1v1.17a4.35,4.35,0,0,1-1.11.15,1.78,1.78,0,0,1-1.46-.58,2.52,2.52,0,0,1-.5-1.67V54.35h-1.54V53.23h1.54v-2Z" transform="translate(0 -1.52)"/><path class="cls-19" d="M1035,54.26a3.06,3.06,0,0,1,2.5-1.18c1.79,0,2.69,1,2.7,3v5.59h-1.44v-5.6a2,2,0,0,0-.42-1.35,1.68,1.68,0,0,0-1.28-.44,2.06,2.06,0,0,0-1.23.38,2.55,2.55,0,0,0-.83,1v6h-1.45v-12H1035Z" transform="translate(0 -1.52)"/><path class="cls-19" d="M1045.9,61.84a3.67,3.67,0,0,1-2.8-1.13,4.16,4.16,0,0,1-1.08-3v-.27a5.09,5.09,0,0,1,.48-2.25,3.74,3.74,0,0,1,1.34-1.54,3.34,3.34,0,0,1,1.88-.56,3.18,3.18,0,0,1,2.56,1.08,4.71,4.71,0,0,1,.91,3.11v.61h-5.72a3,3,0,0,0,.73,2,2.25,2.25,0,0,0,1.77.77,2.5,2.5,0,0,0,1.3-.31,3.31,3.31,0,0,0,.93-.83l.88.69A3.54,3.54,0,0,1,1045.9,61.84Zm-.18-7.57a1.92,1.92,0,0,0-1.47.63,3.13,3.13,0,0,0-.74,1.79h4.24v-.11a2.76,2.76,0,0,0-.6-1.71A1.81,1.81,0,0,0,1045.72,54.27Z" transform="translate(0 -1.52)"/><path class="cls-19" d="M1050.87,51a.83.83,0,0,1,.22-.59.79.79,0,0,1,.63-.24.82.82,0,0,1,.64.24.83.83,0,0,1,.22.59.82.82,0,0,1-.22.59.85.85,0,0,1-.64.23.78.78,0,0,1-.85-.82Zm1.56,10.7H1051V53.23h1.44Z" transform="translate(0 -1.52)"/><path class="cls-19" d="M1058.83,54.53a5.16,5.16,0,0,0-.71-.05,1.9,1.9,0,0,0-1.93,1.21v6h-1.44V53.23h1.4l0,1a2.24,2.24,0,0,1,2-1.13,1.36,1.36,0,0,1,.64.11Z" transform="translate(0 -1.52)"/><path class="cls-19" d="M1071.26,57.55a5,5,0,0,1-.88,3.11,2.83,2.83,0,0,1-2.39,1.18,3.09,3.09,0,0,1-2.42-1v4.07h-1.45V53.23h1.32l.07.94a3,3,0,0,1,2.46-1.09,2.89,2.89,0,0,1,2.41,1.15,5.11,5.11,0,0,1,.88,3.19Zm-1.44-.16a3.81,3.81,0,0,0-.61-2.26,2,2,0,0,0-1.67-.83,2.11,2.11,0,0,0-2,1.17v4a2.12,2.12,0,0,0,2,1.15,2,2,0,0,0,1.65-.82A4.08,4.08,0,0,0,1069.82,57.39Z" transform="translate(0 -1.52)"/><path class="cls-19" d="M1077.18,54.53a5,5,0,0,0-.71-.05,1.91,1.91,0,0,0-1.93,1.21v6h-1.44V53.23h1.4l0,1a2.24,2.24,0,0,1,2-1.13,1.36,1.36,0,0,1,.64.11Z" transform="translate(0 -1.52)"/><path class="cls-19" d="M1078,57.38a5,5,0,0,1,.49-2.23,3.6,3.6,0,0,1,3.35-2.07,3.58,3.58,0,0,1,2.79,1.19,4.62,4.62,0,0,1,1.07,3.18v.1a5.1,5.1,0,0,1-.47,2.22,3.67,3.67,0,0,1-1.36,1.53,3.74,3.74,0,0,1-2,.54,3.54,3.54,0,0,1-2.78-1.19,4.59,4.59,0,0,1-1.07-3.17Zm1.46.17a3.57,3.57,0,0,0,.65,2.26,2.07,2.07,0,0,0,1.74.85,2.05,2.05,0,0,0,1.75-.86,3.89,3.89,0,0,0,.65-2.42,3.6,3.6,0,0,0-.66-2.25,2.2,2.2,0,0,0-3.48,0A4,4,0,0,0,1079.43,57.55Z" transform="translate(0 -1.52)"/><path class="cls-19" d="M1088.19,61.69V54.35h-1.33V53.23h1.33v-.86a2.84,2.84,0,0,1,.73-2.1,2.72,2.72,0,0,1,2-.75,3.77,3.77,0,0,1,1,.14l-.08,1.16a4,4,0,0,0-.78-.07,1.44,1.44,0,0,0-1.09.41,1.71,1.71,0,0,0-.38,1.18v.89h1.8v1.12h-1.8v7.34Z" transform="translate(0 -1.52)"/><path class="cls-19" d="M1093,51a.83.83,0,0,1,.22-.59.8.8,0,0,1,.64-.24.83.83,0,0,1,.64.24.87.87,0,0,1,.21.59.85.85,0,0,1-.21.59.86.86,0,0,1-.64.23.83.83,0,0,1-.64-.23A.82.82,0,0,1,1093,51Zm1.57,10.7h-1.45V53.23h1.45Z" transform="translate(0 -1.52)"/><path class="cls-19" d="M1098.49,61.69H1097v-12h1.45Z" transform="translate(0 -1.52)"/><path class="cls-19" d="M1104.31,61.84a3.67,3.67,0,0,1-2.8-1.13,4.16,4.16,0,0,1-1.08-3v-.27a5.09,5.09,0,0,1,.48-2.25,3.76,3.76,0,0,1,1.35-1.54,3.31,3.31,0,0,1,1.87-.56,3.17,3.17,0,0,1,2.56,1.08,4.71,4.71,0,0,1,.92,3.11v.61h-5.73a3,3,0,0,0,.73,2,2.28,2.28,0,0,0,1.78.77,2.47,2.47,0,0,0,1.29-.31,3.06,3.06,0,0,0,.93-.83l.89.69A3.55,3.55,0,0,1,1104.31,61.84Zm-.18-7.57a2,2,0,0,0-1.47.63,3.13,3.13,0,0,0-.73,1.79h4.23v-.11a2.75,2.75,0,0,0-.59-1.71A1.84,1.84,0,0,0,1104.13,54.27Z" transform="translate(0 -1.52)"/></g></g></svg>