<svg xmlns="http://www.w3.org/2000/svg" viewBox="0 0 1717.33 931.31"><defs><style>.cls-1{fill:#fff;}.cls-2,.cls-22,.cls-42,.cls-43,.cls-59,.cls-72,.cls-74{fill:none;}.cls-2{stroke:#000;}.cls-2,.cls-22,.cls-42,.cls-43,.cls-59,.cls-62,.cls-72,.cls-74{stroke-miterlimit:10;}.cls-21,.cls-24,.cls-3,.cls-32,.cls-6,.cls-66,.cls-75{font-size:10px;}.cls-10,.cls-21,.cls-24,.cls-26,.cls-29,.cls-3,.cls-32,.cls-46,.cls-49,.cls-54,.cls-58,.cls-6,.cls-63,.cls-66,.cls-67,.cls-7,.cls-75{font-family:OpenSans-Semibold, Open Sans;font-weight:600;}.cls-4,.cls-6{letter-spacing:0.04em;}.cls-33,.cls-5,.cls-75{letter-spacing:0.04em;}.cls-7{font-size:10.17px;}.cls-8{letter-spacing:0.04em;}.cls-9{letter-spacing:0.04em;}.cls-10,.cls-58{font-size:15px;}.cls-11{letter-spacing:0.04em;}.cls-12{letter-spacing:0.04em;}.cls-13{letter-spacing:0.04em;}.cls-14{letter-spacing:0.04em;}.cls-15{letter-spacing:-0.21em;}.cls-16{letter-spacing:2.7em;}.cls-17{letter-spacing:2.72em;}.cls-18{letter-spacing:0.39em;}.cls-19{letter-spacing:0.02em;}.cls-20,.cls-66{letter-spacing:0.04em;}.cls-21,.cls-29,.cls-32,.cls-33,.cls-34{text-decoration:underline;}.cls-22,.cls-42,.cls-72{stroke:#f97e3a;}.cls-22,.cls-43{stroke-width:2px;}.cls-23{fill:#3d3d3d;}.cls-24,.cls-32,.cls-46,.cls-49,.cls-54,.cls-58,.cls-75{fill:#2b2b2b;}.cls-25{fill:#ccc;}.cls-26,.cls-29{font-size:8px;}.cls-27{letter-spacing:0.04em;}.cls-28{letter-spacing:0.04em;}.cls-30{fill:#f97e3a;}.cls-31{letter-spacing:0.04em;}.cls-35{letter-spacing:0.04em;}.cls-36{letter-spacing:0.04em;}.cls-37{letter-spacing:0.04em;}.cls-38{letter-spacing:-0.23em;}.cls-39{letter-spacing:2.7em;}.cls-40{letter-spacing:2.65em;}.cls-41{letter-spacing:-0.02em;}.cls-42{stroke-width:1.95px;}.cls-43,.cls-62{stroke:#38add6;}.cls-44,.cls-62{fill:#38add6;}.cls-45{font-size:4.13px;font-family:OpenSans, Open Sans;}.cls-46{font-size:11.11px;}.cls-47{letter-spacing:0.04em;}.cls-48{letter-spacing:0.04em;}.cls-49{font-size:11.11px;letter-spacing:0.04em;}.cls-50{letter-spacing:0.04em;}.cls-51{letter-spacing:0.04em;}.cls-52{letter-spacing:0.04em;}.cls-53{letter-spacing:0em;}.cls-54{font-size:14.42px;}.cls-55{letter-spacing:0.04em;}.cls-56{letter-spacing:0.04em;}.cls-57{letter-spacing:0.04em;}.cls-59,.cls-74{stroke:#757575;}.cls-59{stroke-width:0.61px;}.cls-60{fill:#f4f4f4;}.cls-61{letter-spacing:0.04em;}.cls-63{font-size:12px;}.cls-64{letter-spacing:0.04em;}.cls-65{letter-spacing:0.04em;}.cls-67{font-size:13px;}.cls-68{letter-spacing:0.04em;}.cls-69{letter-spacing:0.04em;}.cls-70{letter-spacing:0.04em;}.cls-71{letter-spacing:0.04em;}.cls-72{stroke-width:2.02px;}.cls-73{font-size:20px;fill:#4c4c4c;font-family:Roboto-Regular, Roboto;letter-spacing:0.02em;}</style></defs><g id="Layer_2" data-name="Layer 2"><g id="Layer_1-2" data-name="Layer 1"><rect class="cls-1" x="3.13" y="4.9" width="362.41" height="586.46" rx="11.61"/><path d="M353.92,5.16a11.37,11.37,0,0,1,11.35,11.36V579.75a11.37,11.37,0,0,1-11.35,11.36H14.74A11.38,11.38,0,0,1,3.38,579.75V16.52A11.38,11.38,0,0,1,14.74,5.16H353.92m0-.51H14.74A11.86,11.86,0,0,0,2.87,16.52V579.75a11.86,11.86,0,0,0,11.87,11.87H353.92a11.87,11.87,0,0,0,11.87-11.87V16.52A11.87,11.87,0,0,0,353.92,4.65"/><line class="cls-2" x1="2.61" y1="35.88" x2="364.5" y2="35.88"/><line class="cls-2" x1="3.9" y1="179.4" x2="365.79" y2="179.4"/><line class="cls-2" x1="3.9" y1="299.17" x2="365.79" y2="299.17"/><rect class="cls-1" x="312.36" y="14.2" width="35.62" height="13.94" rx="4"/><text class="cls-3" transform="translate(25.5 24.06)"><tspan class="cls-4">My B</tspan><tspan class="cls-5" x="25.39" y="0">ra</tspan><tspan class="cls-4" x="36.28" y="0">in </tspan><tspan class="cls-5" x="49.21" y="0">a</tspan><tspan class="cls-4" x="55.41" y="0">nd M</tspan><tspan x="81.41" y="0">e</tspan></text><text class="cls-6" transform="translate(174.09 24.58)">Ab<tspan class="cls-5" x="13.64" y="0">o</tspan><tspan x="20.14" y="0">u</tspan><tspan class="cls-5" x="26.89" y="0" xml:space="preserve">t     Media     Team</tspan></text><path d="M343.46,14.45a4,4,0,0,1,4.2,3.74v5.95a4,4,0,0,1-4.2,3.74h-31a4,4,0,0,1-4.2-3.74V18.19a4,4,0,0,1,4.2-3.74h31m0-.51h-31a4.54,4.54,0,0,0-4.78,4.25v5.95a4.54,4.54,0,0,0,4.78,4.25h31a4.54,4.54,0,0,0,4.78-4.25V18.19a4.54,4.54,0,0,0-4.78-4.25"/><text class="cls-3" transform="translate(314.8 24.03)"><tspan class="cls-5">L</tspan><tspan class="cls-4" x="5.81" y="0">ogi</tspan><tspan x="21.47" y="0">n</tspan></text><rect class="cls-1" x="159.03" y="99.89" width="38.72" height="13.94" rx="4"/><path d="M203.84,95.21c3.37,0,6.11,2.28,6.11,5.07v8c0,2.79-2.74,5.06-6.11,5.06H153.59c-3.37,0-6.12-2.27-6.12-5.06v-8c0-2.79,2.75-5.07,6.12-5.07h50.25m0-.7H153.59c-3.84,0-7,2.58-7,5.77v8c0,3.18,3.12,5.76,7,5.76h50.25c3.84,0,7-2.58,7-5.76v-8c0-3.19-3.12-5.77-7-5.77"/><text class="cls-7" transform="translate(157.28 107.27)"><tspan class="cls-8">Re</tspan><tspan class="cls-9" x="13.16" y="0">gi</tspan><tspan class="cls-8" x="22.47" y="0">ste</tspan><tspan x="38.47" y="0">r</tspan></text><text class="cls-10" transform="translate(125.63 240.89)"><tspan class="cls-11">Ab</tspan><tspan class="cls-12" x="20.46" y="0">o</tspan><tspan class="cls-13" x="30.21" y="0">u</tspan><tspan class="cls-14" x="40.33" y="0">t</tspan><tspan class="cls-13" x="46.81" y="0" xml:space="preserve"> S</tspan><tspan class="cls-12" x="60.16" y="0">ect</tspan><tspan class="cls-11" x="83.88" y="0">io</tspan><tspan x="98.42" y="0">n</tspan></text><line class="cls-2" x1="2.35" y1="414.81" x2="364.24" y2="414.81"/><text class="cls-10" transform="translate(125.63 355.69)"><tspan class="cls-11">M</tspan><tspan class="cls-12" x="14.44" y="0">e</tspan><tspan class="cls-11" x="23.67" y="0">di</tspan><tspan class="cls-14" x="38.4" y="0">a</tspan><tspan class="cls-13" x="47.68" y="0" xml:space="preserve"> S</tspan><tspan class="cls-12" x="61.03" y="0">ect</tspan><tspan class="cls-11" x="84.75" y="0">i</tspan><tspan class="cls-12" x="89.53" y="0">o</tspan><tspan x="99.28" y="0">n</tspan></text><line class="cls-2" x1="2.87" y1="528.38" x2="364.76" y2="528.38"/><text class="cls-10" transform="translate(126.14 474.1)"><tspan class="cls-12">Team</tspan><tspan class="cls-11" x="42.51" y="0" xml:space="preserve"> S</tspan><tspan class="cls-12" x="55.86" y="0">ect</tspan><tspan class="cls-11" x="79.58" y="0">i</tspan><tspan class="cls-12" x="84.36" y="0">o</tspan><tspan x="94.11" y="0">n</tspan></text><text class="cls-3" transform="translate(45 560.45)"><tspan class="cls-4">H</tspan><tspan class="cls-5" x="7.91" y="0">ome</tspan><tspan class="cls-15" x="30.51" y="0"> </tspan><tspan class="cls-16" x="30.99" y="0"> </tspan><tspan class="cls-4" x="60.59" y="0">Abou</tspan><tspan class="cls-5" x="87.48" y="0">t</tspan><tspan class="cls-17" x="91.8" y="0"> </tspan><tspan class="cls-5" x="121.63" y="0">F</tspan><tspan class="cls-4" x="127.34" y="0">A</tspan><tspan x="134.36" y="0">Q</tspan><tspan class="cls-18" x="142.23" y="0">	</tspan><tspan x="148.68" y="0" xml:space="preserve">      Contact</tspan><tspan class="cls-19" x="201.67" y="0">	</tspan><tspan x="204.43" y="0" xml:space="preserve">        Social Media</tspan></text><text class="cls-3" transform="translate(89.6 132.11)"><tspan class="cls-4">Al</tspan><tspan class="cls-5" x="10.2" y="0">rea</tspan><tspan class="cls-4" x="27.24" y="0">dy h</tspan><tspan class="cls-5" x="49.38" y="0">a</tspan><tspan class="cls-4" x="55.57" y="0">v</tspan><tspan class="cls-5" x="61.32" y="0">e</tspan><tspan class="cls-4" x="67.47" y="0"> </tspan><tspan class="cls-5" x="70.47" y="0">a</tspan><tspan class="cls-4" x="76.66" y="0">n </tspan><tspan class="cls-5" x="86.41" y="0">acc</tspan><tspan class="cls-20" x="103.28" y="0">oun</tspan><tspan class="cls-5" x="123.29" y="0">t?</tspan><tspan x="132.53" y="0"> </tspan></text><text class="cls-21" transform="translate(227.99 132.11)"><tspan class="cls-5">L</tspan><tspan class="cls-4" x="5.81" y="0">ogi</tspan><tspan x="21.47" y="0">n</tspan></text><rect class="cls-1" x="472.4" y="4.39" width="362.41" height="262.25" rx="11.61"/><path d="M823.19,4.65A11.36,11.36,0,0,1,834.54,16V255a11.36,11.36,0,0,1-11.35,11.35H484A11.37,11.37,0,0,1,472.65,255V16A11.37,11.37,0,0,1,484,4.65H823.19m0-.52H484A11.87,11.87,0,0,0,472.14,16V255A11.86,11.86,0,0,0,484,266.9H823.19A11.86,11.86,0,0,0,835.06,255V16A11.87,11.87,0,0,0,823.19,4.13"/><line class="cls-2" x1="473.49" y1="35.36" x2="835.38" y2="35.36"/><rect class="cls-1" x="781.63" y="13.68" width="35.62" height="13.94" rx="4"/><path d="M737.31,84.93a4.41,4.41,0,0,1,4.57,4.21V232.32a4.41,4.41,0,0,1-4.57,4.21H571.56a4.41,4.41,0,0,1-4.57-4.21V89.14a4.41,4.41,0,0,1,4.57-4.21H737.31m0-.58H571.56a5,5,0,0,0-5.2,4.79V232.32a5,5,0,0,0,5.2,4.79H737.31a5,5,0,0,0,5.2-4.79V89.14a5,5,0,0,0-5.2-4.79"/><line class="cls-22" x1="703.16" y1="184.9" x2="886.62" y2="185.76"/><path class="cls-23" d="M728.7,95a2.79,2.79,0,0,1,2.76,2.82V111.4a2.8,2.8,0,0,1-2.76,2.82H583.5a2.8,2.8,0,0,1-2.76-2.82V97.79A2.79,2.79,0,0,1,583.5,95H728.7m0-.36H583.5a3.14,3.14,0,0,0-3.11,3.18V111.4a3.15,3.15,0,0,0,3.11,3.18H728.7a3.15,3.15,0,0,0,3.11-3.18V97.79a3.14,3.14,0,0,0-3.11-3.18"/><text class="cls-24" transform="translate(588.09 107.86)"><tspan class="cls-5">Ema</tspan><tspan class="cls-4" x="22.11" y="0">i</tspan><tspan x="25.3" y="0">l</tspan></text><path class="cls-25" d="M583.32,196.25a3,3,0,0,1-2.93-3V179.68a3,3,0,0,1,2.93-3H728.18a3,3,0,0,1,2.93,3v13.57a3,3,0,0,1-2.93,3Z"/><path class="cls-23" d="M728.36,176.92a2.79,2.79,0,0,1,2.75,2.83v13.66a2.79,2.79,0,0,1-2.75,2.84H583.49a2.8,2.8,0,0,1-2.75-2.84V179.75a2.8,2.8,0,0,1,2.75-2.83H728.36m0-.36H583.49a3.15,3.15,0,0,0-3.1,3.19v13.66a3.15,3.15,0,0,0,3.1,3.2H728.36a3.15,3.15,0,0,0,3.1-3.2V179.75a3.15,3.15,0,0,0-3.1-3.19"/><text class="cls-24" transform="translate(625.22 190.16)"><tspan class="cls-5">Re</tspan><tspan class="cls-20" x="12.93" y="0">gi</tspan><tspan class="cls-5" x="22.08" y="0">ste</tspan><tspan x="37.81" y="0">r</tspan></text><text class="cls-24" transform="translate(581.83 73.27)"><tspan class="cls-5">Re</tspan><tspan class="cls-20" x="12.93" y="0">gi</tspan><tspan class="cls-5" x="22.08" y="0">ste</tspan><tspan x="37.81" y="0">r</tspan></text><text class="cls-26" transform="translate(580.74 215.27)"><tspan class="cls-27">Al</tspan><tspan class="cls-28" x="8.16" y="0">rea</tspan><tspan class="cls-27" x="21.79" y="0">dy h</tspan><tspan class="cls-28" x="39.5" y="0">a</tspan><tspan class="cls-27" x="44.46" y="0">v</tspan><tspan class="cls-28" x="49.06" y="0">e</tspan><tspan class="cls-20" x="53.98" y="0"> </tspan><tspan class="cls-28" x="56.38" y="0">a</tspan><tspan class="cls-27" x="61.33" y="0">n </tspan><tspan class="cls-28" x="69.13" y="0">acco</tspan><tspan class="cls-20" x="87.82" y="0">un</tspan><tspan class="cls-28" x="98.62" y="0">t?</tspan><tspan x="106.01" y="0"> </tspan></text><text class="cls-29" transform="translate(691.36 215.27)"><tspan class="cls-28">Lo</tspan><tspan class="cls-27" x="9.85" y="0">gi</tspan><tspan x="17.17" y="0">n</tspan></text><rect class="cls-1" x="894.17" y="5.42" width="362.41" height="261.22" rx="11.61"/><path d="M1245,5.68A11.37,11.37,0,0,1,1256.32,17V255A11.36,11.36,0,0,1,1245,266.38H905.79A11.36,11.36,0,0,1,894.43,255V17A11.37,11.37,0,0,1,905.79,5.68H1245m0-.52H905.79A11.88,11.88,0,0,0,893.91,17V255a11.87,11.87,0,0,0,11.88,11.87H1245A11.87,11.87,0,0,0,1256.84,255V17A11.88,11.88,0,0,0,1245,5.16"/><line class="cls-22" x1="1125.55" y1="229.05" x2="1341.92" y2="229.86"/><polygon class="cls-30" points="1349.21 229.89 1338.92 234.04 1341.38 229.86 1338.96 225.65 1349.21 229.89"/><line class="cls-2" x1="894.01" y1="36.4" x2="1255.9" y2="36.4"/><rect class="cls-1" x="1203.41" y="14.71" width="35.62" height="13.94" rx="4"/><path class="cls-25" d="M1102.07,237.26a2.33,2.33,0,0,1-2.17-2.46V223.61a2.33,2.33,0,0,1,2.17-2.46h45a2.33,2.33,0,0,1,2.17,2.46V234.8a2.33,2.33,0,0,1-2.17,2.46Z"/><path class="cls-23" d="M1147,221.31a2.2,2.2,0,0,1,2,2.34v11.28a2.2,2.2,0,0,1-2,2.33h-45a2.2,2.2,0,0,1-2-2.33V223.65a2.21,2.21,0,0,1,2-2.34h45m0-.29h-45a2.48,2.48,0,0,0-2.3,2.63v11.28a2.48,2.48,0,0,0,2.3,2.63h45a2.48,2.48,0,0,0,2.3-2.63V223.65A2.48,2.48,0,0,0,1147,221"/><text class="cls-24" transform="translate(1107.92 232.15)"><tspan class="cls-20">C</tspan><tspan class="cls-31" x="6.74" y="0">reat</tspan><tspan x="28.1" y="0">e</tspan></text><text class="cls-32" transform="translate(1001.3 233.15)"><tspan class="cls-20">Ski</tspan><tspan x="15.2" y="0">p</tspan></text><rect class="cls-1" x="472.4" y="323.43" width="362.41" height="267.93" rx="11.61"/><path d="M823.19,323.69A11.36,11.36,0,0,1,834.54,335V579.75a11.37,11.37,0,0,1-11.35,11.36H484a11.38,11.38,0,0,1-11.36-11.36V335A11.37,11.37,0,0,1,484,323.69H823.19m0-.52H484A11.87,11.87,0,0,0,472.14,335V579.75A11.86,11.86,0,0,0,484,591.62H823.19a11.86,11.86,0,0,0,11.87-11.87V335a11.87,11.87,0,0,0-11.87-11.87"/><line class="cls-2" x1="473.62" y1="354.41" x2="835.51" y2="354.41"/><rect class="cls-1" x="781.63" y="332.72" width="35.62" height="13.94" rx="4"/><rect class="cls-1" x="601.62" y="446.59" width="111.77" height="14.2" rx="2.17"/><rect class="cls-1" x="639.82" y="492.54" width="3.06" height="2.84" rx="0.65"/><path class="cls-23" d="M665.71,493.27a1.44,1.44,0,0,1,1.44,1.43V499a1.45,1.45,0,0,1-1.44,1.44h-4.87a1.44,1.44,0,0,1-1.43-1.44V494.7a1.43,1.43,0,0,1,1.43-1.43h4.87m0-.71h-4.87a2.15,2.15,0,0,0-2.15,2.14V499a2.15,2.15,0,0,0,2.15,2.15h4.87a2.15,2.15,0,0,0,2.15-2.15V494.7a2.14,2.14,0,0,0-2.15-2.14"/><text class="cls-3" transform="translate(580 499.87)"><tspan class="cls-5">Remem</tspan><tspan class="cls-4" x="38.99" y="0">b</tspan><tspan class="cls-5" x="45.62" y="0">er</tspan><tspan class="cls-4" x="56.47" y="0"> </tspan><tspan class="cls-5" x="59.47" y="0">m</tspan><tspan x="69.42" y="0">e</tspan></text><text class="cls-3" transform="translate(580 524.1)"><tspan class="cls-4">N</tspan><tspan class="cls-5" x="8.23" y="0">e</tspan><tspan class="cls-4" x="14.38" y="0">w </tspan><tspan class="cls-5" x="25.95" y="0" xml:space="preserve">User?   </tspan><tspan class="cls-33" x="63.76" y="0">Register</tspan><tspan class="cls-34" x="106.25" y="0"> </tspan></text><text/><text class="cls-21" transform="translate(580.1 541.3)"><tspan class="cls-5">For</tspan><tspan class="cls-4" x="16.91" y="0">g</tspan><tspan class="cls-5" x="22.87" y="0">ot</tspan><tspan class="cls-4" x="33.69" y="0"> </tspan><tspan class="cls-5" x="36.69" y="0">Pass</tspan><tspan class="cls-4" x="59.94" y="0">w</tspan><tspan class="cls-5" x="68.51" y="0">or</tspan><tspan class="cls-4" x="79.71" y="0">d</tspan><tspan x="86.34" y="0">?</tspan></text><path d="M1245.48,323.17a11.38,11.38,0,0,1,11.36,11.36v244.7a11.38,11.38,0,0,1-11.36,11.36H906.3A11.37,11.37,0,0,1,895,579.23V334.53a11.37,11.37,0,0,1,11.35-11.36h339.18m0-.51H906.3a11.87,11.87,0,0,0-11.87,11.87v244.7a11.88,11.88,0,0,0,11.87,11.88h339.18a11.87,11.87,0,0,0,11.87-11.88V334.53a11.86,11.86,0,0,0-11.87-11.87"/><line class="cls-2" x1="894.37" y1="353.89" x2="1256.26" y2="353.89"/><text class="cls-26" transform="translate(917.06 342.08)"><tspan class="cls-20">My B</tspan><tspan class="cls-35" x="20.31" y="0">ra</tspan><tspan class="cls-36" x="29.03" y="0">in </tspan><tspan class="cls-35" x="39.37" y="0">a</tspan><tspan class="cls-20" x="44.32" y="0">nd M</tspan><tspan x="65.13" y="0">e</tspan></text><text class="cls-26" transform="translate(1023.84 341.56)"><tspan class="cls-20">Ab</tspan><tspan class="cls-37" x="10.91" y="0">o</tspan><tspan class="cls-20" x="16.11" y="0">u</tspan><tspan class="cls-35" x="21.51" y="0">t</tspan><tspan class="cls-38" x="24.97" y="0"> </tspan><tspan class="cls-39" x="25.17" y="0"> </tspan><tspan class="cls-20" x="48.84" y="0">M</tspan><tspan class="cls-35" x="56.55" y="0">e</tspan><tspan class="cls-20" x="61.47" y="0">di</tspan><tspan class="cls-35" x="69.32" y="0">a</tspan><tspan class="cls-40" x="74.27" y="0"> </tspan><tspan class="cls-35" x="97.58" y="0">Team</tspan><tspan class="cls-41" x="120.26" y="0"> </tspan><tspan x="122.18" y="0"> </tspan></text><text class="cls-26" transform="translate(1163.96 342.08)"><tspan class="cls-35">Jo</tspan><tspan class="cls-20" x="7.9" y="0">hn@g</tspan><tspan class="cls-35" x="30.97" y="0">ma</tspan><tspan class="cls-36" x="43.88" y="0">il</tspan><tspan class="cls-37" x="48.98" y="0">.co</tspan><tspan x="60.97" y="0">m</tspan></text><line class="cls-1" x1="198.27" y1="106.09" x2="472.14" y2="107.38"/><line class="cls-22" x1="209.27" y1="106.09" x2="464.85" y2="107.35"/><polygon class="cls-30" points="472.14 107.38 461.85 111.53 464.3 107.34 461.89 103.14 472.14 107.38"/><line class="cls-1" x1="703.16" y1="182.9" x2="893.91" y2="183.79"/><polygon class="cls-30" points="893.91 185.79 883.62 189.94 886.08 185.76 883.66 181.55 893.91 185.79"/><line class="cls-1" x1="1144.55" y1="145.05" x2="1348.21" y2="145.89"/><line class="cls-1" x1="1109.96" y1="446.33" x2="1354.41" y2="447.32"/><line class="cls-42" x1="1130.08" y1="446.33" x2="1347.12" y2="447.29"/><polygon class="cls-30" points="1354.41 447.32 1344.12 451.48 1346.57 447.29 1344.15 443.08 1354.41 447.32"/><path class="cls-43" d="M258.27,129.71c9.2.3,140.3,0,140.3,0V433.78h66"/><polygon class="cls-44" points="471.88 433.78 461.61 437.98 464.05 433.78 461.61 429.58 471.88 433.78"/><polyline class="cls-43" points="347.98 20.39 398.57 20.39 398.57 143.52"/><text class="cls-24" transform="translate(999.25 56.72)"><tspan class="cls-20">C</tspan><tspan class="cls-31" x="6.74" y="0">reate</tspan><tspan class="cls-20" x="34.25" y="0"> </tspan><tspan class="cls-31" x="37.25" y="0">Pro</tspan><tspan class="cls-20" x="54.99" y="0">ﬁl</tspan><tspan x="65" y="0">e</tspan></text><rect class="cls-1" x="1354.67" y="320.33" width="362.41" height="261.22" rx="11.61"/><path d="M1705.46,320.59A11.38,11.38,0,0,1,1716.82,332v238a11.38,11.38,0,0,1-11.36,11.36H1366.28a11.38,11.38,0,0,1-11.36-11.36V332a11.38,11.38,0,0,1,11.36-11.36h339.18m0-.52H1366.28A11.87,11.87,0,0,0,1354.41,332v238a11.86,11.86,0,0,0,11.87,11.87h339.18a11.86,11.86,0,0,0,11.87-11.87V332a11.87,11.87,0,0,0-11.87-11.88"/><line class="cls-2" x1="1354.15" y1="351.31" x2="1716.04" y2="351.31"/><rect class="cls-1" x="1460.5" y="399.84" width="143.52" height="145.58" rx="4"/><path d="M1600,400.09a3.75,3.75,0,0,1,3.74,3.74V541.42a3.75,3.75,0,0,1-3.74,3.74H1464.49a3.74,3.74,0,0,1-3.73-3.74V403.83a3.74,3.74,0,0,1,3.73-3.74H1600m0-.51H1464.49a4.25,4.25,0,0,0-4.25,4.25V541.42a4.25,4.25,0,0,0,4.25,4.26H1600a4.25,4.25,0,0,0,4.25-4.26V403.83a4.25,4.25,0,0,0-4.25-4.25"/><path class="cls-25" d="M1544.85,527.48a2.54,2.54,0,0,1-2.4-2.64v-12a2.54,2.54,0,0,1,2.4-2.64h42.79a2.54,2.54,0,0,1,2.4,2.64v12a2.54,2.54,0,0,1-2.4,2.64Z"/><path class="cls-23" d="M1587.77,510.22a2.41,2.41,0,0,1,2.27,2.51v12.06a2.4,2.4,0,0,1-2.27,2.5h-42.9a2.39,2.39,0,0,1-2.26-2.5V512.73a2.4,2.4,0,0,1,2.26-2.51h42.9m0-.31h-42.9a2.69,2.69,0,0,0-2.55,2.82v12.06a2.69,2.69,0,0,0,2.55,2.82h42.9a2.69,2.69,0,0,0,2.55-2.82V512.73a2.69,2.69,0,0,0-2.55-2.82"/><text class="cls-24" transform="translate(1549.2 521.64)"><tspan class="cls-20">Sub</tspan><tspan class="cls-31" x="19.28" y="0">m</tspan><tspan class="cls-20" x="29.23" y="0">i</tspan><tspan x="32.42" y="0">t</tspan></text><text class="cls-32" transform="translate(1473.94 520.73)"><tspan class="cls-20">B</tspan><tspan class="cls-31" x="7" y="0">ac</tspan><tspan x="18.53" y="0">k</tspan></text><text class="cls-24" transform="translate(1473.58 390.09)"><tspan class="cls-20">C</tspan><tspan class="cls-31" x="6.74" y="0">o</tspan><tspan class="cls-20" x="13.24" y="0">n</tspan><tspan class="cls-31" x="19.98" y="0">se</tspan><tspan class="cls-20" x="31.39" y="0">n</tspan><tspan x="38.14" y="0">t</tspan></text><rect class="cls-1" x="1477.92" y="491.08" width="3.06" height="2.84" rx="0.65"/><path class="cls-23" d="M1480.91,486.73a1.47,1.47,0,0,1,1.47,1.47v4.36a1.47,1.47,0,0,1-1.47,1.47h-5a1.47,1.47,0,0,1-1.47-1.47V488.2a1.47,1.47,0,0,1,1.47-1.47h5m0-.73h-5a2.2,2.2,0,0,0-2.2,2.2v4.36a2.2,2.2,0,0,0,2.2,2.2h5a2.2,2.2,0,0,0,2.2-2.2V488.2a2.2,2.2,0,0,0-2.2-2.2"/><text class="cls-3" transform="translate(1487.42 493.85)"><tspan class="cls-20">Ag</tspan><tspan class="cls-37" x="12.97" y="0">re</tspan><tspan x="23.83" y="0">e</tspan></text><text class="cls-45" transform="translate(1473.29 413.83)">Lorem ipsum dolor sit amet, consectetuer adipiscing elit, sed </text><text class="cls-45" transform="translate(1473.29 420.44)">diam nonummy nibh euismod tincidunt ut laoreet dolore </text><text class="cls-45" transform="translate(1473.29 427.05)">magna aliquam erat volutpat. Ut wisi enim ad minim veniam, </text><text class="cls-45" transform="translate(1473.29 433.65)">quis nostrud exerci tation ullamcorper suscipit lobortis nisl ut </text><text class="cls-45" transform="translate(1473.29 440.26)">aliquip ex ea commodo consequat. Duis autem vel eum iriure </text><text class="cls-45" transform="translate(1473.29 446.87)">dolor in hendrerit in vulputate velit esse molestie consequat, </text><text class="cls-45" transform="translate(1473.29 453.47)">vel illum dolore eu feugiat nulla facilisis at vero eros et </text><text class="cls-45" transform="translate(1473.29 460.08)">accumsan et iusto odio dignissim qui blandit praesent </text><text class="cls-45" transform="translate(1473.29 466.69)">luptatum zzril delenit augue duis dolore </text><rect class="cls-1" x="887.77" y="666.48" width="362.41" height="261.22" rx="11.61"/><path d="M1238.56,666.74a11.37,11.37,0,0,1,11.36,11.35v238a11.37,11.37,0,0,1-11.36,11.35H899.38A11.37,11.37,0,0,1,888,916.09v-238a11.37,11.37,0,0,1,11.36-11.35h339.18m0-.52H899.38a11.87,11.87,0,0,0-11.87,11.87v238A11.87,11.87,0,0,0,899.38,928h339.18a11.87,11.87,0,0,0,11.87-11.87v-238a11.87,11.87,0,0,0-11.87-11.87"/><line class="cls-2" x1="888.34" y1="697.45" x2="1250.23" y2="697.45"/><path class="cls-23" d="M1134.75,764.44a3.5,3.5,0,0,1,3.5,3.5v16.88a3.5,3.5,0,0,1-3.5,3.5H1003.82a3.5,3.5,0,0,1-3.5-3.5V767.94a3.5,3.5,0,0,1,3.5-3.5h130.93m0-.44H1003.82a4,4,0,0,0-4,3.94v16.88a4,4,0,0,0,4,3.94h130.93a3.94,3.94,0,0,0,3.94-3.94V767.94a3.94,3.94,0,0,0-3.94-3.94"/><text class="cls-46" transform="translate(1012.58 779.07)"><tspan class="cls-47">B</tspan><tspan class="cls-48" x="7.78" y="0">ro</tspan><tspan class="cls-47" x="20.23" y="0">w</tspan><tspan class="cls-48" x="29.75" y="0">se</tspan><tspan class="cls-47" x="42.43" y="0"> </tspan><tspan class="cls-48" x="45.76" y="0">D</tspan><tspan class="cls-47" x="54.35" y="0">ICOM </tspan><tspan class="cls-48" x="88.9" y="0">F</tspan><tspan class="cls-47" x="95.25" y="0">il</tspan><tspan class="cls-48" x="102.34" y="0">e</tspan><tspan x="109.17" y="0">s</tspan></text><path class="cls-23" d="M1134.76,797.52a3.35,3.35,0,0,1,3.5,3.17V816a3.35,3.35,0,0,1-3.5,3.17h-131a3.35,3.35,0,0,1-3.5-3.17V800.69a3.35,3.35,0,0,1,3.5-3.17h131m0-.4h-131a3.77,3.77,0,0,0-3.94,3.57V816a3.77,3.77,0,0,0,3.94,3.57h131a3.77,3.77,0,0,0,3.94-3.57V800.69a3.77,3.77,0,0,0-3.94-3.57"/><text class="cls-49" transform="translate(1017.2 811.14)">B<tspan class="cls-50" x="7.78" y="0">ro</tspan><tspan x="20.23" y="0">w</tspan><tspan class="cls-51" x="29.75" y="0">se</tspan><tspan x="42.43" y="0" xml:space="preserve"> NI</tspan><tspan class="cls-52" x="58.74" y="0">FT</tspan><tspan x="71.81" y="0">I </tspan><tspan class="cls-50" x="78.98" y="0">F</tspan><tspan x="85.33" y="0">il</tspan><tspan class="cls-50" x="92.41" y="0">e</tspan><tspan class="cls-53" x="99.25" y="0">s</tspan></text><rect class="cls-25" x="1030.43" y="831.29" width="77.72" height="25.6" rx="3.92"/><path class="cls-23" d="M1104.23,831.53a3.68,3.68,0,0,1,3.68,3.68V853a3.69,3.69,0,0,1-3.68,3.69h-69.89a3.69,3.69,0,0,1-3.68-3.69V835.21a3.68,3.68,0,0,1,3.68-3.68h69.89m0-.47h-69.89a4.15,4.15,0,0,0-4.15,4.15V853a4.15,4.15,0,0,0,4.15,4.15h69.89a4.14,4.14,0,0,0,4.14-4.15V835.21a4.14,4.14,0,0,0-4.14-4.15"/><text class="cls-54" transform="translate(1045.05 849.26)"><tspan class="cls-55">U</tspan><tspan class="cls-56" x="11.27" y="0">plo</tspan><tspan class="cls-57" x="34.82" y="0">a</tspan><tspan x="43.75" y="0">d</tspan></text><text class="cls-58" transform="translate(1021.48 749.85)"><tspan class="cls-12">U</tspan><tspan class="cls-13" x="11.72" y="0">plo</tspan><tspan class="cls-12" x="36.21" y="0">a</tspan><tspan class="cls-20" x="45.49" y="0">d S</tspan><tspan class="cls-37" x="68.78" y="0">ca</tspan><tspan x="86.08" y="0">n</tspan></text><rect class="cls-1" x="1351.05" y="663.12" width="362.41" height="267.93" rx="11.61"/><path d="M1701.85,663.38a11.36,11.36,0,0,1,11.35,11.36v244.7a11.37,11.37,0,0,1-11.35,11.36H1362.67a11.37,11.37,0,0,1-11.36-11.36V674.74a11.37,11.37,0,0,1,11.36-11.36h339.18m0-.52H1362.67a11.88,11.88,0,0,0-11.88,11.88v244.7a11.87,11.87,0,0,0,11.88,11.87h339.18a11.87,11.87,0,0,0,11.87-11.87V674.74a11.88,11.88,0,0,0-11.87-11.88"/><line class="cls-2" x1="1350.54" y1="694.1" x2="1712.43" y2="694.1"/><path class="cls-59" d="M1689.47,767.64h-71.31c-3.61,0-6.54-2.33-6.54-5.2V691.29c0-2.87,2.93-5.19,6.54-5.19h71.31c3.62,0,6.55,2.32,6.55,5.19v71.15C1696,765.31,1693.09,767.64,1689.47,767.64Z"/><path class="cls-60" d="M1689.22,767h-70.8c-3.59,0-6.5-2.29-6.5-5.12V691.71c0-2.83,2.91-5.13,6.5-5.13h70.8c3.59,0,6.5,2.3,6.5,5.13v70.17c0,2.83-2.91,5.12-6.5,5.12"/><text class="cls-24" transform="translate(1619.83 740.31)"><tspan class="cls-31">E</tspan><tspan class="cls-20" x="5.97" y="0">di</tspan><tspan class="cls-31" x="15.79" y="0">t</tspan><tspan class="cls-20" x="20.11" y="0"> </tspan><tspan class="cls-31" x="23.11" y="0">Pro</tspan><tspan class="cls-61" x="40.85" y="0">ﬁl</tspan><tspan x="50.86" y="0">e</tspan></text><text class="cls-24" transform="translate(1618.83 703.21)"><tspan class="cls-31">U</tspan><tspan class="cls-20" x="7.81" y="0">pl</tspan><tspan class="cls-31" x="17.63" y="0">oa</tspan><tspan class="cls-20" x="30.32" y="0">d S</tspan><tspan class="cls-31" x="45.85" y="0">ca</tspan><tspan class="cls-61" x="57.38" y="0">n</tspan><tspan x="64.13" y="0">s</tspan></text><text class="cls-24" transform="translate(1618.83 721.09)"><tspan class="cls-31">V</tspan><tspan class="cls-20" x="6.61" y="0">i</tspan><tspan class="cls-31" x="9.8" y="0">e</tspan><tspan class="cls-20" x="15.95" y="0">w S</tspan><tspan class="cls-31" x="33.42" y="0">ca</tspan><tspan class="cls-61" x="44.95" y="0">n</tspan><tspan x="51.69" y="0">s</tspan></text><text class="cls-24" transform="translate(1619.83 757.52)"><tspan class="cls-20">Sign Ou</tspan><tspan x="39.81" y="0">t</tspan></text><line class="cls-43" x1="713.74" y1="465.6" x2="887.14" y2="465.6"/><polygon class="cls-62" points="894.43 465.6 884.16 469.79 886.6 465.6 884.16 461.4 894.43 465.6"/><text class="cls-63" transform="translate(991.52 405.36)"><tspan class="cls-20">W</tspan><tspan class="cls-64" x="11.83" y="0">e</tspan><tspan class="cls-65" x="19.21" y="0">l</tspan><tspan class="cls-37" x="23.04" y="0">come</tspan><tspan class="cls-20" x="56.57" y="0"> </tspan><tspan class="cls-64" x="60.17" y="0">J</tspan><tspan class="cls-65" x="64.22" y="0">ohn@g</tspan><tspan class="cls-64" x="106.63" y="0">ma</tspan><tspan class="cls-20" x="126" y="0">il</tspan><tspan class="cls-64" x="133.65" y="0">.c</tspan><tspan class="cls-65" x="143.83" y="0">o</tspan><tspan class="cls-64" x="151.64" y="0">m,</tspan><tspan x="167.25" y="0"> </tspan></text><text class="cls-63" transform="translate(920.96 422.3)"><tspan class="cls-64">Y</tspan><tspan class="cls-20" x="7.57" y="0">ou </tspan><tspan class="cls-64" x="27.07" y="0">ca</tspan><tspan class="cls-20" x="40.91" y="0">n uplo</tspan><tspan class="cls-37" x="80.3" y="0">a</tspan><tspan class="cls-65" x="87.73" y="0">d y</tspan><tspan class="cls-64" x="106.19" y="0">o</tspan><tspan class="cls-20" x="113.99" y="0">u</tspan><tspan class="cls-64" x="122.09" y="0">r</tspan><tspan class="cls-20" x="127.73" y="0" xml:space="preserve"> b</tspan><tspan class="cls-64" x="139.28" y="0">ra</tspan><tspan class="cls-65" x="152.35" y="0">in </tspan><tspan class="cls-64" x="167.87" y="0">sca</tspan><tspan class="cls-65" x="188.02" y="0">n</tspan><tspan class="cls-37" x="196.12" y="0">s</tspan><tspan class="cls-65" x="202.43" y="0"> </tspan><tspan class="cls-64" x="206.03" y="0">t</tspan><tspan class="cls-20" x="211.21" y="0">o know i</tspan><tspan class="cls-64" x="263.57" y="0">t</tspan><tspan class="cls-65" x="268.76" y="0" xml:space="preserve"> b</tspan><tspan class="cls-64" x="280.31" y="0">ette</tspan><tspan x="305.45" y="0">r</tspan></text><rect class="cls-1" x="1053.69" y="436.49" width="58.34" height="13.94" rx="4"/><text class="cls-3" transform="translate(1282.51 438.26)"><tspan class="cls-20">H</tspan><tspan class="cls-31" x="7.91" y="0">as</tspan><tspan class="cls-20" x="19.36" y="0"> </tspan><tspan class="cls-31" x="22.36" y="0">Pro</tspan><tspan class="cls-20" x="40.1" y="0">ﬁl</tspan><tspan x="50.11" y="0">e</tspan></text><text class="cls-66" transform="translate(1120.03 301.11)">No Profile</text><rect class="cls-1" x="1348.99" y="0.26" width="362.41" height="267.93" rx="11.61"/><path d="M1699.78.52a11.37,11.37,0,0,1,11.36,11.35V256.58a11.37,11.37,0,0,1-11.36,11.35H1360.6a11.36,11.36,0,0,1-11.35-11.35V11.87A11.36,11.36,0,0,1,1360.6.52h339.18m0-.52H1360.6a11.87,11.87,0,0,0-11.87,11.87V256.58a11.87,11.87,0,0,0,11.87,11.87h339.18a11.87,11.87,0,0,0,11.87-11.87V11.87A11.87,11.87,0,0,0,1699.78,0"/><line class="cls-2" x1="1349.78" y1="31.23" x2="1711.67" y2="31.23"/><text class="cls-67" transform="translate(1435.64 108.73)"><tspan class="cls-68">Pro</tspan><tspan class="cls-69" x="23.07" y="0">ﬁl</tspan><tspan class="cls-37" x="36.08" y="0">e</tspan><tspan class="cls-70" x="44.07" y="0" xml:space="preserve"> Su</tspan><tspan class="cls-68" x="64.41" y="0">ccess</tspan><tspan class="cls-70" x="99.97" y="0">fully C</tspan><tspan class="cls-71" x="142.41" y="0">reate</tspan><tspan class="cls-70" x="178.18" y="0">d</tspan><tspan x="186.8" y="0"> </tspan></text><rect class="cls-1" x="1502.83" y="134.48" width="58.34" height="13.94" rx="4"/><path d="M1572.92,125a6.62,6.62,0,0,1,6.82,6.37v10.12a6.61,6.61,0,0,1-6.82,6.36h-91.76a6.61,6.61,0,0,1-6.82-6.36V131.32a6.62,6.62,0,0,1,6.82-6.37h91.76m0-.88h-91.76a7.51,7.51,0,0,0-7.76,7.25v10.12a7.51,7.51,0,0,0,7.76,7.24h91.76a7.51,7.51,0,0,0,7.76-7.24V131.32a7.51,7.51,0,0,0-7.76-7.25"/><text class="cls-63" transform="translate(1487.74 140.32)"><tspan class="cls-64">U</tspan><tspan class="cls-20" x="9.37" y="0">pl</tspan><tspan class="cls-37" x="21.16" y="0">oa</tspan><tspan class="cls-65" x="36.38" y="0">d S</tspan><tspan class="cls-37" x="55.01" y="0">ca</tspan><tspan class="cls-65" x="68.85" y="0">n</tspan><tspan x="76.95" y="0">s</tspan></text><line class="cls-1" x1="1529.42" y1="148.68" x2="1529.42" y2="320.07"/><line class="cls-22" x1="1525.42" y1="148.68" x2="1525.42" y2="312.78"/><polygon class="cls-30" points="1525.42 320.07 1521.22 309.8 1525.42 312.24 1529.61 309.8 1525.42 320.07"/><line class="cls-1" x1="1670.94" y1="346.92" x2="1670.94" y2="662.86"/><line class="cls-72" x1="1670.94" y1="341.56" x2="1670.94" y2="655.57"/><polygon class="cls-30" points="1670.94 662.86 1666.75 652.59 1670.94 655.03 1675.14 652.59 1670.94 662.86"/><polyline class="cls-43" points="1562.49 527.35 1562.49 618.41 1183.96 618.41 1183.96 652.62"/><polygon class="cls-44" points="1183.96 666.74 1175.83 646.84 1183.96 651.56 1192.09 646.84 1183.96 666.74"/><circle class="cls-44" cx="12.46" cy="703.87" r="12.46"/><text class="cls-73" transform="translate(49.4 710.7)">Login user-flow and uploading files</text><circle class="cls-30" cx="13.46" cy="752.37" r="12.46"/><text class="cls-73" transform="translate(48.4 759.02)">Sign up user-flow and uploading files</text><line class="cls-22" x1="1111.8" y1="436.17" x2="1112.3" y2="251.6"/><polygon class="cls-30" points="1112.34 237.47 1120.41 257.39 1112.3 252.65 1104.15 257.35 1112.34 237.47"/><line class="cls-43" x1="1012.05" y1="237.22" x2="1011.74" y2="309.05"/><polygon class="cls-44" points="1011.67 323.17 1003.63 303.24 1011.74 308 1019.89 303.31 1011.67 323.17"/><polyline class="cls-74" points="1236.14 337.75 1239.49 341.11 1242.85 337.75"/><text class="cls-3" transform="translate(494.77 23.55)"><tspan class="cls-4">My B</tspan><tspan class="cls-5" x="25.39" y="0">ra</tspan><tspan class="cls-4" x="36.28" y="0">in </tspan><tspan class="cls-5" x="49.21" y="0">a</tspan><tspan class="cls-4" x="55.41" y="0">nd M</tspan><tspan x="81.41" y="0">e</tspan></text><text class="cls-6" transform="translate(643.37 24.06)">Ab<tspan class="cls-5" x="13.64" y="0">o</tspan><tspan x="20.14" y="0">u</tspan><tspan class="cls-5" x="26.89" y="0" xml:space="preserve">t     Media     Team</tspan></text><path d="M812.73,13.94a4,4,0,0,1,4.2,3.74v5.94a4,4,0,0,1-4.2,3.74h-31a4,4,0,0,1-4.2-3.74V17.68a4,4,0,0,1,4.2-3.74h31m0-.52h-31A4.54,4.54,0,0,0,777,17.68v5.94a4.54,4.54,0,0,0,4.78,4.26h31a4.54,4.54,0,0,0,4.78-4.26V17.68a4.54,4.54,0,0,0-4.78-4.26"/><text class="cls-3" transform="translate(784.07 23.52)"><tspan class="cls-5">L</tspan><tspan class="cls-4" x="5.81" y="0">ogi</tspan><tspan x="21.47" y="0">n</tspan></text><text class="cls-3" transform="translate(917.02 24.58)"><tspan class="cls-4">My B</tspan><tspan class="cls-5" x="25.39" y="0">ra</tspan><tspan class="cls-4" x="36.28" y="0">in </tspan><tspan class="cls-5" x="49.21" y="0">a</tspan><tspan class="cls-4" x="55.41" y="0">nd M</tspan><tspan x="81.41" y="0">e</tspan></text><text class="cls-6" transform="translate(1065.62 25.1)">Ab<tspan class="cls-5" x="13.64" y="0">o</tspan><tspan x="20.14" y="0">u</tspan><tspan class="cls-5" x="26.89" y="0" xml:space="preserve">t     Media     Team</tspan></text><path d="M1235,15a4,4,0,0,1,4.19,3.74v5.94a4,4,0,0,1-4.19,3.74h-31a4,4,0,0,1-4.19-3.74V18.71A4,4,0,0,1,1204,15h31m0-.52h-31a4.54,4.54,0,0,0-4.77,4.26v5.94a4.53,4.53,0,0,0,4.77,4.26h31a4.53,4.53,0,0,0,4.77-4.26V18.71a4.54,4.54,0,0,0-4.77-4.26"/><text class="cls-3" transform="translate(1206.32 24.55)"><tspan class="cls-5">L</tspan><tspan class="cls-4" x="5.81" y="0">ogi</tspan><tspan x="21.47" y="0">n</tspan></text><text class="cls-3" transform="translate(1379.38 339.7)"><tspan class="cls-4">My B</tspan><tspan class="cls-5" x="25.39" y="0">ra</tspan><tspan class="cls-4" x="36.28" y="0">in </tspan><tspan class="cls-5" x="49.21" y="0">a</tspan><tspan class="cls-4" x="55.41" y="0">nd M</tspan><tspan x="81.41" y="0">e</tspan></text><text class="cls-6" transform="translate(1523.97 340.22)">Ab<tspan class="cls-5" x="13.64" y="0">o</tspan><tspan x="20.14" y="0">u</tspan><tspan class="cls-5" x="26.89" y="0" xml:space="preserve">t    Media    Team</tspan></text><text class="cls-3" transform="translate(1650.88 339.7)"><tspan class="cls-31">Jo</tspan><tspan class="cls-61" x="9.88" y="0">hn </tspan><tspan class="cls-31" x="26.37" y="0">Le</tspan><tspan x="38.33" y="0">e</tspan></text><polyline class="cls-2" points="1698.56 335.29 1701.91 338.64 1705.27 335.29"/><text class="cls-3" transform="translate(1369.31 681.66)"><tspan class="cls-4">My B</tspan><tspan class="cls-5" x="25.39" y="0">ra</tspan><tspan class="cls-4" x="36.28" y="0">in </tspan><tspan class="cls-5" x="49.21" y="0">a</tspan><tspan class="cls-4" x="55.41" y="0">nd M</tspan><tspan x="81.41" y="0">e</tspan></text><text class="cls-6" transform="translate(1513.91 682.17)">Ab<tspan class="cls-5" x="13.64" y="0">o</tspan><tspan x="20.14" y="0">u</tspan><tspan class="cls-5" x="26.89" y="0" xml:space="preserve">t    Media    Team</tspan></text><text class="cls-3" transform="translate(1640.82 681.66)"><tspan class="cls-31">Jo</tspan><tspan class="cls-61" x="9.88" y="0">hn </tspan><tspan class="cls-31" x="26.37" y="0">Le</tspan><tspan x="38.33" y="0">e</tspan></text><polyline class="cls-2" points="1688.49 677.24 1691.85 680.6 1695.2 677.24"/><text class="cls-3" transform="translate(906.03 686.58)"><tspan class="cls-4">My B</tspan><tspan class="cls-5" x="25.39" y="0">ra</tspan><tspan class="cls-4" x="36.28" y="0">in </tspan><tspan class="cls-5" x="49.21" y="0">a</tspan><tspan class="cls-4" x="55.41" y="0">nd M</tspan><tspan x="81.41" y="0">e</tspan></text><text class="cls-6" transform="translate(1050.62 687.1)">Ab<tspan class="cls-5" x="13.64" y="0">o</tspan><tspan x="20.14" y="0">u</tspan><tspan class="cls-5" x="26.89" y="0" xml:space="preserve">t    Media    Team</tspan></text><text class="cls-3" transform="translate(1177.53 686.58)"><tspan class="cls-31">Jo</tspan><tspan class="cls-61" x="9.88" y="0">hn </tspan><tspan class="cls-31" x="26.37" y="0">Le</tspan><tspan x="38.33" y="0">e</tspan></text><polyline class="cls-2" points="1225.2 682.17 1228.56 685.53 1231.91 682.17"/><path class="cls-23" d="M728.7,122.26a2.79,2.79,0,0,1,2.76,2.82v13.61a2.79,2.79,0,0,1-2.76,2.82H583.5a2.79,2.79,0,0,1-2.76-2.82V125.08a2.79,2.79,0,0,1,2.76-2.82H728.7m0-.36H583.5a3.14,3.14,0,0,0-3.11,3.18v13.61a3.15,3.15,0,0,0,3.11,3.18H728.7a3.15,3.15,0,0,0,3.11-3.18V125.08a3.14,3.14,0,0,0-3.11-3.18"/><text class="cls-75" transform="translate(588.09 135.15)">Password</text><path class="cls-23" d="M728.7,149.55a2.79,2.79,0,0,1,2.76,2.82V166a2.79,2.79,0,0,1-2.76,2.82H583.5a2.79,2.79,0,0,1-2.76-2.82V152.37a2.79,2.79,0,0,1,2.76-2.82H728.7m0-.36H583.5a3.15,3.15,0,0,0-3.11,3.18V166a3.14,3.14,0,0,0,3.11,3.18H728.7a3.14,3.14,0,0,0,3.11-3.18V152.37a3.15,3.15,0,0,0-3.11-3.18"/><text class="cls-75" transform="translate(588.09 162.44)">Retype password</text><path d="M1157.83,64.54a4.85,4.85,0,0,1,4.57,5.09V242.76a4.85,4.85,0,0,1-4.57,5.09H992.09a4.86,4.86,0,0,1-4.58-5.09V69.63a4.86,4.86,0,0,1,4.58-5.09h165.74m0-.7H992.09a5.52,5.52,0,0,0-5.21,5.79V242.76a5.52,5.52,0,0,0,5.21,5.79h165.74c2.87,0,5.2-2.59,5.2-5.79V69.63c0-3.2-2.33-5.79-5.2-5.79"/><path class="cls-23" d="M1147.56,73.3a2.8,2.8,0,0,1,2.76,2.82V89.73a2.79,2.79,0,0,1-2.76,2.82h-145.2a2.79,2.79,0,0,1-2.76-2.82V76.12a2.8,2.8,0,0,1,2.76-2.82h145.2m0-.36h-145.2a3.15,3.15,0,0,0-3.11,3.18V89.73a3.14,3.14,0,0,0,3.11,3.18h145.2a3.15,3.15,0,0,0,3.11-3.18V76.12a3.15,3.15,0,0,0-3.11-3.18"/><text class="cls-75" transform="translate(1006.94 86.19)">First name</text><path class="cls-23" d="M1147.56,98.29a2.8,2.8,0,0,1,2.76,2.82v13.61a2.79,2.79,0,0,1-2.76,2.82h-145.2a2.79,2.79,0,0,1-2.76-2.82V101.11a2.8,2.8,0,0,1,2.76-2.82h145.2m0-.36h-145.2a3.15,3.15,0,0,0-3.11,3.18v13.61a3.14,3.14,0,0,0,3.11,3.18h145.2a3.15,3.15,0,0,0,3.11-3.18V101.11a3.15,3.15,0,0,0-3.11-3.18"/><text class="cls-75" transform="translate(1006.94 111.18)">Last name</text><path class="cls-23" d="M1147.56,122.69a2.8,2.8,0,0,1,2.76,2.82v13.61a2.79,2.79,0,0,1-2.76,2.82h-145.2a2.79,2.79,0,0,1-2.76-2.82V125.51a2.8,2.8,0,0,1,2.76-2.82h145.2m0-.36h-145.2a3.15,3.15,0,0,0-3.11,3.18v13.61a3.14,3.14,0,0,0,3.11,3.18h145.2a3.15,3.15,0,0,0,3.11-3.18V125.51a3.15,3.15,0,0,0-3.11-3.18"/><text class="cls-75" transform="translate(1006.94 135.58)">Sex</text><path class="cls-23" d="M1147.56,146.53a2.8,2.8,0,0,1,2.76,2.82V163a2.8,2.8,0,0,1-2.76,2.83h-145.2A2.8,2.8,0,0,1,999.6,163V149.35a2.8,2.8,0,0,1,2.76-2.82h145.2m0-.35h-145.2a3.14,3.14,0,0,0-3.11,3.17V163a3.14,3.14,0,0,0,3.11,3.18h145.2a3.15,3.15,0,0,0,3.11-3.18V149.35a3.15,3.15,0,0,0-3.11-3.17"/><text class="cls-75" transform="translate(1006.94 159.42)">Age group</text><path class="cls-23" d="M1146.85,170.7a2.8,2.8,0,0,1,2.77,2.83v13.6a2.8,2.8,0,0,1-2.77,2.83h-145.2a2.8,2.8,0,0,1-2.76-2.83v-13.6a2.8,2.8,0,0,1,2.76-2.83h145.2m0-.35h-145.2a3.15,3.15,0,0,0-3.11,3.18v13.6a3.15,3.15,0,0,0,3.11,3.18h145.2a3.14,3.14,0,0,0,3.11-3.18v-13.6a3.14,3.14,0,0,0-3.11-3.18"/><text class="cls-75" transform="translate(1006.24 183.6)">Date of birth</text><path class="cls-23" d="M1146.85,196a2.8,2.8,0,0,1,2.77,2.82v13.61a2.8,2.8,0,0,1-2.77,2.83h-145.2a2.8,2.8,0,0,1-2.76-2.83V198.84a2.8,2.8,0,0,1,2.76-2.82h145.2m0-.35h-145.2a3.15,3.15,0,0,0-3.11,3.17v13.61a3.15,3.15,0,0,0,3.11,3.18h145.2a3.14,3.14,0,0,0,3.11-3.18V198.84a3.14,3.14,0,0,0-3.11-3.17"/><text class="cls-75" transform="translate(1006.24 208.91)">Phone number (optional)</text><path d="M1122.5,435.87a6.61,6.61,0,0,1,6.82,6.36v10.12a6.62,6.62,0,0,1-6.82,6.37h-91.76a6.62,6.62,0,0,1-6.82-6.37V442.23a6.61,6.61,0,0,1,6.82-6.36h91.76m0-.88h-91.76a7.51,7.51,0,0,0-7.76,7.24v10.12a7.51,7.51,0,0,0,7.76,7.24h91.76a7.51,7.51,0,0,0,7.76-7.24V442.23a7.51,7.51,0,0,0-7.76-7.24"/><text class="cls-63" transform="translate(1037.31 451.23)"><tspan class="cls-64">U</tspan><tspan class="cls-20" x="9.37" y="0">pl</tspan><tspan class="cls-37" x="21.16" y="0">oa</tspan><tspan class="cls-65" x="36.38" y="0">d S</tspan><tspan class="cls-37" x="55.01" y="0">ca</tspan><tspan class="cls-65" x="68.85" y="0">n</tspan><tspan x="76.95" y="0">s</tspan></text><text class="cls-3" transform="translate(493.07 343.12)"><tspan class="cls-4">My B</tspan><tspan class="cls-5" x="25.39" y="0">ra</tspan><tspan class="cls-4" x="36.28" y="0">in </tspan><tspan class="cls-5" x="49.21" y="0">a</tspan><tspan class="cls-4" x="55.41" y="0">nd M</tspan><tspan x="81.41" y="0">e</tspan></text><text class="cls-6" transform="translate(641.66 343.63)">Ab<tspan class="cls-5" x="13.64" y="0">o</tspan><tspan x="20.14" y="0">u</tspan><tspan class="cls-5" x="26.89" y="0" xml:space="preserve">t     Media     Team</tspan></text><path d="M811,333.51a4,4,0,0,1,4.19,3.74v5.94a4,4,0,0,1-4.19,3.74H780a4,4,0,0,1-4.19-3.74v-5.94a4,4,0,0,1,4.19-3.74h31m0-.52H780a4.54,4.54,0,0,0-4.77,4.26v5.94a4.54,4.54,0,0,0,4.77,4.26h31a4.53,4.53,0,0,0,4.77-4.26v-5.94A4.53,4.53,0,0,0,811,333"/><text class="cls-3" transform="translate(782.36 343.08)"><tspan class="cls-5">L</tspan><tspan class="cls-4" x="5.81" y="0">ogi</tspan><tspan x="21.47" y="0">n</tspan></text><path d="M737.44,385.51a4.66,4.66,0,0,1,4.57,4.74v161a4.66,4.66,0,0,1-4.57,4.73H571.7a4.66,4.66,0,0,1-4.58-4.73v-161a4.67,4.67,0,0,1,4.58-4.74H737.44m0-.65H571.7a5.3,5.3,0,0,0-5.21,5.39v161a5.3,5.3,0,0,0,5.21,5.39H737.44a5.3,5.3,0,0,0,5.2-5.39v-161a5.3,5.3,0,0,0-5.2-5.39"/><path class="cls-23" d="M728.35,399.67a2.79,2.79,0,0,1,2.76,2.82V416.1a2.79,2.79,0,0,1-2.76,2.82H583.15a2.79,2.79,0,0,1-2.76-2.82V402.49a2.8,2.8,0,0,1,2.76-2.82h145.2m0-.36H583.15a3.15,3.15,0,0,0-3.11,3.18V416.1a3.15,3.15,0,0,0,3.11,3.18h145.2a3.14,3.14,0,0,0,3.11-3.18V402.49a3.15,3.15,0,0,0-3.11-3.18"/><text class="cls-24" transform="translate(587.74 412.56)"><tspan class="cls-5">Ema</tspan><tspan class="cls-4" x="22.11" y="0">i</tspan><tspan x="25.3" y="0">l</tspan></text><path class="cls-23" d="M728.35,427.8a2.79,2.79,0,0,1,2.76,2.82v13.61a2.79,2.79,0,0,1-2.76,2.82H583.15a2.79,2.79,0,0,1-2.76-2.82V430.62a2.8,2.8,0,0,1,2.76-2.82h145.2m0-.36H583.15a3.15,3.15,0,0,0-3.11,3.18v13.61a3.15,3.15,0,0,0,3.11,3.18h145.2a3.14,3.14,0,0,0,3.11-3.18V430.62a3.15,3.15,0,0,0-3.11-3.18"/><text class="cls-75" transform="translate(587.74 440.69)">Password</text><path class="cls-25" d="M582.93,475.26a3,3,0,0,1-2.93-3V458.69a3,3,0,0,1,2.93-3H727.79a3,3,0,0,1,2.93,3v13.58a3,3,0,0,1-2.93,3Z"/><path class="cls-23" d="M728.18,455.93a2.8,2.8,0,0,1,2.76,2.83v13.67a2.8,2.8,0,0,1-2.76,2.83H583.32a2.79,2.79,0,0,1-2.75-2.83V458.76a2.79,2.79,0,0,1,2.75-2.83H728.18m0-.36H583.32a3.15,3.15,0,0,0-3.1,3.19v13.67a3.15,3.15,0,0,0,3.1,3.19H728.18a3.15,3.15,0,0,0,3.11-3.19V458.76a3.15,3.15,0,0,0-3.11-3.19"/><text class="cls-75" transform="translate(641.27 469.18)">Login</text><text class="cls-3" transform="translate(1368.65 18.61)"><tspan class="cls-4">My B</tspan><tspan class="cls-5" x="25.39" y="0">ra</tspan><tspan class="cls-4" x="36.28" y="0">in </tspan><tspan class="cls-5" x="49.21" y="0">a</tspan><tspan class="cls-4" x="55.41" y="0">nd M</tspan><tspan x="81.41" y="0">e</tspan></text><text class="cls-6" transform="translate(1513.24 19.13)">Ab<tspan class="cls-5" x="13.64" y="0">o</tspan><tspan x="20.14" y="0">u</tspan><tspan class="cls-5" x="26.89" y="0" xml:space="preserve">t    Media    Team</tspan></text><text class="cls-3" transform="translate(1640.16 18.61)"><tspan class="cls-31">Jo</tspan><tspan class="cls-61" x="9.88" y="0">hn </tspan><tspan class="cls-31" x="26.37" y="0">Le</tspan><tspan x="38.33" y="0">e</tspan></text><polyline class="cls-2" points="1687.83 14.2 1691.18 17.55 1694.54 14.2"/></g></g></svg>