<svg xmlns="http://www.w3.org/2000/svg" viewBox="0 0 1449.06 449.12"><defs><style>.cls-1,.cls-14,.cls-15{fill:#221f20;}.cls-1,.cls-16{stroke:#221f20;}.cls-1,.cls-11,.cls-12,.cls-13,.cls-16,.cls-18,.cls-19,.cls-2,.cls-21,.cls-3,.cls-4,.cls-5,.cls-6,.cls-7,.cls-8{stroke-miterlimit:10;}.cls-11,.cls-12,.cls-13,.cls-16,.cls-19,.cls-2,.cls-21,.cls-3,.cls-4,.cls-5,.cls-6,.cls-7,.cls-8{fill:none;}.cls-2{stroke:#000;}.cls-19,.cls-2{stroke-linecap:round;stroke-width:1.3px;}.cls-3,.cls-4,.cls-5,.cls-6,.cls-7{stroke:#666766;}.cls-11,.cls-12,.cls-13,.cls-3,.cls-4,.cls-5,.cls-6,.cls-7,.cls-8{stroke-width:0.2px;}.cls-4{stroke-dasharray:2 2;}.cls-12,.cls-5{stroke-dasharray:1.94 1.94;}.cls-6{stroke-dasharray:2 2;}.cls-7{stroke-dasharray:2 2;}.cls-11,.cls-12,.cls-13,.cls-8{stroke:#262626;}.cls-9{fill:#262626;}.cls-10{font-size:8px;fill:#40403f;font-family:STHeitiSC-Light, Heiti SC;font-weight:300;}.cls-11{stroke-dasharray:2 2;}.cls-13{stroke-dasharray:2 2;}.cls-14,.cls-20{font-size:10.68px;font-family:PingFangSC-Semibold-GBpc-EUC-H, PingFang SC;}.cls-16,.cls-21{stroke-width:0.8px;}.cls-17,.cls-18,.cls-20{fill:#73914c;}.cls-18,.cls-19,.cls-21{stroke:#73914c;}</style></defs><g id="Layer_2" data-name="Layer 2"><g id="Layer_1-2" data-name="Layer 1"><path d="M1185.12,40.58h-3.87V24.75h-15.8V40.58h-3.92V7.19h3.92V20.92h15.8V7.19h3.87Z"/><path d="M1201.28,40.58h-3.87V7.19h3.87Z"/><path d="M1249.6,40.58h-3.82l-3.06-22.72-11.08,22.72h-1.17l-11.21-22.9-3.06,22.9h-3.74l4.69-33.39h.94l13,26.5,12.87-26.5h1Z"/><path d="M1289,40.58h-4.1l-5.09-11.18-6.75-13.9-11.88,25.08h-4.28L1272.48,7.2h1.17Z"/><path d="M1312.27,40.58h-16.34V7.19h3.92v29.6h12.42Z"/><path d="M1348.51,40.58h-4.1l-5.09-11.18-6.75-13.9-11.88,25.08h-4.28L1332,7.2h1.17Z"/><path d="M1377.68,7.19,1367.14,24.7V40.58h-3.78V24.7L1352.65,7.19h4.5l8.06,13.18,8-13.18Z"/><path d="M1413.87,40.58h-4.1l-5.08-11.18-6.75-13.9-11.89,25.08h-4.28L1397.35,7.2h1.17Z"/><polygon class="cls-1" points="1140.43 30.06 1106.71 30.06 1123.44 2.65 1140.43 30.06"/><path class="cls-2" d="M1104.41,35.25l35-.06a5.84,5.84,0,0,1,2.07.34c4.25,1.65,2.19,5-1.43,5.14l-34.49,0c-5.43,0-6.19,4.6-.87,5.31h41.66"/><line class="cls-3" x1="26.24" y1="215.3" x2="27.24" y2="215.3"/><line class="cls-4" x1="29.24" y1="215.3" x2="376.64" y2="215.3"/><line class="cls-3" x1="377.64" y1="215.3" x2="378.64" y2="215.3"/><line class="cls-3" x1="88.78" y1="208.16" x2="88.78" y2="209.16"/><line class="cls-5" x1="88.78" y1="211.1" x2="88.78" y2="268.23"/><line class="cls-3" x1="88.78" y1="269.2" x2="88.78" y2="270.2"/><line class="cls-3" x1="355.78" y1="208.16" x2="355.78" y2="209.16"/><line class="cls-5" x1="355.78" y1="211.1" x2="355.78" y2="268.23"/><line class="cls-3" x1="355.78" y1="269.2" x2="355.78" y2="270.2"/><line class="cls-3" x1="103.22" y1="208.04" x2="103.22" y2="209.04"/><line class="cls-5" x1="103.22" y1="210.97" x2="103.22" y2="268.11"/><line class="cls-3" x1="103.22" y1="269.08" x2="103.22" y2="270.08"/><line class="cls-3" x1="26.24" y1="220.88" x2="27.24" y2="220.88"/><line class="cls-6" x1="29.24" y1="220.88" x2="352.14" y2="220.88"/><line class="cls-3" x1="353.14" y1="220.88" x2="354.14" y2="220.88"/><line class="cls-3" x1="26.24" y1="254.29" x2="27.24" y2="254.29"/><line class="cls-7" x1="29.25" y1="254.29" x2="376.64" y2="254.29"/><line class="cls-3" x1="377.64" y1="254.29" x2="378.64" y2="254.29"/><line class="cls-3" x1="26.23" y1="259.7" x2="27.23" y2="259.7"/><line class="cls-7" x1="29.23" y1="259.7" x2="376.62" y2="259.7"/><line class="cls-3" x1="377.63" y1="259.7" x2="378.63" y2="259.7"/><line class="cls-8" x1="22.66" y1="216.51" x2="22.66" y2="220.1"/><path class="cls-9" d="M22.66,215.3a5.93,5.93,0,0,1-.95,1.71l.95-.34.95.34A5.93,5.93,0,0,1,22.66,215.3Z"/><path class="cls-9" d="M22.66,221.3a6,6,0,0,0-.95-1.7l.95.34.95-.34A6,6,0,0,0,22.66,221.3Z"/><line class="cls-8" x1="89.98" y1="273.86" x2="100.02" y2="273.86"/><path class="cls-9" d="M88.78,273.86a6.2,6.2,0,0,1,1.71.95l-.35-.95.35-.95A6.2,6.2,0,0,1,88.78,273.86Z"/><path class="cls-9" d="M101.22,273.86a6,6,0,0,0-1.7.95l.34-.95-.34-.95A6,6,0,0,0,101.22,273.86Z"/><text class="cls-10" transform="translate(0 221.3)">5.5pt</text><text class="cls-10" transform="translate(86.12 284.75)">14pt</text><line class="cls-8" x1="23.29" y1="255.5" x2="23.29" y2="259.09"/><path class="cls-9" d="M23.29,254.29a6,6,0,0,1-1,1.71l1-.34.95.34A5.93,5.93,0,0,1,23.29,254.29Z"/><path class="cls-9" d="M23.29,260.29a6,6,0,0,0-1-1.7l1,.34.95-.34A6,6,0,0,0,23.29,260.29Z"/><text class="cls-10" transform="translate(0 260.3)">5.5pt</text><path d="M126.81,254.28h-3.87V238.45h-15.8v15.83h-3.92v-33.4h3.92v13.73h15.8V220.88h3.87Z"/><path d="M143,254.28H139.1v-33.4H143Z"/><path d="M191.29,254.28h-3.82l-3.06-22.72-11.08,22.72h-1.17L161,231.37l-3.06,22.91h-3.74l4.69-33.4h.94l13,26.51,12.87-26.51h.95Z"/><path d="M230.69,254.28h-4.1L221.5,243.1l-6.75-13.91-11.88,25.09h-4.28l15.58-33.39h1.17Z"/><path d="M254,254.28H237.62v-33.4h3.92v29.61H254Z"/><path d="M290.2,254.28h-4.1L281,243.1l-6.75-13.91-11.88,25.09H258.1l15.58-33.39h1.17Z"/><path d="M319.37,220.88,308.83,238.4v15.88h-3.78V238.4l-10.71-17.52h4.5l8.06,13.19,8-13.19Z"/><path d="M355.56,254.28h-4.1l-5.08-11.18-6.75-13.91-11.89,25.09h-4.28L339,220.89h1.17Z"/><polygon class="cls-1" points="82.12 243.76 48.41 243.76 65.13 216.34 82.12 243.76"/><path class="cls-2" d="M46.1,249l35-.06a5.84,5.84,0,0,1,2.07.34c4.25,1.65,2.19,5-1.43,5.14l-34.49,0c-5.43,0-6.19,4.6-.87,5.31H88"/><line class="cls-8" x1="1070.45" y1="214.52" x2="1071.45" y2="214.52"/><line class="cls-11" x1="1073.45" y1="214.52" x2="1412.37" y2="214.52"/><line class="cls-8" x1="1413.37" y1="214.52" x2="1414.37" y2="214.52"/><line class="cls-8" x1="1138.59" y1="207.38" x2="1138.59" y2="208.38"/><line class="cls-12" x1="1138.59" y1="210.31" x2="1138.59" y2="267.45"/><line class="cls-8" x1="1138.59" y1="268.41" x2="1138.59" y2="269.41"/><line class="cls-8" x1="1405.43" y1="207.35" x2="1405.43" y2="208.35"/><line class="cls-12" x1="1405.43" y1="210.29" x2="1405.43" y2="267.42"/><line class="cls-8" x1="1405.43" y1="268.39" x2="1405.43" y2="269.39"/><line class="cls-8" x1="1153.04" y1="207.25" x2="1153.04" y2="208.25"/><line class="cls-12" x1="1153.04" y1="210.19" x2="1153.04" y2="267.32"/><line class="cls-8" x1="1153.04" y1="268.29" x2="1153.04" y2="269.29"/><line class="cls-8" x1="1070.45" y1="220.1" x2="1071.45" y2="220.1"/><line class="cls-11" x1="1073.45" y1="220.1" x2="1412.37" y2="220.1"/><line class="cls-8" x1="1413.37" y1="220.1" x2="1414.37" y2="220.1"/><line class="cls-8" x1="1070.46" y1="253.51" x2="1071.46" y2="253.51"/><line class="cls-13" x1="1073.46" y1="253.51" x2="1412.37" y2="253.51"/><line class="cls-8" x1="1413.37" y1="253.51" x2="1414.37" y2="253.51"/><line class="cls-8" x1="1070.44" y1="258.91" x2="1071.44" y2="258.91"/><line class="cls-13" x1="1073.44" y1="258.91" x2="1412.35" y2="258.91"/><line class="cls-8" x1="1413.35" y1="258.91" x2="1414.35" y2="258.91"/><line class="cls-8" x1="1426.47" y1="215.19" x2="1426.47" y2="218.78"/><path class="cls-9" d="M1426.47,214a5.93,5.93,0,0,1-1,1.71l1-.34,1,.34A5.73,5.73,0,0,1,1426.47,214Z"/><path class="cls-9" d="M1426.47,220a6.2,6.2,0,0,0-1-1.71l1,.35,1-.35A6,6,0,0,0,1426.47,220Z"/><line class="cls-8" x1="1139.8" y1="273.07" x2="1149.83" y2="273.07"/><path class="cls-9" d="M1138.59,273.07a6.06,6.06,0,0,1,1.71.95l-.35-.95.35-.95A6.06,6.06,0,0,1,1138.59,273.07Z"/><path class="cls-9" d="M1151,273.07a5.93,5.93,0,0,0-1.71.95l.34-.95-.34-.95A5.93,5.93,0,0,0,1151,273.07Z"/><text class="cls-10" transform="translate(1429.81 219.99)">5.5pt</text><text class="cls-10" transform="translate(1135.93 283.96)">14pt</text><line class="cls-8" x1="1427.1" y1="254.26" x2="1427.1" y2="257.85"/><path class="cls-9" d="M1427.1,253.05a5.93,5.93,0,0,1-.95,1.71l.95-.34,1,.34A5.93,5.93,0,0,1,1427.1,253.05Z"/><path class="cls-9" d="M1427.1,259.05a6.2,6.2,0,0,0-.95-1.71l.95.35,1-.35A6.2,6.2,0,0,0,1427.1,259.05Z"/><text class="cls-10" transform="translate(1429.81 259.06)">5.5pt</text><path d="M1176.63,253.49h-3.88V237.66H1157v15.83H1153V220.1H1157v13.73h15.8V220.1h3.88Z"/><path d="M1192.78,253.49h-3.87V220.1h3.87Z"/><path d="M1241.11,253.49h-3.83l-3.06-22.72-11.08,22.72H1222l-11.21-22.9-3.06,22.9H1204l4.68-33.39h.94l13,26.5,12.87-26.5h1Z"/><path d="M1280.5,253.49h-4.1l-5.08-11.18-6.75-13.9-11.89,25.08h-4.28L1264,220.11h1.17Z"/><path d="M1303.77,253.49h-16.34V220.1h3.92v29.6h12.42Z"/><path d="M1340,253.49h-4.1l-5.08-11.18-6.75-13.9-11.89,25.08h-4.28l15.58-33.38h1.17Z"/><path d="M1369.18,220.1l-10.53,17.51v15.88h-3.78V237.61l-10.72-17.51h4.5l8.06,13.18,8-13.18Z"/><path d="M1405.37,253.49h-4.09l-5.09-11.18-6.75-13.9-11.89,25.08h-4.27l15.57-33.38H1390Z"/><polygon class="cls-1" points="1131.93 242.97 1098.22 242.97 1114.94 215.56 1131.93 242.97"/><path class="cls-2" d="M1095.91,248.16l35-.06a5.94,5.94,0,0,1,2.08.34c4.24,1.65,2.18,5-1.44,5.14l-34.49,0c-5.43,0-6.19,4.6-.87,5.31h41.67"/><path d="M127.31,40.58h-3.87V24.75h-15.8V40.58h-3.92V7.19h3.92V20.92h15.8V7.19h3.87Z"/><path d="M143.47,40.58h-3.88V7.19h3.88Z"/><path d="M191.79,40.58H188L184.9,17.86,173.83,40.58h-1.17l-11.21-22.9-3.06,22.9h-3.74l4.68-33.39h.95l13,26.5,12.88-26.5h.94Z"/><path d="M231.18,40.58h-4.09L222,29.4l-6.75-13.9L203.36,40.58h-4.27L214.66,7.2h1.17Z"/><path d="M254.46,40.58H238.12V7.19H242v29.6h12.43Z"/><path d="M290.69,40.58H286.6L281.51,29.4l-6.75-13.9L262.87,40.58H258.6L274.17,7.2h1.17Z"/><path d="M319.87,7.19,309.33,24.7V40.58h-3.78V24.7L294.84,7.19h4.5l8.06,13.18,8-13.18Z"/><path d="M356.06,40.58H352L346.87,29.4l-6.75-13.9L328.24,40.58H324L339.54,7.2h1.17Z"/><polygon class="cls-1" points="82.62 30.06 48.9 30.06 65.63 2.65 82.62 30.06"/><path class="cls-2" d="M46.6,35.25l35-.06a5.86,5.86,0,0,1,2.08.34c4.25,1.65,2.19,5-1.43,5.14l-34.49,0c-5.44,0-6.2,4.6-.87,5.31H88.51"/><text class="cls-14" transform="translate(355.94 9.19)">TM</text><path d="M652.94,40.58h-3.87V24.75h-15.8V40.58h-3.92V7.19h3.92V20.92h15.8V7.19h3.87Z"/><path d="M669.1,40.58h-3.88V7.19h3.88Z"/><path d="M717.42,40.58h-3.83l-3.06-22.72L699.46,40.58h-1.17l-11.21-22.9L684,40.58h-3.74L685,7.19h.95l13,26.5,12.88-26.5h.94Z"/><path d="M756.81,40.58h-4.09L747.63,29.4l-6.75-13.9L729,40.58h-4.27L740.29,7.2h1.18Z"/><path d="M780.09,40.58H763.75V7.19h3.91v29.6h12.43Z"/><path d="M816.33,40.58h-4.1L807.14,29.4l-6.75-13.9L788.5,40.58h-4.27L799.81,7.2H801Z"/><path d="M845.5,7.19,835,24.7V40.58h-3.78V24.7L820.47,7.19H825L833,20.37l8-13.18Z"/><path d="M881.69,40.58h-4.1L872.5,29.4l-6.75-13.9L853.87,40.58h-4.28L865.17,7.2h1.17Z"/><polygon class="cls-1" points="608.25 30.06 574.53 30.06 591.26 2.65 608.25 30.06"/><path class="cls-2" d="M572.23,35.25l35-.06a5.86,5.86,0,0,1,2.08.34c4.25,1.65,2.19,5-1.43,5.14l-34.49,0c-5.44,0-6.2,4.6-.87,5.31h41.66"/><path class="cls-15" d="M885.35,4.36h1.82c1.13,0,2,.4,2,1.61s-.87,1.7-2,1.7h-.85V9.8h-1Zm1.72,2.54c.74,0,1.15-.31,1.15-.93s-.41-.84-1.15-.84h-.75V6.9Zm.62-.07,1.69,3H888.3L887,7.41Z"/><rect class="cls-16" x="882.16" y="2.09" width="9.97" height="9.97" rx="4.99"/><text class="cls-14" transform="translate(355.72 222.8)">TM</text><line class="cls-3" x1="552.4" y1="209.73" x2="553.4" y2="209.73"/><line class="cls-4" x1="555.4" y1="209.73" x2="902.81" y2="209.73"/><line class="cls-3" x1="903.81" y1="209.73" x2="904.81" y2="209.73"/><line class="cls-3" x1="614.94" y1="202.59" x2="614.94" y2="203.59"/><line class="cls-5" x1="614.94" y1="205.53" x2="614.94" y2="262.66"/><line class="cls-3" x1="614.94" y1="263.63" x2="614.94" y2="264.63"/><line class="cls-3" x1="881.94" y1="202.59" x2="881.94" y2="203.59"/><line class="cls-5" x1="881.94" y1="205.53" x2="881.94" y2="262.66"/><line class="cls-3" x1="881.94" y1="263.63" x2="881.94" y2="264.63"/><line class="cls-3" x1="629.39" y1="202.47" x2="629.39" y2="203.47"/><line class="cls-5" x1="629.39" y1="205.4" x2="629.39" y2="262.54"/><line class="cls-3" x1="629.39" y1="263.5" x2="629.39" y2="264.5"/><line class="cls-3" x1="552.4" y1="215.31" x2="553.4" y2="215.31"/><line class="cls-6" x1="555.4" y1="215.31" x2="878.3" y2="215.31"/><line class="cls-3" x1="879.3" y1="215.31" x2="880.3" y2="215.31"/><line class="cls-3" x1="552.41" y1="248.72" x2="553.41" y2="248.72"/><line class="cls-7" x1="555.41" y1="248.72" x2="902.81" y2="248.72"/><line class="cls-3" x1="903.81" y1="248.72" x2="904.81" y2="248.72"/><line class="cls-3" x1="552.39" y1="254.13" x2="553.39" y2="254.13"/><line class="cls-7" x1="555.39" y1="254.13" x2="902.79" y2="254.13"/><line class="cls-3" x1="903.79" y1="254.13" x2="904.79" y2="254.13"/><line class="cls-8" x1="548.82" y1="210.94" x2="548.82" y2="214.53"/><path class="cls-9" d="M548.82,209.73a5.93,5.93,0,0,1-1,1.71l1-.34,1,.34A6,6,0,0,1,548.82,209.73Z"/><path class="cls-9" d="M548.82,215.73a6.06,6.06,0,0,0-1-1.71l1,.35,1-.35A6.09,6.09,0,0,0,548.82,215.73Z"/><line class="cls-8" x1="616.15" y1="268.28" x2="626.18" y2="268.28"/><path class="cls-9" d="M614.94,268.28a6.09,6.09,0,0,1,1.71,1l-.35-1,.35-.95A6.06,6.06,0,0,1,614.94,268.28Z"/><path class="cls-9" d="M627.39,268.28a6.09,6.09,0,0,0-1.71,1l.34-1-.34-.95A6.06,6.06,0,0,0,627.39,268.28Z"/><text class="cls-10" transform="translate(526.16 215.73)">5.5pt</text><text class="cls-10" transform="translate(612.28 279.18)">14pt</text><line class="cls-8" x1="549.45" y1="249.93" x2="549.45" y2="253.52"/><path class="cls-9" d="M549.45,248.72a5.93,5.93,0,0,1-1,1.71l1-.34.95.34A5.93,5.93,0,0,1,549.45,248.72Z"/><path class="cls-9" d="M549.45,254.72a6.06,6.06,0,0,0-1-1.71l1,.35.95-.35A6.06,6.06,0,0,0,549.45,254.72Z"/><text class="cls-10" transform="translate(526.16 254.72)">5.5pt</text><path d="M653,248.7h-3.87V232.87h-15.8V248.7h-3.92V215.31h3.92V229h15.8V215.31H653Z"/><path d="M669.13,248.7h-3.87V215.31h3.87Z"/><path d="M717.46,248.7h-3.83L710.57,226,699.49,248.7h-1.17l-11.2-22.9-3.07,22.9h-3.73L685,215.31h1l13,26.5,12.87-26.5h1Z"/><path d="M756.85,248.7h-4.1l-5.08-11.17-6.75-13.91L729,248.7h-4.28l15.58-33.38h1.17Z"/><path d="M780.12,248.7H763.78V215.31h3.92v29.61h12.42Z"/><path d="M816.36,248.7h-4.09l-5.09-11.17-6.75-13.91L788.54,248.7h-4.28l15.58-33.38H801Z"/><path d="M845.53,215.31,835,232.83V248.7h-3.78V232.83L820.5,215.31H825l8.06,13.18,8-13.18Z"/><path d="M881.72,248.7h-4.09l-5.09-11.17-6.75-13.91L853.9,248.7h-4.27l15.57-33.38h1.17Z"/><polygon class="cls-1" points="608.28 238.19 574.57 238.19 591.29 210.77 608.28 238.19"/><path class="cls-2" d="M572.26,243.37l35-.05a5.72,5.72,0,0,1,2.08.34c4.24,1.64,2.18,5-1.44,5.13l-34.49,0c-5.43,0-6.19,4.6-.87,5.32h41.67"/><path class="cls-15" d="M885.53,212.4h1.81c1.13,0,2,.4,2,1.62s-.88,1.69-2,1.69h-.84v2.13h-1Zm1.71,2.54c.75,0,1.15-.31,1.15-.92s-.4-.85-1.15-.85h-.74v1.77Zm.62-.06,1.7,3h-1.09l-1.31-2.38Z"/><rect class="cls-16" x="882.34" y="210.13" width="9.97" height="9.97" rx="4.99"/><path class="cls-17" d="M1182.7,442.61h-3.87V426.78H1163v15.83h-3.92v-33.4H1163V423h15.8V409.21h3.87Z"/><path class="cls-17" d="M1198.86,442.61H1195v-33.4h3.87Z"/><path class="cls-17" d="M1247.18,442.61h-3.82l-3.07-22.72-11.07,22.72h-1.17l-11.21-22.9-3.06,22.9H1210l4.69-33.4h.94l13,26.51,12.87-26.51h1Z"/><path class="cls-17" d="M1286.58,442.61h-4.1l-5.09-11.18-6.75-13.9-11.88,25.08h-4.28l15.58-33.39h1.17Z"/><path class="cls-17" d="M1309.85,442.61h-16.34v-33.4h3.92v29.61h12.42Z"/><path class="cls-17" d="M1346.09,442.61H1342l-5.09-11.18-6.75-13.9-11.88,25.08H1314l15.58-33.39h1.17Z"/><path class="cls-17" d="M1375.26,409.21l-10.54,17.52v15.88h-3.78V426.73l-10.71-17.52h4.5l8.06,13.19,8-13.19Z"/><path class="cls-17" d="M1411.45,442.61h-4.1l-5.08-11.18-6.75-13.9-11.89,25.08h-4.28l15.58-33.39h1.17Z"/><polygon class="cls-18" points="1138.01 432.09 1104.3 432.09 1121.02 404.68 1138.01 432.09"/><path class="cls-19" d="M1102,437.28l35-.06a5.84,5.84,0,0,1,2.07.34c4.25,1.65,2.19,5-1.43,5.14l-34.49,0c-5.43,0-6.19,4.6-.87,5.31h41.66"/><path class="cls-17" d="M128.32,442.61h-3.87V426.78h-15.8v15.83h-3.92v-33.4h3.92V423h15.8V409.21h3.87Z"/><path class="cls-17" d="M144.48,442.61h-3.87v-33.4h3.87Z"/><path class="cls-17" d="M192.8,442.61H189l-3.07-22.72-11.07,22.72h-1.17l-11.21-22.9-3.06,22.9h-3.74l4.69-33.4h.94l13,26.51,12.87-26.51h1Z"/><path class="cls-17" d="M232.2,442.61h-4.1L223,431.43l-6.75-13.9-11.88,25.08H200.1l15.58-33.39h1.17Z"/><path class="cls-17" d="M255.47,442.61H239.13v-33.4h3.92v29.61h12.42Z"/><path class="cls-17" d="M291.71,442.61h-4.1l-5.09-11.18-6.75-13.9-11.88,25.08h-4.28l15.58-33.39h1.17Z"/><path class="cls-17" d="M320.88,409.21l-10.54,17.52v15.88h-3.78V426.73l-10.71-17.52h4.5l8.06,13.19,8-13.19Z"/><path class="cls-17" d="M357.07,442.61H353l-5.08-11.18-6.76-13.9-11.88,25.08H325l15.58-33.39h1.17Z"/><polygon class="cls-18" points="83.63 432.09 49.91 432.09 66.64 404.68 83.63 432.09"/><path class="cls-19" d="M47.61,437.28l35-.06a5.84,5.84,0,0,1,2.07.34c4.25,1.65,2.19,5-1.43,5.14l-34.49,0c-5.43,0-6.2,4.6-.87,5.31H89.52"/><text class="cls-20" transform="translate(356.95 411.22)">TM</text><path class="cls-17" d="M654,443.05h-3.87V427.22h-15.8v15.83h-3.92V409.66h3.92v13.73h15.8V409.66H654Z"/><path class="cls-17" d="M670.13,443.05h-3.87V409.66h3.87Z"/><path class="cls-17" d="M718.46,443.05h-3.83l-3.06-22.72-11.08,22.72h-1.17l-11.2-22.9-3.07,22.9h-3.73L686,409.66h1l13,26.5,12.87-26.5h1Z"/><path class="cls-17" d="M757.85,443.05h-4.1l-5.08-11.18L741.92,418,730,443.05h-4.28l15.58-33.38h1.17Z"/><path class="cls-17" d="M781.12,443.05H764.78V409.66h3.92v29.6h12.42Z"/><path class="cls-17" d="M817.36,443.05h-4.09l-5.09-11.18L801.43,418l-11.89,25.08h-4.28l15.58-33.38H802Z"/><path class="cls-17" d="M846.53,409.66,836,427.17v15.88h-3.78V427.17L821.5,409.66H826l8.06,13.18,8-13.18Z"/><path class="cls-17" d="M882.72,443.05h-4.09l-5.09-11.18L866.79,418,854.9,443.05h-4.27l15.57-33.38h1.17Z"/><polygon class="cls-18" points="609.28 432.53 575.57 432.53 592.29 405.12 609.28 432.53"/><path class="cls-19" d="M573.26,437.72l35-.06a5.94,5.94,0,0,1,2.08.34c4.24,1.65,2.18,5-1.44,5.14l-34.49,0c-5.43,0-6.19,4.6-.87,5.31h41.67"/><path class="cls-17" d="M886.39,406.83h1.81c1.13,0,2,.4,2,1.61s-.88,1.7-2,1.7h-.84v2.13h-1Zm1.71,2.54c.75,0,1.15-.31,1.15-.93s-.4-.84-1.15-.84h-.74v1.77Zm.62-.07,1.7,3h-1.09L888,409.88Z"/><rect class="cls-21" x="883.2" y="404.56" width="9.97" height="9.97" rx="4.99"/></g></g></svg>