<svg width="108" height="108" viewBox="0 0 108 108" fill="none" xmlns="http://www.w3.org/2000/svg">
<g clip-path="url(#clip0_98_258675)">
<path d="M108 0H0V108H108V0Z" fill="#D76F37"/>
<path d="M98.5492 9.44995H9.44922V98.55H98.5492V9.44995Z" fill="white"/>
<path d="M103.598 103.6H4.39844V4.3999H103.598V103.6ZM5.14844 102.85H102.848V5.1499H5.14844V102.85Z" fill="white"/>
<path d="M23.8998 25.0901C23.8998 25.4401 23.8398 25.7501 23.7098 26.0101C23.5798 26.2701 23.4298 26.5101 23.2398 26.7101C22.9998 26.9701 22.6798 27.1701 22.2998 27.3001C21.9198 27.4301 21.5098 27.5001 21.0798 27.5001H17.5898V18.8601H21.0398C21.4498 18.8601 21.8398 18.9301 22.2198 19.0601C22.5998 19.1901 22.9098 19.3901 23.1498 19.6501C23.3198 19.8401 23.4598 20.0501 23.5598 20.2801C23.6598 20.5101 23.7098 20.7801 23.7098 21.0901C23.7098 21.5001 23.5998 21.8901 23.3898 22.2501C23.1798 22.6101 22.8698 22.8601 22.4598 23.0101C22.6798 23.0801 22.8798 23.1901 23.0598 23.3301C23.2398 23.4701 23.3898 23.6301 23.5198 23.8201C23.6498 24.0001 23.7398 24.2001 23.8098 24.4201C23.8798 24.6401 23.9098 24.8601 23.9098 25.0901H23.8998ZM22.5998 21.1801C22.5998 20.9501 22.5598 20.7601 22.4698 20.5901C22.3898 20.4201 22.2698 20.2801 22.1298 20.1701C21.9898 20.0601 21.8198 19.9701 21.6298 19.9101C21.4398 19.8501 21.2398 19.8301 21.0398 19.8301H18.6498V22.5501H21.0798C21.5298 22.5501 21.8998 22.4401 22.1798 22.2301C22.4598 22.0201 22.5998 21.6701 22.5998 21.1801ZM22.7898 25.0201C22.7898 24.7801 22.7498 24.5601 22.6598 24.3701C22.5698 24.1801 22.4498 24.0201 22.2898 23.8901C22.1398 23.7601 21.9498 23.6601 21.7498 23.5901C21.5398 23.5201 21.3298 23.4901 21.0998 23.4901H18.6498V26.5001H21.0798C21.3198 26.5001 21.5398 26.4701 21.7498 26.4101C21.9598 26.3501 22.1398 26.2601 22.2998 26.1401C22.4598 26.0201 22.5798 25.8601 22.6698 25.6801C22.7598 25.5001 22.7998 25.2701 22.7998 25.0101L22.7898 25.0201Z" fill="black"/>
<path d="M28.9706 22.35C28.8806 22.33 28.7906 22.32 28.6806 22.31C28.5806 22.31 28.4806 22.3 28.3906 22.3C28.1506 22.3 27.9206 22.3501 27.7306 22.4401C27.5306 22.5301 27.3606 22.6501 27.2206 22.7901C27.1006 22.9101 27.0006 23.05 26.9206 23.21C26.8406 23.37 26.7906 23.54 26.7506 23.72C26.7106 23.9 26.6906 24.08 26.6806 24.26C26.6706 24.44 26.6606 24.6101 26.6606 24.7701V27.51H25.6406V21.34H26.5506L26.6306 22.42C26.7906 22.04 27.0406 21.76 27.3806 21.57C27.7206 21.39 28.0806 21.3 28.4706 21.3C28.6306 21.3 28.7906 21.31 28.9606 21.34V22.35H28.9706Z" fill="black"/>
<path d="M35.1206 24.4202C35.1206 24.9102 35.0606 25.3702 34.9406 25.8002C34.8206 26.2302 34.5906 26.6102 34.2406 26.9502C34.0106 27.1702 33.7406 27.3402 33.4306 27.4702C33.1206 27.6002 32.7706 27.6602 32.3806 27.6602C31.9906 27.6602 31.6406 27.5902 31.3306 27.4702C31.0206 27.3502 30.7506 27.1702 30.5206 26.9502C30.1806 26.6202 29.9506 26.2402 29.8206 25.8002C29.7006 25.3702 29.6406 24.9102 29.6406 24.4202C29.6406 23.9302 29.7006 23.4702 29.8206 23.0402C29.9406 22.6102 30.1706 22.2302 30.5206 21.8902C30.7506 21.6702 31.0206 21.5002 31.3306 21.3702C31.6406 21.2402 31.9906 21.1802 32.3806 21.1802C32.7706 21.1802 33.1206 21.2502 33.4306 21.3702C33.7406 21.5002 34.0106 21.6702 34.2406 21.8902C34.5806 22.2202 34.8106 22.6002 34.9406 23.0402C35.0706 23.4802 35.1206 23.9302 35.1206 24.4202ZM34.0606 24.4202C34.0606 24.0502 34.0206 23.7002 33.9406 23.3602C33.8606 23.0202 33.7106 22.7302 33.4906 22.5102C33.3606 22.3802 33.2006 22.2702 33.0206 22.1902C32.8406 22.1102 32.6206 22.0702 32.3806 22.0702C32.1406 22.0702 31.9206 22.1102 31.7406 22.1902C31.5606 22.2702 31.4006 22.3802 31.2706 22.5102C31.0506 22.7402 30.9006 23.0202 30.8206 23.3602C30.7406 23.7002 30.7006 24.0602 30.7006 24.4202C30.7006 24.7802 30.7406 25.1402 30.8206 25.4802C30.9006 25.8202 31.0506 26.1102 31.2706 26.3302C31.4006 26.4602 31.5606 26.5702 31.7406 26.6502C31.9206 26.7302 32.1406 26.7702 32.3806 26.7702C32.6206 26.7702 32.8406 26.7302 33.0206 26.6502C33.2006 26.5702 33.3606 26.4602 33.4906 26.3302C33.7106 26.1002 33.8606 25.8202 33.9406 25.4802C34.0206 25.1402 34.0606 24.7802 34.0606 24.4202Z" fill="black"/>
<path d="M40.8602 27.5002V23.5902C40.8602 23.1302 40.7602 22.7702 40.5502 22.5102C40.3402 22.2502 39.9902 22.1202 39.5102 22.1202C39.2102 22.1202 38.9502 22.2102 38.7202 22.3802C38.4902 22.5602 38.3102 22.7802 38.1702 23.0702C38.0602 23.3002 38.0002 23.5602 37.9802 23.8502C37.9602 24.1402 37.9502 24.4102 37.9502 24.6402V27.5002H36.9102V21.3302H37.8102L37.8902 22.2602C37.9702 22.0802 38.0802 21.9202 38.2202 21.7902C38.3602 21.6602 38.5102 21.5402 38.6802 21.4602C38.8502 21.3802 39.0302 21.3002 39.2202 21.2502C39.4102 21.2002 39.5902 21.1802 39.7602 21.1802C40.4702 21.1802 41.0002 21.3802 41.3602 21.7802C41.7202 22.1802 41.9002 22.7402 41.9002 23.4502V27.5102H40.8602V27.5002Z" fill="black"/>
<path d="M43.5508 27.5001V26.5901L47.1308 22.2401H43.5508V21.3401H48.3908V22.2501L44.8208 26.6001H48.4308V27.5001H43.5608H43.5508Z" fill="black"/>
<path d="M54.993 24.0902V24.4202C54.993 24.5302 54.993 24.6402 54.983 24.7602H50.623C50.623 25.0402 50.673 25.3302 50.783 25.6102C50.893 25.8902 51.033 26.1202 51.223 26.3102C51.513 26.6002 51.893 26.7502 52.353 26.7502C52.853 26.7502 53.243 26.6202 53.503 26.3502C53.593 26.2602 53.663 26.1702 53.723 26.0702C53.783 25.9702 53.833 25.8402 53.873 25.6802H54.883C54.843 25.9902 54.733 26.2802 54.563 26.5402C54.393 26.8102 54.183 27.0302 53.933 27.2002C53.713 27.3502 53.473 27.4602 53.203 27.5402C52.933 27.6202 52.653 27.6602 52.363 27.6602C51.923 27.6602 51.533 27.5802 51.183 27.4102C50.833 27.2402 50.543 27.0202 50.313 26.7302C50.053 26.4302 49.863 26.0802 49.733 25.6902C49.603 25.3002 49.543 24.8802 49.543 24.4402C49.543 24.0702 49.583 23.7102 49.653 23.3902C49.723 23.0702 49.843 22.7502 50.023 22.4702C50.243 22.1002 50.553 21.7902 50.953 21.5402C51.353 21.3002 51.813 21.1702 52.353 21.1702C52.753 21.1702 53.103 21.2402 53.423 21.3802C53.743 21.5202 54.003 21.7202 54.233 21.9602C54.473 22.2302 54.663 22.5502 54.803 22.9102C54.943 23.2802 55.013 23.6702 55.013 24.0802L54.993 24.0902ZM53.933 23.8702C53.933 23.6302 53.903 23.4102 53.833 23.1902C53.763 22.9702 53.673 22.7802 53.553 22.6202C53.423 22.4502 53.253 22.3102 53.053 22.2102C52.853 22.1102 52.613 22.0602 52.333 22.0602C52.053 22.0602 51.803 22.1102 51.593 22.2202C51.383 22.3302 51.213 22.4602 51.073 22.6302C50.933 22.8002 50.823 22.9902 50.753 23.2102C50.683 23.4302 50.643 23.6502 50.633 23.8702H53.923H53.933Z" fill="black"/>
<path d="M20.2013 33.6802V41.3102H19.1012V33.6802H16.5312V32.6702H22.7712V33.6802H20.2013Z" fill="black"/>
<path d="M26.412 36.1501C26.322 36.1301 26.232 36.1201 26.122 36.1101C26.022 36.1101 25.922 36.1001 25.832 36.1001C25.592 36.1001 25.362 36.1501 25.172 36.2401C24.972 36.3301 24.802 36.4501 24.662 36.5901C24.542 36.7101 24.442 36.8501 24.362 37.0101C24.282 37.1701 24.232 37.3401 24.192 37.5201C24.152 37.7001 24.132 37.8801 24.122 38.0601C24.112 38.2401 24.102 38.4101 24.102 38.5701V41.3101H23.082V35.1401H23.992L24.072 36.2201C24.232 35.8401 24.482 35.5601 24.822 35.3701C25.162 35.1901 25.522 35.1001 25.912 35.1001C26.072 35.1001 26.232 35.1101 26.402 35.1401V36.1501H26.412Z" fill="black"/>
<path d="M32.8094 41.25C32.6994 41.31 32.5894 41.35 32.4794 41.37C32.3694 41.39 32.2594 41.4 32.1294 41.4C31.8494 41.4 31.6394 41.31 31.4794 41.13C31.3194 40.95 31.2394 40.73 31.2394 40.47H31.2194C31.0394 40.78 30.7794 41.02 30.4194 41.21C30.0694 41.39 29.6694 41.48 29.2294 41.48C28.8694 41.48 28.5594 41.43 28.2994 41.32C28.0394 41.21 27.8194 41.07 27.6394 40.89C27.4694 40.71 27.3294 40.51 27.2394 40.28C27.1494 40.05 27.1094 39.82 27.1094 39.58C27.1094 39.39 27.1394 39.18 27.2094 38.96C27.2794 38.74 27.3994 38.54 27.5694 38.36C27.7394 38.18 27.9694 38.02 28.2494 37.89C28.5294 37.76 28.8794 37.68 29.2994 37.66L31.1794 37.55V37.1C31.1794 36.95 31.1594 36.78 31.1294 36.61C31.0994 36.44 31.0094 36.29 30.8694 36.16C30.7594 36.06 30.6294 35.98 30.4694 35.93C30.3094 35.87 30.1094 35.85 29.8494 35.85C29.5694 35.85 29.3294 35.88 29.1594 35.95C28.9794 36.02 28.8394 36.11 28.7294 36.21C28.5294 36.41 28.4294 36.66 28.4294 36.95H27.4194C27.4194 36.67 27.4794 36.42 27.5694 36.21C27.6594 36 27.7894 35.82 27.9494 35.65C28.1594 35.43 28.4294 35.27 28.7694 35.16C29.1094 35.05 29.4694 35 29.8494 35C30.4494 35 30.9294 35.11 31.2794 35.33C31.6294 35.55 31.8794 35.84 32.0194 36.18C32.1394 36.46 32.1994 36.78 32.1994 37.13V40.12C32.1994 40.28 32.2294 40.39 32.2894 40.45C32.3494 40.51 32.4294 40.53 32.5394 40.53H32.6194C32.6194 40.53 32.6794 40.53 32.7094 40.52L32.8094 40.5V41.27V41.25ZM31.1794 38.34L29.5194 38.44C29.3694 38.44 29.2094 38.47 29.0394 38.52C28.8694 38.57 28.7294 38.63 28.5994 38.71C28.4694 38.8 28.3594 38.91 28.2794 39.05C28.1994 39.19 28.1594 39.35 28.1594 39.55C28.1594 39.83 28.2494 40.07 28.4394 40.29C28.6294 40.51 28.9394 40.61 29.3794 40.61C29.6194 40.61 29.8494 40.57 30.0694 40.49C30.2894 40.41 30.4894 40.28 30.6494 40.11C30.8394 39.92 30.9694 39.71 31.0494 39.46C31.1294 39.22 31.1694 38.96 31.1694 38.7V38.33L31.1794 38.34Z" fill="black"/>
<path d="M38.4109 41.31V37.4C38.4109 36.94 38.3109 36.58 38.1009 36.32C37.8909 36.06 37.5409 35.93 37.0609 35.93C36.7609 35.93 36.5009 36.02 36.2709 36.19C36.0409 36.37 35.8609 36.59 35.7209 36.88C35.6109 37.11 35.5509 37.37 35.5309 37.66C35.5109 37.95 35.5009 38.22 35.5009 38.45V41.31H34.4609V35.14H35.3609L35.4409 36.07C35.5209 35.89 35.6309 35.73 35.7709 35.6C35.9109 35.47 36.0609 35.35 36.2309 35.27C36.4009 35.19 36.5809 35.11 36.7709 35.06C36.9609 35.01 37.1409 34.99 37.3109 34.99C38.0209 34.99 38.5509 35.19 38.9109 35.59C39.2709 35.99 39.4509 36.55 39.4509 37.26V41.32H38.4109V41.31Z" fill="black"/>
<path d="M46.1603 39.5202C46.1603 39.7902 46.1103 40.0302 46.0303 40.2302C45.9503 40.4302 45.8203 40.6202 45.6803 40.7702C45.4403 41.0102 45.1503 41.1902 44.8003 41.3002C44.4503 41.4102 44.0703 41.4602 43.6703 41.4602C43.2703 41.4602 42.9103 41.4102 42.5703 41.3102C42.2303 41.2102 41.9303 41.0302 41.6703 40.7702C41.4803 40.5802 41.3403 40.3702 41.2303 40.1202C41.1203 39.8702 41.0703 39.6202 41.0703 39.3602H42.1103C42.1103 39.5702 42.1703 39.7602 42.2603 39.9102C42.3503 40.0702 42.4703 40.2002 42.6103 40.3202C42.7503 40.4302 42.9203 40.5002 43.1203 40.5402C43.3203 40.5802 43.5203 40.6002 43.7203 40.6002C43.9303 40.6002 44.1303 40.5802 44.3203 40.5302C44.5103 40.4902 44.6903 40.3902 44.8503 40.2602C44.9403 40.1902 45.0103 40.1002 45.0703 39.9802C45.1303 39.8602 45.1503 39.7302 45.1503 39.5902C45.1503 39.3502 45.0703 39.1602 44.9103 39.0002C44.7503 38.8502 44.5103 38.7502 44.1903 38.7102C44.1203 38.7102 44.0403 38.6902 43.9203 38.6702C43.8103 38.6502 43.6803 38.6402 43.5503 38.6202C43.4203 38.6002 43.2903 38.5902 43.1503 38.5702C43.0103 38.5502 42.9003 38.5402 42.7903 38.5202C42.3303 38.4502 41.9603 38.2702 41.6903 37.9902C41.4203 37.7102 41.2803 37.3302 41.2803 36.8602C41.2803 36.6202 41.3303 36.4002 41.4303 36.1802C41.5303 35.9602 41.6503 35.7902 41.7903 35.6502C41.9903 35.4402 42.2503 35.2702 42.5603 35.1502C42.8703 35.0302 43.2203 34.9702 43.6103 34.9702C44.0203 34.9702 44.4003 35.0402 44.7403 35.1602C45.0803 35.2902 45.3603 35.4902 45.5703 35.7502C45.7103 35.9102 45.8203 36.0902 45.8903 36.2702C45.9703 36.4602 46.0103 36.6802 46.0103 36.9302H44.9703C44.9703 36.7702 44.9203 36.6202 44.8503 36.4902C44.7803 36.3602 44.7003 36.2502 44.6103 36.1702C44.3703 35.9502 44.0303 35.8402 43.6003 35.8402C43.4803 35.8402 43.3603 35.8402 43.2603 35.8502C43.1603 35.8602 43.0303 35.8902 42.8803 35.9602C42.6903 36.0402 42.5303 36.1602 42.4203 36.3102C42.3103 36.4602 42.2603 36.6202 42.2603 36.7902C42.2603 37.0502 42.3303 37.2402 42.4803 37.3602C42.6303 37.4802 42.8303 37.5602 43.0903 37.6002C43.2603 37.6202 43.4703 37.6502 43.7103 37.6802C43.9503 37.7102 44.2403 37.7502 44.5703 37.8102C45.0103 37.8802 45.3803 38.0702 45.6903 38.3702C45.9903 38.6702 46.1503 39.0502 46.1503 39.5202H46.1603Z" fill="black"/>
<path d="M53.3997 38.23C53.3997 38.77 53.3197 39.26 53.1597 39.72C52.9997 40.18 52.7697 40.56 52.4597 40.86C52.2597 41.05 52.0197 41.2 51.7297 41.31C51.4397 41.42 51.1297 41.48 50.7597 41.48C50.5897 41.48 50.4197 41.46 50.2397 41.42C50.0597 41.38 49.8997 41.32 49.7297 41.25C49.5597 41.18 49.4197 41.09 49.2897 40.98C49.1597 40.87 49.0497 40.75 48.9697 40.61V43.96H47.9297V35.16H48.8397L48.9097 35.96C49.0897 35.65 49.3497 35.41 49.6997 35.25C50.0497 35.08 50.3997 35 50.7497 35C51.1297 35 51.4697 35.06 51.7597 35.18C52.0497 35.3 52.2897 35.46 52.4997 35.67C52.7897 35.97 53.0097 36.34 53.1597 36.79C53.3097 37.24 53.3897 37.72 53.3897 38.23H53.3997ZM52.3397 38.24C52.3397 37.96 52.3097 37.67 52.2597 37.39C52.2097 37.11 52.1197 36.86 51.9897 36.63C51.8597 36.4 51.6797 36.22 51.4497 36.08C51.2197 35.94 50.9397 35.87 50.5997 35.87C50.3697 35.87 50.1797 35.91 50.0197 35.99C49.8597 36.07 49.7197 36.16 49.5997 36.28C49.3397 36.51 49.1597 36.79 49.0597 37.14C48.9597 37.48 48.9097 37.85 48.9097 38.24C48.9097 38.63 48.9597 39 49.0597 39.34C49.1597 39.68 49.3397 39.97 49.5997 40.2C49.7197 40.31 49.8597 40.41 50.0197 40.49C50.1797 40.57 50.3697 40.61 50.5997 40.61C50.9397 40.61 51.2297 40.54 51.4497 40.4C51.6797 40.26 51.8597 40.08 51.9897 39.85C52.1197 39.62 52.2097 39.37 52.2597 39.09C52.3097 38.81 52.3397 38.53 52.3397 38.24Z" fill="black"/>
<path d="M60.3523 41.25C60.2423 41.31 60.1323 41.35 60.0223 41.37C59.9123 41.39 59.8023 41.4 59.6723 41.4C59.3923 41.4 59.1823 41.31 59.0223 41.13C58.8623 40.95 58.7823 40.73 58.7823 40.47H58.7623C58.5823 40.78 58.3223 41.02 57.9623 41.21C57.6123 41.39 57.2123 41.48 56.7723 41.48C56.4123 41.48 56.1023 41.43 55.8423 41.32C55.5823 41.21 55.3623 41.07 55.1823 40.89C55.0123 40.71 54.8723 40.51 54.7823 40.28C54.6923 40.05 54.6523 39.82 54.6523 39.58C54.6523 39.39 54.6823 39.18 54.7523 38.96C54.8223 38.74 54.9423 38.54 55.1123 38.36C55.2823 38.18 55.5123 38.02 55.7923 37.89C56.0723 37.76 56.4223 37.68 56.8423 37.66L58.7223 37.55V37.1C58.7223 36.95 58.7023 36.78 58.6723 36.61C58.6423 36.44 58.5523 36.29 58.4123 36.16C58.3023 36.06 58.1723 35.98 58.0123 35.93C57.8523 35.87 57.6523 35.85 57.3923 35.85C57.1123 35.85 56.8723 35.88 56.7023 35.95C56.5223 36.02 56.3823 36.11 56.2723 36.21C56.0723 36.41 55.9723 36.66 55.9723 36.95H54.9623C54.9623 36.67 55.0223 36.42 55.1123 36.21C55.2023 36 55.3323 35.82 55.4923 35.65C55.7023 35.43 55.9723 35.27 56.3123 35.16C56.6523 35.05 57.0123 35 57.3923 35C57.9923 35 58.4723 35.11 58.8223 35.33C59.1723 35.55 59.4223 35.84 59.5623 36.18C59.6823 36.46 59.7423 36.78 59.7423 37.13V40.12C59.7423 40.28 59.7723 40.39 59.8323 40.45C59.8923 40.51 59.9723 40.53 60.0823 40.53H60.1623C60.1623 40.53 60.2223 40.53 60.2523 40.52L60.3523 40.5V41.27V41.25ZM58.7223 38.34L57.0623 38.44C56.9123 38.44 56.7523 38.47 56.5823 38.52C56.4123 38.57 56.2723 38.63 56.1423 38.71C56.0123 38.8 55.9023 38.91 55.8223 39.05C55.7423 39.19 55.7023 39.35 55.7023 39.55C55.7023 39.83 55.7923 40.07 55.9823 40.29C56.1723 40.51 56.4823 40.61 56.9223 40.61C57.1623 40.61 57.3923 40.57 57.6123 40.49C57.8323 40.41 58.0323 40.28 58.1923 40.11C58.3823 39.92 58.5123 39.71 58.5923 39.46C58.6723 39.22 58.7123 38.96 58.7123 38.7V38.33L58.7223 38.34Z" fill="black"/>
<path d="M65.33 36.1501C65.24 36.1301 65.15 36.1201 65.04 36.1101C64.94 36.1101 64.84 36.1001 64.75 36.1001C64.51 36.1001 64.28 36.1501 64.09 36.2401C63.89 36.3301 63.72 36.4501 63.58 36.5901C63.46 36.7101 63.36 36.8501 63.28 37.0101C63.2 37.1701 63.15 37.3401 63.11 37.5201C63.07 37.7001 63.05 37.8801 63.04 38.0601C63.03 38.2401 63.02 38.4101 63.02 38.5701V41.3101H62V35.1401H62.91L62.99 36.2201C63.15 35.8401 63.4 35.5601 63.74 35.3701C64.08 35.1901 64.44 35.1001 64.83 35.1001C64.99 35.1001 65.15 35.1101 65.32 35.1401V36.1501H65.33Z" fill="black"/>
<path d="M71.532 37.9002V38.2302C71.532 38.3402 71.532 38.4502 71.522 38.5702H67.162C67.162 38.8502 67.212 39.1402 67.322 39.4202C67.432 39.7002 67.572 39.9302 67.762 40.1202C68.052 40.4102 68.432 40.5602 68.892 40.5602C69.392 40.5602 69.782 40.4302 70.042 40.1602C70.132 40.0702 70.202 39.9802 70.262 39.8802C70.322 39.7802 70.372 39.6502 70.412 39.4902H71.422C71.382 39.8002 71.272 40.0902 71.102 40.3502C70.932 40.6202 70.722 40.8402 70.472 41.0102C70.252 41.1602 70.012 41.2702 69.742 41.3502C69.472 41.4302 69.192 41.4702 68.902 41.4702C68.462 41.4702 68.072 41.3902 67.722 41.2202C67.372 41.0502 67.082 40.8302 66.852 40.5402C66.592 40.2402 66.402 39.8902 66.272 39.5002C66.142 39.1102 66.082 38.6902 66.082 38.2502C66.082 37.8802 66.122 37.5202 66.192 37.2002C66.262 36.8802 66.382 36.5602 66.562 36.2802C66.782 35.9102 67.092 35.6002 67.492 35.3502C67.892 35.1102 68.352 34.9802 68.892 34.9802C69.292 34.9802 69.642 35.0502 69.962 35.1902C70.282 35.3302 70.542 35.5302 70.772 35.7702C71.012 36.0402 71.202 36.3602 71.342 36.7202C71.482 37.0902 71.552 37.4802 71.552 37.8902L71.532 37.9002ZM70.472 37.6802C70.472 37.4402 70.442 37.2202 70.372 37.0002C70.302 36.7802 70.212 36.5902 70.092 36.4302C69.962 36.2602 69.792 36.1202 69.592 36.0202C69.392 35.9202 69.152 35.8702 68.872 35.8702C68.592 35.8702 68.342 35.9202 68.132 36.0302C67.922 36.1402 67.752 36.2702 67.612 36.4402C67.472 36.6102 67.362 36.8002 67.292 37.0202C67.222 37.2402 67.182 37.4602 67.172 37.6802H70.462H70.472Z" fill="black"/>
<path d="M77.2195 41.31V37.4C77.2195 36.94 77.1195 36.58 76.9095 36.32C76.6995 36.06 76.3495 35.93 75.8695 35.93C75.5695 35.93 75.3095 36.02 75.0795 36.19C74.8495 36.37 74.6695 36.59 74.5295 36.88C74.4195 37.11 74.3595 37.37 74.3395 37.66C74.3195 37.95 74.3095 38.22 74.3095 38.45V41.31H73.2695V35.14H74.1695L74.2495 36.07C74.3295 35.89 74.4395 35.73 74.5795 35.6C74.7195 35.47 74.8695 35.35 75.0395 35.27C75.2095 35.19 75.3895 35.11 75.5795 35.06C75.7695 35.01 75.9495 34.99 76.1195 34.99C76.8295 34.99 77.3595 35.19 77.7195 35.59C78.0795 35.99 78.2595 36.55 78.2595 37.26V41.32H77.2195V41.31Z" fill="black"/>
<path d="M85.1897 39.24C85.1697 39.57 85.0897 39.87 84.9697 40.12C84.8497 40.37 84.6797 40.6 84.4697 40.8C84.2497 41.01 83.9897 41.18 83.6997 41.29C83.4097 41.4 83.0697 41.47 82.6897 41.47C82.1297 41.47 81.6697 41.36 81.3097 41.14C80.9497 40.92 80.6597 40.64 80.4397 40.32C80.2797 40.08 80.1497 39.78 80.0597 39.44C79.9697 39.1 79.9297 38.7 79.9297 38.23C79.9297 37.76 79.9697 37.37 80.0597 37.02C80.1497 36.68 80.2697 36.39 80.4397 36.14C80.6597 35.81 80.9497 35.54 81.3097 35.32C81.6697 35.1 82.1297 34.99 82.6797 34.99C83.0497 34.99 83.3797 35.05 83.6697 35.16C83.9597 35.27 84.2197 35.44 84.4297 35.65C84.6397 35.85 84.8097 36.08 84.9397 36.34C85.0697 36.6 85.1397 36.89 85.1697 37.24H84.1197C84.0997 37.03 84.0397 36.84 83.9697 36.68C83.8897 36.52 83.7997 36.39 83.6797 36.27C83.5597 36.16 83.4097 36.06 83.2397 36C83.0697 35.94 82.8797 35.9 82.6797 35.9C82.4397 35.9 82.2397 35.94 82.0697 36.02C81.8997 36.1 81.7397 36.19 81.6097 36.31C81.3697 36.52 81.1997 36.8 81.1197 37.15C81.0297 37.5 80.9897 37.87 80.9897 38.25C80.9897 38.63 81.0297 39 81.1197 39.35C81.1997 39.7 81.3697 39.98 81.6097 40.19C81.7497 40.3 81.8997 40.4 82.0697 40.48C82.2397 40.56 82.4397 40.6 82.6797 40.6C82.8897 40.6 83.0897 40.56 83.2697 40.49C83.4497 40.42 83.6097 40.32 83.7297 40.19C83.8397 40.08 83.9397 39.95 83.9997 39.8C84.0697 39.65 84.1197 39.48 84.1397 39.28H85.1897V39.24Z" fill="black"/>
<path d="M88.7422 42.5801C88.5922 42.9801 88.4022 43.3001 88.1422 43.5401C87.8922 43.7801 87.5322 43.9001 87.0722 43.9001C86.8122 43.9001 86.6022 43.8801 86.4422 43.8501C86.2822 43.8201 86.1822 43.7901 86.1422 43.7801V42.8801C86.2122 42.9001 86.2822 42.9101 86.3622 42.9301C86.4322 42.9501 86.5022 42.9601 86.5922 42.9701C86.6722 42.9701 86.7722 42.9801 86.8822 42.9801C87.1022 42.9801 87.2922 42.9401 87.4422 42.8501C87.5922 42.7601 87.7222 42.6001 87.8122 42.3601L88.2022 41.3201L85.7422 35.1501H86.9122L88.7322 40.0101L90.4622 35.1501H91.5422L88.7622 42.5801H88.7422Z" fill="black"/>
<path d="M17.0703 84.24C17.0703 81.42 18.2903 79.33 21.3103 79.33C24.0303 79.33 25.2103 80.82 25.2103 82.96V83.15H22.9903V82.85C22.9903 81.67 22.5203 81.03 21.3303 81.03C20.0103 81.03 19.3903 81.84 19.3903 84V84.61C19.3903 86.9 19.9703 87.63 21.3403 87.63C22.4403 87.63 23.0803 87.15 23.0803 85.85V85.44H25.2103V85.74C25.2103 87.87 24.0903 89.32 21.3803 89.32C18.0803 89.32 17.0803 87.19 17.0803 84.46V84.23L17.0703 84.24ZM30.0603 81.78C32.3303 81.78 33.1103 83.02 33.1103 84.26V89.16H31.1903V88.16H31.1403C30.8003 88.81 30.1203 89.32 29.1303 89.32C27.7803 89.32 26.7303 88.52 26.7303 87.21C26.7303 85.9 27.4403 84.82 29.6903 84.82H31.1403V84.38C31.1403 83.69 30.9503 83.21 30.0203 83.21C29.2003 83.21 28.8503 83.55 28.8503 84.15V84.18H27.0203V83.99C27.0203 82.97 27.7903 81.79 30.0503 81.79L30.0603 81.78ZM31.1403 86.23V86.1H29.8603C29.0503 86.1 28.7303 86.49 28.7303 87V87.09C28.7303 87.67 29.0603 87.95 29.6303 87.95C30.5403 87.95 31.1403 87.34 31.1403 86.22V86.23ZM34.9103 81.9H36.8803V83.27H36.9303C37.2503 82.39 37.9503 81.77 39.2303 81.77C40.9203 81.77 41.5803 82.63 41.5803 84.16V89.15H39.6103V84.63C39.6103 83.75 39.3203 83.37 38.4003 83.37C37.3303 83.37 36.8803 84.11 36.8803 84.82V89.15H34.9103V81.9ZM47.9303 88.11C47.6003 88.76 46.9303 89.29 45.9203 89.29C43.6703 89.29 42.9603 87.33 42.9603 85.65V85.51C42.9603 83.3 44.0503 81.77 45.9203 81.77C47.0403 81.77 47.5703 82.19 47.9303 82.66V79.26H49.9003V89.16H47.9303V88.12V88.11ZM47.9503 86.58V84.4C47.8203 83.78 47.3703 83.27 46.5103 83.27C45.3303 83.27 44.9203 84.01 44.9203 85.44V85.63C44.9203 87.01 45.2203 87.79 46.4203 87.79C47.3103 87.79 47.7803 87.33 47.9403 86.58H47.9503ZM51.6903 80.04C51.6903 79.44 52.1703 78.95 52.7603 78.95C53.3503 78.95 53.8403 79.44 53.8403 80.04C53.8403 80.64 53.3503 81.12 52.7603 81.12C52.1703 81.12 51.6903 80.64 51.6903 80.04ZM51.7703 81.9H53.7403V89.15H51.7703V81.9ZM60.1803 88.11C59.8503 88.76 59.1803 89.29 58.1703 89.29C55.9203 89.29 55.2103 87.33 55.2103 85.65V85.51C55.2103 83.3 56.3003 81.77 58.1703 81.77C59.2903 81.77 59.8203 82.19 60.1803 82.66V79.26H62.1503V89.16H60.1803V88.12V88.11ZM60.1903 86.58V84.4C60.0603 83.78 59.6103 83.27 58.7603 83.27C57.5803 83.27 57.1703 84.01 57.1703 85.44V85.63C57.1703 87.01 57.4703 87.79 58.6703 87.79C59.5603 87.79 60.0303 87.33 60.1903 86.58ZM63.5803 88.15C63.5803 87.55 64.0703 87.05 64.6803 87.05C65.2903 87.05 65.8103 87.56 65.8103 88.15C65.8103 88.74 65.3003 89.27 64.6803 89.27C64.0603 89.27 63.5803 88.76 63.5803 88.15Z" fill="black"/>
</g>
<defs>
<clipPath id="clip0_98_258675">
<rect width="108" height="108" fill="white"/>
</clipPath>
</defs>
</svg>
