<svg width="108" height="108" viewBox="0 0 108 108" fill="none" xmlns="http://www.w3.org/2000/svg">
<g clip-path="url(#clip0_98_259011)">
<path d="M108 0H0V108H108V0Z" fill="#A6C0CE"/>
<path d="M98.5492 9.44995H9.44922V98.55H98.5492V9.44995Z" fill="white"/>
<path d="M103.598 103.6H4.39844V4.3999H103.598V103.6ZM5.14844 102.85H102.848V5.1499H5.14844V102.85Z" fill="white"/>
<path d="M23.6516 21.4699C23.6516 22.2999 23.4116 22.9499 22.9316 23.4299C22.6916 23.6699 22.4016 23.8399 22.0516 23.9699C21.7016 24.0899 21.2916 24.1499 20.8116 24.1499H18.6816V27.4999H17.6016V18.8599H20.8116C21.3216 18.8599 21.7616 18.9299 22.1116 19.0599C22.4616 19.1899 22.7616 19.3899 23.0016 19.6399C23.2116 19.8699 23.3716 20.1299 23.4916 20.4399C23.6116 20.7499 23.6616 21.0899 23.6616 21.4699H23.6516ZM22.5316 21.4699C22.5316 20.9199 22.3716 20.5099 22.0516 20.2499C21.7316 19.9899 21.3116 19.8499 20.7716 19.8499H18.6716V23.1599H20.7816C21.3616 23.1599 21.8016 23.0199 22.0916 22.7499C22.3816 22.4799 22.5216 22.0499 22.5216 21.4599L22.5316 21.4699Z" fill="black"/>
<path d="M27.1294 27.5C27.1294 27.5 27.0194 27.53 26.9494 27.54C26.8294 27.56 26.6494 27.58 26.3994 27.58C25.9494 27.58 25.6194 27.45 25.4094 27.19C25.2094 26.93 25.1094 26.56 25.1094 26.07V18.71H26.1494V26.01C26.1494 26.22 26.1894 26.38 26.2694 26.49C26.3494 26.6 26.4994 26.65 26.7094 26.65H27.0494C27.0494 26.65 27.1094 26.65 27.1394 26.64V27.52L27.1294 27.5Z" fill="black"/>
<path d="M33.8602 27.4399C33.7502 27.4999 33.6402 27.5399 33.5302 27.5599C33.4202 27.5799 33.3102 27.5899 33.1802 27.5899C32.9002 27.5899 32.6902 27.4999 32.5302 27.3199C32.3702 27.1399 32.2902 26.9199 32.2902 26.6599H32.2702C32.0902 26.9699 31.8302 27.2099 31.4702 27.3999C31.1202 27.5799 30.7202 27.6699 30.2802 27.6699C29.9202 27.6699 29.6102 27.6199 29.3502 27.5099C29.0902 27.3999 28.8702 27.2599 28.6902 27.0799C28.5202 26.8999 28.3802 26.6999 28.2902 26.4699C28.2002 26.2399 28.1602 26.0099 28.1602 25.7699C28.1602 25.5799 28.1902 25.3699 28.2602 25.1499C28.3302 24.9299 28.4502 24.7299 28.6202 24.5499C28.7902 24.3699 29.0202 24.2099 29.3002 24.0799C29.5802 23.9499 29.9302 23.8699 30.3502 23.8499L32.2302 23.7399V23.2899C32.2302 23.1399 32.2102 22.9699 32.1802 22.7999C32.1502 22.6299 32.0602 22.4799 31.9202 22.3499C31.8102 22.2499 31.6802 22.1699 31.5202 22.1199C31.3602 22.0599 31.1602 22.0399 30.9002 22.0399C30.6202 22.0399 30.3802 22.0699 30.2102 22.1399C30.0302 22.2099 29.8902 22.2999 29.7802 22.3999C29.5802 22.5999 29.4802 22.8499 29.4802 23.1399H28.4702C28.4702 22.8599 28.5302 22.6099 28.6202 22.3999C28.7102 22.1899 28.8402 22.0099 29.0002 21.8399C29.2102 21.6199 29.4802 21.4599 29.8202 21.3499C30.1602 21.2399 30.5202 21.1899 30.9002 21.1899C31.5002 21.1899 31.9802 21.2999 32.3302 21.5199C32.6802 21.7399 32.9302 22.0299 33.0702 22.3699C33.1902 22.6499 33.2502 22.9699 33.2502 23.3199V26.3099C33.2502 26.4699 33.2802 26.5799 33.3402 26.6399C33.4002 26.6999 33.4802 26.7199 33.5902 26.7199H33.6702C33.6702 26.7199 33.7302 26.7199 33.7602 26.7099L33.8602 26.6899V27.4599V27.4399ZM32.2302 24.5299L30.5702 24.6299C30.4202 24.6299 30.2602 24.6599 30.0902 24.7099C29.9202 24.7599 29.7802 24.8199 29.6502 24.8999C29.5202 24.9899 29.4102 25.0999 29.3302 25.2399C29.2502 25.3799 29.2102 25.5399 29.2102 25.7399C29.2102 26.0199 29.3002 26.2599 29.4902 26.4799C29.6802 26.6999 29.9902 26.7999 30.4302 26.7999C30.6702 26.7999 30.9002 26.7599 31.1202 26.6799C31.3402 26.5999 31.5402 26.4699 31.7002 26.2999C31.8902 26.1099 32.0202 25.8999 32.1002 25.6499C32.1802 25.4099 32.2202 25.1499 32.2202 24.8899V24.5199L32.2302 24.5299Z" fill="black"/>
<path d="M38.6417 27.42C38.5017 27.46 38.3317 27.5 38.1317 27.54C37.9317 27.58 37.6917 27.59 37.4017 27.59C37.0717 27.59 36.7917 27.54 36.5717 27.44C36.3517 27.34 36.1817 27.22 36.0517 27.06C35.9217 26.9 35.8317 26.73 35.7817 26.53C35.7317 26.33 35.7017 26.13 35.7017 25.91V22.22H34.5117V21.33H35.7017V19.76L36.7417 19.52V21.34H38.5717V22.23H36.7417V25.8C36.7417 26.1 36.8117 26.32 36.9417 26.45C37.0717 26.58 37.2817 26.65 37.5717 26.65C37.6817 26.65 37.8017 26.65 37.9217 26.64C38.0417 26.63 38.1617 26.62 38.2617 26.6C38.3817 26.58 38.5017 26.56 38.6317 26.54V27.43L38.6417 27.42Z" fill="black"/>
<path d="M40.0625 19.92V18.7H41.2725V19.92H40.0625ZM40.1425 27.5V21.33H41.2025V27.5H40.1425Z" fill="black"/>
<path d="M47.4109 27.4999V23.5899C47.4109 23.1299 47.3109 22.7699 47.1009 22.5099C46.8909 22.2499 46.5409 22.1199 46.0609 22.1199C45.7609 22.1199 45.5009 22.2099 45.2709 22.3799C45.0409 22.5599 44.8609 22.7799 44.7209 23.0699C44.6109 23.2999 44.5509 23.5599 44.5309 23.8499C44.5109 24.1399 44.5009 24.4099 44.5009 24.6399V27.4999H43.4609V21.3299H44.3609L44.4409 22.2599C44.5209 22.0799 44.6309 21.9199 44.7709 21.7899C44.9109 21.6599 45.0609 21.5399 45.2309 21.4599C45.4009 21.3799 45.5809 21.2999 45.7709 21.2499C45.9609 21.1999 46.1409 21.1799 46.3109 21.1799C47.0209 21.1799 47.5509 21.3799 47.9109 21.7799C48.2709 22.1799 48.4509 22.7399 48.4509 23.4499V27.5099H47.4109V27.4999Z" fill="black"/>
<path d="M54.52 27.5L54.43 26.56C54.27 26.92 54.01 27.1901 53.67 27.3701C53.32 27.5501 52.97 27.64 52.6 27.64C51.89 27.64 51.37 27.4401 51.02 27.0401C50.67 26.6401 50.5 26.0901 50.5 25.3701V21.32H51.54V25.22C51.54 25.68 51.64 26.04 51.83 26.3C52.02 26.56 52.37 26.6901 52.85 26.6901C53.06 26.6901 53.25 26.65 53.42 26.56C53.59 26.47 53.74 26.36 53.88 26.22C54.07 26.02 54.21 25.7601 54.28 25.4501C54.35 25.1401 54.39 24.83 54.39 24.51V21.3H55.43V27.47H54.53L54.52 27.5Z" fill="black"/>
<path d="M65.1809 27.4999V23.5799C65.1809 23.3599 65.1609 23.1599 65.1209 22.9799C65.0809 22.7999 65.0109 22.6499 64.9209 22.5199C64.8309 22.3899 64.7009 22.2899 64.5409 22.2199C64.3809 22.1499 64.1709 22.1099 63.9309 22.1099C63.7409 22.1099 63.5609 22.1499 63.4109 22.2199C63.2609 22.2899 63.1209 22.3999 63.0009 22.5199C62.7909 22.7299 62.6509 22.9899 62.5809 23.2799C62.5109 23.5799 62.4809 23.8899 62.4809 24.2099V27.4899H61.4409V23.5699C61.4409 23.3499 61.4209 23.1499 61.3909 22.9699C61.3609 22.7899 61.2909 22.6399 61.2009 22.5099C61.1109 22.3799 60.9809 22.2799 60.8209 22.2099C60.6609 22.1399 60.4509 22.0999 60.2109 22.0999C59.9909 22.0999 59.7909 22.1499 59.6209 22.2499C59.4409 22.3499 59.2909 22.4799 59.1609 22.6499C59.0109 22.8399 58.9009 23.0899 58.8409 23.3799C58.7809 23.6699 58.7509 23.9499 58.7509 24.2099V27.4899H57.7109V21.3199H58.6109L58.7109 22.1999C58.8709 21.8499 59.1109 21.5899 59.4409 21.4199C59.7709 21.2499 60.1009 21.1599 60.4509 21.1599C60.9109 21.1599 61.3009 21.2599 61.6109 21.4599C61.9209 21.6599 62.1509 21.9499 62.2909 22.3299C62.3709 22.1399 62.4809 21.9599 62.6109 21.8199C62.7409 21.6699 62.9009 21.5499 63.0709 21.4499C63.2409 21.3499 63.4209 21.2799 63.6109 21.2299C63.8009 21.1799 63.9909 21.1599 64.1909 21.1599C64.8909 21.1599 65.4109 21.3699 65.7409 21.7799C66.0809 22.1899 66.2509 22.7399 66.2509 23.4299V27.4899H65.2109L65.1809 27.4999Z" fill="black"/>
<path d="M20.2013 33.6799V41.3099H19.1012V33.6799H16.5312V32.6699H22.7712V33.6799H20.2013Z" fill="black"/>
<path d="M26.412 36.1499C26.322 36.1299 26.232 36.1199 26.122 36.1099C26.022 36.1099 25.922 36.0999 25.832 36.0999C25.592 36.0999 25.362 36.1499 25.172 36.2399C24.972 36.3299 24.802 36.4499 24.662 36.5899C24.542 36.7099 24.442 36.8499 24.362 37.0099C24.282 37.1699 24.232 37.3399 24.192 37.5199C24.152 37.6999 24.132 37.8799 24.122 38.0599C24.112 38.2399 24.102 38.4099 24.102 38.5699V41.3099H23.082V35.1399H23.992L24.072 36.2199C24.232 35.8399 24.482 35.5599 24.822 35.3699C25.162 35.1899 25.522 35.0999 25.912 35.0999C26.072 35.0999 26.232 35.1099 26.402 35.1399V36.1499H26.412Z" fill="black"/>
<path d="M32.8094 41.25C32.6994 41.31 32.5894 41.35 32.4794 41.37C32.3694 41.39 32.2594 41.4 32.1294 41.4C31.8494 41.4 31.6394 41.31 31.4794 41.13C31.3194 40.95 31.2394 40.73 31.2394 40.47H31.2194C31.0394 40.78 30.7794 41.02 30.4194 41.21C30.0694 41.39 29.6694 41.48 29.2294 41.48C28.8694 41.48 28.5594 41.43 28.2994 41.32C28.0394 41.21 27.8194 41.07 27.6394 40.89C27.4694 40.71 27.3294 40.51 27.2394 40.28C27.1494 40.05 27.1094 39.82 27.1094 39.58C27.1094 39.39 27.1394 39.18 27.2094 38.96C27.2794 38.74 27.3994 38.54 27.5694 38.36C27.7394 38.18 27.9694 38.02 28.2494 37.89C28.5294 37.76 28.8794 37.68 29.2994 37.66L31.1794 37.55V37.1C31.1794 36.95 31.1594 36.78 31.1294 36.61C31.0994 36.44 31.0094 36.29 30.8694 36.16C30.7594 36.06 30.6294 35.98 30.4694 35.93C30.3094 35.87 30.1094 35.85 29.8494 35.85C29.5694 35.85 29.3294 35.88 29.1594 35.95C28.9794 36.02 28.8394 36.11 28.7294 36.21C28.5294 36.41 28.4294 36.66 28.4294 36.95H27.4194C27.4194 36.67 27.4794 36.42 27.5694 36.21C27.6594 36 27.7894 35.82 27.9494 35.65C28.1594 35.43 28.4294 35.27 28.7694 35.16C29.1094 35.05 29.4694 35 29.8494 35C30.4494 35 30.9294 35.11 31.2794 35.33C31.6294 35.55 31.8794 35.84 32.0194 36.18C32.1394 36.46 32.1994 36.78 32.1994 37.13V40.12C32.1994 40.28 32.2294 40.39 32.2894 40.45C32.3494 40.51 32.4294 40.53 32.5394 40.53H32.6194C32.6194 40.53 32.6794 40.53 32.7094 40.52L32.8094 40.5V41.27V41.25ZM31.1794 38.34L29.5194 38.44C29.3694 38.44 29.2094 38.47 29.0394 38.52C28.8694 38.57 28.7294 38.63 28.5994 38.71C28.4694 38.8 28.3594 38.91 28.2794 39.05C28.1994 39.19 28.1594 39.35 28.1594 39.55C28.1594 39.83 28.2494 40.07 28.4394 40.29C28.6294 40.51 28.9394 40.61 29.3794 40.61C29.6194 40.61 29.8494 40.57 30.0694 40.49C30.2894 40.41 30.4894 40.28 30.6494 40.11C30.8394 39.92 30.9694 39.71 31.0494 39.46C31.1294 39.22 31.1694 38.96 31.1694 38.7V38.33L31.1794 38.34Z" fill="black"/>
<path d="M38.4109 41.31V37.4C38.4109 36.94 38.3109 36.58 38.1009 36.32C37.8909 36.06 37.5409 35.93 37.0609 35.93C36.7609 35.93 36.5009 36.02 36.2709 36.19C36.0409 36.37 35.8609 36.59 35.7209 36.88C35.6109 37.11 35.5509 37.37 35.5309 37.66C35.5109 37.95 35.5009 38.22 35.5009 38.45V41.31H34.4609V35.14H35.3609L35.4409 36.07C35.5209 35.89 35.6309 35.73 35.7709 35.6C35.9109 35.47 36.0609 35.35 36.2309 35.27C36.4009 35.19 36.5809 35.11 36.7709 35.06C36.9609 35.01 37.1409 34.99 37.3109 34.99C38.0209 34.99 38.5509 35.19 38.9109 35.59C39.2709 35.99 39.4509 36.55 39.4509 37.26V41.32H38.4109V41.31Z" fill="black"/>
<path d="M46.1603 39.52C46.1603 39.79 46.1103 40.03 46.0303 40.23C45.9503 40.43 45.8203 40.62 45.6803 40.77C45.4403 41.01 45.1503 41.19 44.8003 41.3C44.4503 41.41 44.0703 41.46 43.6703 41.46C43.2703 41.46 42.9103 41.41 42.5703 41.31C42.2303 41.21 41.9303 41.03 41.6703 40.77C41.4803 40.58 41.3403 40.37 41.2303 40.12C41.1203 39.87 41.0703 39.62 41.0703 39.36H42.1103C42.1103 39.57 42.1703 39.76 42.2603 39.91C42.3503 40.07 42.4703 40.2 42.6103 40.32C42.7503 40.43 42.9203 40.5 43.1203 40.54C43.3203 40.58 43.5203 40.6 43.7203 40.6C43.9303 40.6 44.1303 40.58 44.3203 40.53C44.5103 40.49 44.6903 40.39 44.8503 40.26C44.9403 40.19 45.0103 40.1 45.0703 39.98C45.1303 39.86 45.1503 39.73 45.1503 39.59C45.1503 39.35 45.0703 39.16 44.9103 39C44.7503 38.85 44.5103 38.75 44.1903 38.71C44.1203 38.71 44.0403 38.69 43.9203 38.67C43.8103 38.65 43.6803 38.64 43.5503 38.62C43.4203 38.6 43.2903 38.59 43.1503 38.57C43.0103 38.55 42.9003 38.54 42.7903 38.52C42.3303 38.45 41.9603 38.27 41.6903 37.99C41.4203 37.71 41.2803 37.33 41.2803 36.86C41.2803 36.62 41.3303 36.4 41.4303 36.18C41.5303 35.96 41.6503 35.79 41.7903 35.65C41.9903 35.44 42.2503 35.27 42.5603 35.15C42.8703 35.03 43.2203 34.97 43.6103 34.97C44.0203 34.97 44.4003 35.04 44.7403 35.16C45.0803 35.29 45.3603 35.49 45.5703 35.75C45.7103 35.91 45.8203 36.09 45.8903 36.27C45.9703 36.46 46.0103 36.68 46.0103 36.93H44.9703C44.9703 36.77 44.9203 36.62 44.8503 36.49C44.7803 36.36 44.7003 36.25 44.6103 36.17C44.3703 35.95 44.0303 35.84 43.6003 35.84C43.4803 35.84 43.3603 35.84 43.2603 35.85C43.1603 35.86 43.0303 35.89 42.8803 35.96C42.6903 36.04 42.5303 36.16 42.4203 36.31C42.3103 36.46 42.2603 36.62 42.2603 36.79C42.2603 37.05 42.3303 37.24 42.4803 37.36C42.6303 37.48 42.8303 37.56 43.0903 37.6C43.2603 37.62 43.4703 37.65 43.7103 37.68C43.9503 37.71 44.2403 37.75 44.5703 37.81C45.0103 37.88 45.3803 38.07 45.6903 38.37C45.9903 38.67 46.1503 39.05 46.1503 39.52H46.1603Z" fill="black"/>
<path d="M53.3997 38.23C53.3997 38.77 53.3197 39.26 53.1597 39.72C52.9997 40.18 52.7697 40.56 52.4597 40.86C52.2597 41.05 52.0197 41.2 51.7297 41.31C51.4397 41.42 51.1297 41.48 50.7597 41.48C50.5897 41.48 50.4197 41.46 50.2397 41.42C50.0597 41.38 49.8997 41.32 49.7297 41.25C49.5597 41.18 49.4197 41.09 49.2897 40.98C49.1597 40.87 49.0497 40.75 48.9697 40.61V43.96H47.9297V35.16H48.8397L48.9097 35.96C49.0897 35.65 49.3497 35.41 49.6997 35.25C50.0497 35.08 50.3997 35 50.7497 35C51.1297 35 51.4697 35.06 51.7597 35.18C52.0497 35.3 52.2897 35.46 52.4997 35.67C52.7897 35.97 53.0097 36.34 53.1597 36.79C53.3097 37.24 53.3897 37.72 53.3897 38.23H53.3997ZM52.3397 38.24C52.3397 37.96 52.3097 37.67 52.2597 37.39C52.2097 37.11 52.1197 36.86 51.9897 36.63C51.8597 36.4 51.6797 36.22 51.4497 36.08C51.2197 35.94 50.9397 35.87 50.5997 35.87C50.3697 35.87 50.1797 35.91 50.0197 35.99C49.8597 36.07 49.7197 36.16 49.5997 36.28C49.3397 36.51 49.1597 36.79 49.0597 37.14C48.9597 37.48 48.9097 37.85 48.9097 38.24C48.9097 38.63 48.9597 39 49.0597 39.34C49.1597 39.68 49.3397 39.97 49.5997 40.2C49.7197 40.31 49.8597 40.41 50.0197 40.49C50.1797 40.57 50.3697 40.61 50.5997 40.61C50.9397 40.61 51.2297 40.54 51.4497 40.4C51.6797 40.26 51.8597 40.08 51.9897 39.85C52.1197 39.62 52.2097 39.37 52.2597 39.09C52.3097 38.81 52.3397 38.53 52.3397 38.24Z" fill="black"/>
<path d="M60.3523 41.25C60.2423 41.31 60.1323 41.35 60.0223 41.37C59.9123 41.39 59.8023 41.4 59.6723 41.4C59.3923 41.4 59.1823 41.31 59.0223 41.13C58.8623 40.95 58.7823 40.73 58.7823 40.47H58.7623C58.5823 40.78 58.3223 41.02 57.9623 41.21C57.6123 41.39 57.2123 41.48 56.7723 41.48C56.4123 41.48 56.1023 41.43 55.8423 41.32C55.5823 41.21 55.3623 41.07 55.1823 40.89C55.0123 40.71 54.8723 40.51 54.7823 40.28C54.6923 40.05 54.6523 39.82 54.6523 39.58C54.6523 39.39 54.6823 39.18 54.7523 38.96C54.8223 38.74 54.9423 38.54 55.1123 38.36C55.2823 38.18 55.5123 38.02 55.7923 37.89C56.0723 37.76 56.4223 37.68 56.8423 37.66L58.7223 37.55V37.1C58.7223 36.95 58.7023 36.78 58.6723 36.61C58.6423 36.44 58.5523 36.29 58.4123 36.16C58.3023 36.06 58.1723 35.98 58.0123 35.93C57.8523 35.87 57.6523 35.85 57.3923 35.85C57.1123 35.85 56.8723 35.88 56.7023 35.95C56.5223 36.02 56.3823 36.11 56.2723 36.21C56.0723 36.41 55.9723 36.66 55.9723 36.95H54.9623C54.9623 36.67 55.0223 36.42 55.1123 36.21C55.2023 36 55.3323 35.82 55.4923 35.65C55.7023 35.43 55.9723 35.27 56.3123 35.16C56.6523 35.05 57.0123 35 57.3923 35C57.9923 35 58.4723 35.11 58.8223 35.33C59.1723 35.55 59.4223 35.84 59.5623 36.18C59.6823 36.46 59.7423 36.78 59.7423 37.13V40.12C59.7423 40.28 59.7723 40.39 59.8323 40.45C59.8923 40.51 59.9723 40.53 60.0823 40.53H60.1623C60.1623 40.53 60.2223 40.53 60.2523 40.52L60.3523 40.5V41.27V41.25ZM58.7223 38.34L57.0623 38.44C56.9123 38.44 56.7523 38.47 56.5823 38.52C56.4123 38.57 56.2723 38.63 56.1423 38.71C56.0123 38.8 55.9023 38.91 55.8223 39.05C55.7423 39.19 55.7023 39.35 55.7023 39.55C55.7023 39.83 55.7923 40.07 55.9823 40.29C56.1723 40.51 56.4823 40.61 56.9223 40.61C57.1623 40.61 57.3923 40.57 57.6123 40.49C57.8323 40.41 58.0323 40.28 58.1923 40.11C58.3823 39.92 58.5123 39.71 58.5923 39.46C58.6723 39.22 58.7123 38.96 58.7123 38.7V38.33L58.7223 38.34Z" fill="black"/>
<path d="M65.33 36.1499C65.24 36.1299 65.15 36.1199 65.04 36.1099C64.94 36.1099 64.84 36.0999 64.75 36.0999C64.51 36.0999 64.28 36.1499 64.09 36.2399C63.89 36.3299 63.72 36.4499 63.58 36.5899C63.46 36.7099 63.36 36.8499 63.28 37.0099C63.2 37.1699 63.15 37.3399 63.11 37.5199C63.07 37.6999 63.05 37.8799 63.04 38.0599C63.03 38.2399 63.02 38.4099 63.02 38.5699V41.3099H62V35.1399H62.91L62.99 36.2199C63.15 35.8399 63.4 35.5599 63.74 35.3699C64.08 35.1899 64.44 35.0999 64.83 35.0999C64.99 35.0999 65.15 35.1099 65.32 35.1399V36.1499H65.33Z" fill="black"/>
<path d="M71.532 37.9V38.23C71.532 38.34 71.532 38.45 71.522 38.57H67.162C67.162 38.85 67.212 39.14 67.322 39.42C67.432 39.7 67.572 39.93 67.762 40.12C68.052 40.41 68.432 40.56 68.892 40.56C69.392 40.56 69.782 40.43 70.042 40.16C70.132 40.07 70.202 39.98 70.262 39.88C70.322 39.78 70.372 39.65 70.412 39.49H71.422C71.382 39.8 71.272 40.09 71.102 40.35C70.932 40.62 70.722 40.84 70.472 41.01C70.252 41.16 70.012 41.27 69.742 41.35C69.472 41.43 69.192 41.47 68.902 41.47C68.462 41.47 68.072 41.39 67.722 41.22C67.372 41.05 67.082 40.83 66.852 40.54C66.592 40.24 66.402 39.89 66.272 39.5C66.142 39.11 66.082 38.69 66.082 38.25C66.082 37.88 66.122 37.52 66.192 37.2C66.262 36.88 66.382 36.56 66.562 36.28C66.782 35.91 67.092 35.6 67.492 35.35C67.892 35.11 68.352 34.98 68.892 34.98C69.292 34.98 69.642 35.05 69.962 35.19C70.282 35.33 70.542 35.53 70.772 35.77C71.012 36.04 71.202 36.36 71.342 36.72C71.482 37.09 71.552 37.48 71.552 37.89L71.532 37.9ZM70.472 37.68C70.472 37.44 70.442 37.22 70.372 37C70.302 36.78 70.212 36.59 70.092 36.43C69.962 36.26 69.792 36.12 69.592 36.02C69.392 35.92 69.152 35.87 68.872 35.87C68.592 35.87 68.342 35.92 68.132 36.03C67.922 36.14 67.752 36.27 67.612 36.44C67.472 36.61 67.362 36.8 67.292 37.02C67.222 37.24 67.182 37.46 67.172 37.68H70.462H70.472Z" fill="black"/>
<path d="M77.2195 41.31V37.4C77.2195 36.94 77.1195 36.58 76.9095 36.32C76.6995 36.06 76.3495 35.93 75.8695 35.93C75.5695 35.93 75.3095 36.02 75.0795 36.19C74.8495 36.37 74.6695 36.59 74.5295 36.88C74.4195 37.11 74.3595 37.37 74.3395 37.66C74.3195 37.95 74.3095 38.22 74.3095 38.45V41.31H73.2695V35.14H74.1695L74.2495 36.07C74.3295 35.89 74.4395 35.73 74.5795 35.6C74.7195 35.47 74.8695 35.35 75.0395 35.27C75.2095 35.19 75.3895 35.11 75.5795 35.06C75.7695 35.01 75.9495 34.99 76.1195 34.99C76.8295 34.99 77.3595 35.19 77.7195 35.59C78.0795 35.99 78.2595 36.55 78.2595 37.26V41.32H77.2195V41.31Z" fill="black"/>
<path d="M85.1897 39.24C85.1697 39.57 85.0897 39.87 84.9697 40.12C84.8497 40.37 84.6797 40.6 84.4697 40.8C84.2497 41.01 83.9897 41.18 83.6997 41.29C83.4097 41.4 83.0697 41.47 82.6897 41.47C82.1297 41.47 81.6697 41.36 81.3097 41.14C80.9497 40.92 80.6597 40.64 80.4397 40.32C80.2797 40.08 80.1497 39.78 80.0597 39.44C79.9697 39.1 79.9297 38.7 79.9297 38.23C79.9297 37.76 79.9697 37.37 80.0597 37.02C80.1497 36.68 80.2697 36.39 80.4397 36.14C80.6597 35.81 80.9497 35.54 81.3097 35.32C81.6697 35.1 82.1297 34.99 82.6797 34.99C83.0497 34.99 83.3797 35.05 83.6697 35.16C83.9597 35.27 84.2197 35.44 84.4297 35.65C84.6397 35.85 84.8097 36.08 84.9397 36.34C85.0697 36.6 85.1397 36.89 85.1697 37.24H84.1197C84.0997 37.03 84.0397 36.84 83.9697 36.68C83.8897 36.52 83.7997 36.39 83.6797 36.27C83.5597 36.16 83.4097 36.06 83.2397 36C83.0697 35.94 82.8797 35.9 82.6797 35.9C82.4397 35.9 82.2397 35.94 82.0697 36.02C81.8997 36.1 81.7397 36.19 81.6097 36.31C81.3697 36.52 81.1997 36.8 81.1197 37.15C81.0297 37.5 80.9897 37.87 80.9897 38.25C80.9897 38.63 81.0297 39 81.1197 39.35C81.1997 39.7 81.3697 39.98 81.6097 40.19C81.7497 40.3 81.8997 40.4 82.0697 40.48C82.2397 40.56 82.4397 40.6 82.6797 40.6C82.8897 40.6 83.0897 40.56 83.2697 40.49C83.4497 40.42 83.6097 40.32 83.7297 40.19C83.8397 40.08 83.9397 39.95 83.9997 39.8C84.0697 39.65 84.1197 39.48 84.1397 39.28H85.1897V39.24Z" fill="black"/>
<path d="M88.7422 42.5799C88.5922 42.9799 88.4022 43.2999 88.1422 43.5399C87.8922 43.7799 87.5322 43.8999 87.0722 43.8999C86.8122 43.8999 86.6022 43.8799 86.4422 43.8499C86.2822 43.8199 86.1822 43.7899 86.1422 43.7799V42.8799C86.2122 42.8999 86.2822 42.9099 86.3622 42.9299C86.4322 42.9499 86.5022 42.9599 86.5922 42.9699C86.6722 42.9699 86.7722 42.9799 86.8822 42.9799C87.1022 42.9799 87.2922 42.9399 87.4422 42.8499C87.5922 42.7599 87.7222 42.5999 87.8122 42.3599L88.2022 41.3199L85.7422 35.1499H86.9122L88.7322 40.0099L90.4622 35.1499H91.5422L88.7622 42.5799H88.7422Z" fill="black"/>
<path d="M17.0703 84.24C17.0703 81.42 18.2903 79.33 21.3103 79.33C24.0303 79.33 25.2103 80.82 25.2103 82.96V83.15H22.9903V82.85C22.9903 81.67 22.5203 81.03 21.3303 81.03C20.0103 81.03 19.3903 81.84 19.3903 84V84.61C19.3903 86.9 19.9703 87.63 21.3403 87.63C22.4403 87.63 23.0803 87.15 23.0803 85.85V85.44H25.2103V85.74C25.2103 87.87 24.0903 89.32 21.3803 89.32C18.0803 89.32 17.0803 87.19 17.0803 84.46V84.23L17.0703 84.24ZM30.0603 81.78C32.3303 81.78 33.1103 83.02 33.1103 84.26V89.16H31.1903V88.16H31.1403C30.8003 88.81 30.1203 89.32 29.1303 89.32C27.7803 89.32 26.7303 88.52 26.7303 87.21C26.7303 85.9 27.4403 84.82 29.6903 84.82H31.1403V84.38C31.1403 83.69 30.9503 83.21 30.0203 83.21C29.2003 83.21 28.8503 83.55 28.8503 84.15V84.18H27.0203V83.99C27.0203 82.97 27.7903 81.79 30.0503 81.79L30.0603 81.78ZM31.1403 86.23V86.1H29.8603C29.0503 86.1 28.7303 86.49 28.7303 87V87.09C28.7303 87.67 29.0603 87.95 29.6303 87.95C30.5403 87.95 31.1403 87.34 31.1403 86.22V86.23ZM34.9103 81.9H36.8803V83.27H36.9303C37.2503 82.39 37.9503 81.77 39.2303 81.77C40.9203 81.77 41.5803 82.63 41.5803 84.16V89.15H39.6103V84.63C39.6103 83.75 39.3203 83.37 38.4003 83.37C37.3303 83.37 36.8803 84.11 36.8803 84.82V89.15H34.9103V81.9ZM47.9303 88.11C47.6003 88.76 46.9303 89.29 45.9203 89.29C43.6703 89.29 42.9603 87.33 42.9603 85.65V85.51C42.9603 83.3 44.0503 81.77 45.9203 81.77C47.0403 81.77 47.5703 82.19 47.9303 82.66V79.26H49.9003V89.16H47.9303V88.12V88.11ZM47.9503 86.58V84.4C47.8203 83.78 47.3703 83.27 46.5103 83.27C45.3303 83.27 44.9203 84.01 44.9203 85.44V85.63C44.9203 87.01 45.2203 87.79 46.4203 87.79C47.3103 87.79 47.7803 87.33 47.9403 86.58H47.9503ZM51.6903 80.04C51.6903 79.44 52.1703 78.95 52.7603 78.95C53.3503 78.95 53.8403 79.44 53.8403 80.04C53.8403 80.64 53.3503 81.12 52.7603 81.12C52.1703 81.12 51.6903 80.64 51.6903 80.04ZM51.7703 81.9H53.7403V89.15H51.7703V81.9ZM60.1803 88.11C59.8503 88.76 59.1803 89.29 58.1703 89.29C55.9203 89.29 55.2103 87.33 55.2103 85.65V85.51C55.2103 83.3 56.3003 81.77 58.1703 81.77C59.2903 81.77 59.8203 82.19 60.1803 82.66V79.26H62.1503V89.16H60.1803V88.12V88.11ZM60.1903 86.58V84.4C60.0603 83.78 59.6103 83.27 58.7603 83.27C57.5803 83.27 57.1703 84.01 57.1703 85.44V85.63C57.1703 87.01 57.4703 87.79 58.6703 87.79C59.5603 87.79 60.0303 87.33 60.1903 86.58ZM63.5803 88.15C63.5803 87.55 64.0703 87.05 64.6803 87.05C65.2903 87.05 65.8103 87.56 65.8103 88.15C65.8103 88.74 65.3003 89.27 64.6803 89.27C64.0603 89.27 63.5803 88.76 63.5803 88.15Z" fill="black"/>
</g>
<defs>
<clipPath id="clip0_98_259011">
<rect width="108" height="108" fill="white"/>
</clipPath>
</defs>
</svg>
